<svg xmlns="http://www.w3.org/2000/svg" width="340.56" height="336.36"><defs><linearGradient id="b" x1="0" x2="1" y1="0" y2="0" gradientTransform="scale(2170.122 -2170.122)rotate(-78 .113 -.275)" gradientUnits="userSpaceOnUse" spreadMethod="pad"><stop offset="0" style="stop-opacity:1;stop-color:#46a339"/><stop offset="1" style="stop-opacity:1;stop-color:#7dcb29"/></linearGradient><clipPath id="a" clipPathUnits="userSpaceOnUse"><path d="M1740.59 337.141c-22.57 41.339-127.57 240.41-216.34 521.007-87.04 275.122-173.22 613.402-215.9 791.602-87.37 364.95-232.13 697.72-663.077 827.56C453.141 2535.2.003 2521.19.003 2521.19s311.157-198.08 488.493-525.77c112.641-208.13 137.387-393.02 156.777-453.62 346.965-6.42 493.457-164.49 693.927-524.3 43.95-78.871 89.97-159.191 134.64-235.891 0 0 .23-.449-.16-.64-.44-.227-.68.281-.68.281l-.01-.008c-63.03 97.156-135.54 205.348-199.3 292.198-143.89 196-330.651 379.34-615.569 386.12-138.445 3.29-75.32-1.09-275.785 2.77 309.156-171.5 333.098-597.26 528.906-873.842C1091.19 334.332 1249.46 123.73 1705.52 35.441c64.5-12.492 215.32-35.82 286.12-31.652-94.28 79.77-167.97 190.953-251.05 333.352"/></clipPath></defs><g clip-path="url(#a)" transform="matrix(.13333 0 0 -.13333 0 336.36)"><path d="M1740.59 337.141c-22.57 41.339-127.57 240.41-216.34 521.007-87.04 275.122-173.22 613.402-215.9 791.602-87.37 364.95-232.13 697.72-663.077 827.56C453.141 2535.2.003 2521.19.003 2521.19s311.157-198.08 488.493-525.77c112.641-208.13 137.387-393.02 156.777-453.62 346.965-6.42 493.457-164.49 693.927-524.3 43.95-78.871 89.97-159.191 134.64-235.891 0 0 .23-.449-.16-.64-.44-.227-.68.281-.68.281l-.01-.008c-63.03 97.156-135.54 205.348-199.3 292.198-143.89 196-330.651 379.34-615.569 386.12-138.445 3.29-75.32-1.09-275.785 2.77 309.156-171.5 333.098-597.26 528.906-873.842C1091.19 334.332 1249.46 123.73 1705.52 35.441c64.5-12.492 215.32-35.82 286.12-31.652-94.28 79.77-167.97 190.953-251.05 333.352" style="fill:url(#b);fill-opacity:1;fill-rule:nonzero;stroke:none"/></g><path d="m2156.68 2522.26-480-1844.35c97.49-246.262 190.25-450.551 337.48-585.012l527.31 2020.652 4.25 16.59c5.36 24.01 8.52 48.4 8.52 72.94 0 191.43-173.32 315.55-397.56 319.18M362.363 1384.66 9.031 35.36h491.313l202.043 780.07c-90.864 258.83-183.371 457.51-340.024 569.23M2308.58 99.121l25.32-70.96 25.49 70.96h28.17V0h-18.18v79.98L2341.96 0h-15.87l-27.67 79.98V0h-18.18v99.121Zm-129.65-16.539v16.54h84.49v-16.54h-32.4V0h-19.69v82.582z" style="fill:#100f0d;fill-opacity:1;fill-rule:nonzero;stroke:none" transform="matrix(.13333 0 0 -.13333 0 336.36)"/></svg>