<svg xmlns="http://www.w3.org/2000/svg" xmlns:xlink="http://www.w3.org/1999/xlink" version="1.1"
 x="0px" y="0px" viewBox="0 0 1000 1000" enable-background="new 0 0 1000 1000" 
 xml:space="preserve"
 >
<linearGradient xmlns="http://www.w3.org/2000/svg" 
id="gradient" gradientUnits="userSpaceOnUse" x1="184.2886" y1="98.5924" 
x2="628.1017" 
y2="867.2993">
	<stop offset="0" style="stop-color:#e8108d"/>
	<stop offset="0.5" style="stop-color:#8e2088"/>
	<stop offset="1" style="stop-color:#602586"/>
</linearGradient>
<style type="text/css">
	.st0{fill:url(#gradient);}
</style>
<g xmlns="http://www.w3.org/2000/svg" class="st0">
    <path d="M488.8,393c246,0,445.4-85.7,445.4-191.5C934.2,95.7,734.9,10,488.8,10c-246,0-445.4,85.7-445.4,191.5C43.4,307.3,242.8,393,488.8,393z"/><path d="M488.8,592c6.5,0,12.9-0.3,19.4-0.4c42.1-87.8,133.8-148.8,240.6-148.8c52.2,0,100.8,14.8,141.8,40c27.7-24.9,43.6-52.8,43.6-82.3c0-38.9,0-79.4,0-146.4c0,105.8-199.4,191.5-445.4,191.5c-246,0-445.4-85.7-445.4-191.5c0,44.2,0,73.7,0,146.4C43.4,506.3,242.8,592,488.8,592z"/><path d="M488.8,791c4.2,0,8.3-0.2,12.5-0.3c-11.3-28.5-17.8-59.3-17.8-91.7c0-18.7,2.2-36.9,6.1-54.5c-0.3,0-0.6,0-0.8,0c-246,0-445.4-85.7-445.4-191.5c0,44.2,0,73.7,0,146.4C43.4,705.3,242.8,791,488.8,791z"/><path d="M675.1,944.9c-60.2-16.8-111.7-53.3-146-102.2c-13.3,0.5-26.7,0.9-40.3,0.9c-246,0-445.4-85.7-445.4-191.5c0,44.2,0,73.7,0,146.4C43.4,904.3,242.8,990,488.8,990c68.8,0,133.5-6.9,191.6-18.9c-3.6-7.2-5.7-15.1-5.7-23.4C674.8,946.8,675,945.9,675.1,944.9z"/><path d="M956.6,687.2H601.5v-58.6H779v-9.8v-78.1L956.6,687.2z M779,892.2L601.5,745.8h355.1v58.6H779v39V892.2z"/>
</g>
</svg>
