<svg width="275" height="200" xmlns:dc="http://purl.org/dc/elements/1.1/" xmlns:cc="http://creativecommons.org/ns#" xmlns:rdf="http://www.w3.org/1999/02/22-rdf-syntax-ns#" xmlns:svg="http://www.w3.org/2000/svg" xmlns="http://www.w3.org/2000/svg" xmlns:sodipodi="http://sodipodi.sourceforge.net/DTD/sodipodi-0.dtd" xmlns:inkscape="http://www.inkscape.org/namespaces/inkscape" viewBox="25 25 380 380"><g style="stroke-width: 26px; stroke: rgb(255, 255, 255); stroke-linejoin: round;"><rect x="0" y="112" width="190" height="60" shape-rendering="geometricPrecision" style="fill: rgb(230, 0, 141);"></rect><rect x="28" y="70" width="14" height="14" shape-rendering="geometricPrecision" style="fill: rgb(230, 0, 141);"></rect><rect x="0" y="84" width="14" height="14" shape-rendering="geometricPrecision" style="fill: rgb(230, 0, 141);"></rect><rect x="28" y="84" width="14" height="14" shape-rendering="geometricPrecision" style="fill: rgb(230, 0, 141);"></rect><rect x="42" y="84" width="14" height="14" shape-rendering="geometricPrecision" style="fill: rgb(230, 0, 141);"></rect><rect x="70" y="84" width="14" height="14" shape-rendering="geometricPrecision" style="fill: rgb(230, 0, 141);"></rect><rect x="0" y="98" width="14" height="14" shape-rendering="geometricPrecision" style="fill: rgb(230, 0, 141);"></rect><rect x="14" y="98" width="14" height="14" shape-rendering="geometricPrecision" style="fill: rgb(230, 0, 141);"></rect><rect x="28" y="98" width="14" height="14" shape-rendering="geometricPrecision" style="fill: rgb(230, 0, 141);"></rect><rect x="42" y="98" width="14" height="14" shape-rendering="geometricPrecision" style="fill: rgb(230, 0, 141);"></rect><rect x="70" y="98" width="14" height="14" shape-rendering="geometricPrecision" style="fill: rgb(230, 0, 141);"></rect><rect x="98" y="98" width="14" height="14" shape-rendering="geometricPrecision" style="fill: rgb(230, 0, 141);"></rect><rect x="0" y="186" width="190" height="60" shape-rendering="geometricPrecision" style="fill: rgb(141, 32, 137);"></rect><rect x="0" y="260" width="190" height="60" shape-rendering="geometricPrecision" style="fill: rgb(95, 38, 136);"></rect><rect x="148" y="348" width="14" height="14" shape-rendering="geometricPrecision" style="fill: rgb(95, 38, 136);"></rect><rect x="176" y="334" width="14" height="14" shape-rendering="geometricPrecision" style="fill: rgb(95, 38, 136);"></rect><rect x="148" y="334" width="14" height="14" shape-rendering="geometricPrecision" style="fill: rgb(95, 38, 136);"></rect><rect x="134" y="334" width="14" height="14" shape-rendering="geometricPrecision" style="fill: rgb(95, 38, 136);"></rect><rect x="106" y="334" width="14" height="14" shape-rendering="geometricPrecision" style="fill: rgb(95, 38, 136);"></rect><rect x="176" y="320" width="14" height="14" shape-rendering="geometricPrecision" style="fill: rgb(95, 38, 136);"></rect><rect x="162" y="320" width="14" height="14" shape-rendering="geometricPrecision" style="fill: rgb(95, 38, 136);"></rect><rect x="148" y="320" width="14" height="14" shape-rendering="geometricPrecision" style="fill: rgb(95, 38, 136);"></rect><rect x="134" y="320" width="14" height="14" shape-rendering="geometricPrecision" style="fill: rgb(95, 38, 136);"></rect><rect x="106" y="320" width="14" height="14" shape-rendering="geometricPrecision" style="fill: rgb(95, 38, 136);"></rect><rect x="78" y="320" width="14" height="14" shape-rendering="geometricPrecision" style="fill: rgb(95, 38, 136);"></rect><path d="M203.55500 209.30000L203.55500 158.42400L230.02000 158.42400Q239.02600 158.42400 243.60800 163.32200Q248.19000 168.22000 248.19000 176.51500L248.19000 176.51500Q248.19000 181.57100 245.66200 185.48150Q243.13400 189.39200 238.78900 191.52500L238.78900 191.52500Q239.65800 192.23600 240.29000 193.18400Q240.92200 194.13200 241.71200 195.94900L241.71200 195.94900L247.55800 209.30000L232.07400 209.30000L226.70200 197.05500Q226.07000 195.63300 225.16150 195.04050Q224.25300 194.44800 222.59400 194.44800L222.59400 194.44800L218.40700 194.44800L218.40700 209.30000L203.55500 209.30000ZM218.40700 183.07200L226.22800 183.07200Q229.46700 183.07200 231.24450 181.37350Q233.02200 179.67500 233.02200 176.51500L233.02200 176.51500Q233.02200 169.80000 226.70200 169.80000L226.70200 169.80000L218.40700 169.80000L218.40700 183.07200Z" transform="scale(1,1.1755)" shape-rendering="geometricPrecision" style="fill: rgb(141, 32, 137);"></path><path d="M248.58500 209.30000L263.04200 190.26100L249.13800 171.85400L265.25400 171.85400L271.10000 179.75400L277.02500 171.85400L293.06200 171.85400L279.23700 190.26100L293.69400 209.30000L277.42000 209.30000L271.10000 200.92600L264.78000 209.30000L248.58500 209.30000Z" transform="scale(1,1.1755)" shape-rendering="geometricPrecision" style="fill: rgb(141, 32, 137);"></path><path d="M295.66900 209.30000L295.66900 158.42400L318.42100 158.42400Q330.58700 158.42400 336.86750 164.54650Q343.14800 170.66900 343.14800 184.17800L343.14800 184.17800Q343.14800 197.05500 336.86750 203.17750Q330.58700 209.30000 318.42100 209.30000L318.42100 209.30000L295.66900 209.30000ZM310.52100 197.92400L316.52500 197.92400Q320.47500 197.92400 322.92400 196.77850Q325.37300 195.63300 326.67650 192.67050Q327.98000 189.70800 327.98000 184.17800L327.98000 184.17800Q327.98000 178.56900 326.79500 175.44850Q325.61000 172.32800 323.12150 171.06400Q320.63300 169.80000 316.52500 169.80000L316.52500 169.80000L310.52100 169.80000L310.52100 197.92400Z" transform="scale(1,1.1755)" shape-rendering="geometricPrecision" style="fill: rgb(141, 32, 137);"></path><path d="M348.67800 209.30000L348.67800 158.42400L376.64400 158.42400Q384.30700 158.42400 388.37550 162.05800Q392.44400 165.69200 392.44400 172.48600L392.44400 172.48600Q392.44400 176.27800 391.02200 179.04300Q389.60000 181.80800 387.15100 183.38800L387.15100 183.38800Q390.70600 184.81000 392.48350 187.25900Q394.26100 189.70800 394.26100 194.21100L394.26100 194.21100Q394.26100 201.40000 389.83700 205.35000Q385.41300 209.30000 377.27600 209.30000L377.27600 209.30000L348.67800 209.30000ZM362.97700 178.72700L372.61500 178.72700Q378.06600 178.72700 378.06600 173.82900L378.06600 173.82900Q378.06600 171.30100 376.68350 170.07650Q375.30100 168.85200 372.22000 168.85200L372.22000 168.85200L362.97700 168.85200L362.97700 178.72700ZM362.97700 198.95100L373.24700 198.95100Q376.24900 198.95100 377.67100 197.68700Q379.09300 196.42300 379.09300 193.50000L379.09300 193.50000Q379.09300 190.97200 377.63150 189.74750Q376.17000 188.52300 372.93100 188.52300L372.93100 188.52300L362.97700 188.52300L362.97700 198.95100Z" transform="scale(1,1.1755)" shape-rendering="geometricPrecision" style="fill: rgb(141, 32, 137);"></path></g><g id="normal-group"><rect x="0" y="112" width="190" height="60" shape-rendering="crispEdges" style="fill: rgb(230, 0, 141);"></rect><rect x="28" y="70" width="14" height="14" shape-rendering="crispEdges" style="fill: rgb(230, 0, 141);"></rect><rect x="0" y="84" width="14" height="14" shape-rendering="crispEdges" style="fill: rgb(230, 0, 141);"></rect><rect x="28" y="84" width="14" height="14" shape-rendering="crispEdges" style="fill: rgb(230, 0, 141);"></rect><rect x="42" y="84" width="14" height="14" shape-rendering="crispEdges" style="fill: rgb(230, 0, 141);"></rect><rect x="70" y="84" width="14" height="14" shape-rendering="crispEdges" style="fill: rgb(230, 0, 141);"></rect><rect x="0" y="98" width="14" height="14" shape-rendering="crispEdges" style="fill: rgb(230, 0, 141);"></rect><rect x="14" y="98" width="14" height="14" shape-rendering="crispEdges" style="fill: rgb(230, 0, 141);"></rect><rect x="28" y="98" width="14" height="14" shape-rendering="crispEdges" style="fill: rgb(230, 0, 141);"></rect><rect x="42" y="98" width="14" height="14" shape-rendering="crispEdges" style="fill: rgb(230, 0, 141);"></rect><rect x="70" y="98" width="14" height="14" shape-rendering="crispEdges" style="fill: rgb(230, 0, 141);"></rect><rect x="98" y="98" width="14" height="14" shape-rendering="crispEdges" style="fill: rgb(230, 0, 141);"></rect><rect x="0" y="186" width="190" height="60" shape-rendering="crispEdges" style="fill: rgb(141, 32, 137);"></rect><rect x="0" y="260" width="190" height="60" shape-rendering="crispEdges" style="fill: rgb(95, 38, 136);"></rect><rect x="148" y="348" width="14" height="14" shape-rendering="crispEdges" style="fill: rgb(95, 38, 136);"></rect><rect x="176" y="334" width="14" height="14" shape-rendering="crispEdges" style="fill: rgb(95, 38, 136);"></rect><rect x="148" y="334" width="14" height="14" shape-rendering="crispEdges" style="fill: rgb(95, 38, 136);"></rect><rect x="134" y="334" width="14" height="14" shape-rendering="crispEdges" style="fill: rgb(95, 38, 136);"></rect><rect x="106" y="334" width="14" height="14" shape-rendering="crispEdges" style="fill: rgb(95, 38, 136);"></rect><rect x="176" y="320" width="14" height="14" shape-rendering="crispEdges" style="fill: rgb(95, 38, 136);"></rect><rect x="162" y="320" width="14" height="14" shape-rendering="crispEdges" style="fill: rgb(95, 38, 136);"></rect><rect x="148" y="320" width="14" height="14" shape-rendering="crispEdges" style="fill: rgb(95, 38, 136);"></rect><rect x="134" y="320" width="14" height="14" shape-rendering="crispEdges" style="fill: rgb(95, 38, 136);"></rect><rect x="106" y="320" width="14" height="14" shape-rendering="crispEdges" style="fill: rgb(95, 38, 136);"></rect><rect x="78" y="320" width="14" height="14" shape-rendering="crispEdges" style="fill: rgb(95, 38, 136);"></rect><path d="M203.55500 209.30000L203.55500 158.42400L230.02000 158.42400Q239.02600 158.42400 243.60800 163.32200Q248.19000 168.22000 248.19000 176.51500L248.19000 176.51500Q248.19000 181.57100 245.66200 185.48150Q243.13400 189.39200 238.78900 191.52500L238.78900 191.52500Q239.65800 192.23600 240.29000 193.18400Q240.92200 194.13200 241.71200 195.94900L241.71200 195.94900L247.55800 209.30000L232.07400 209.30000L226.70200 197.05500Q226.07000 195.63300 225.16150 195.04050Q224.25300 194.44800 222.59400 194.44800L222.59400 194.44800L218.40700 194.44800L218.40700 209.30000L203.55500 209.30000ZM218.40700 183.07200L226.22800 183.07200Q229.46700 183.07200 231.24450 181.37350Q233.02200 179.67500 233.02200 176.51500L233.02200 176.51500Q233.02200 169.80000 226.70200 169.80000L226.70200 169.80000L218.40700 169.80000L218.40700 183.07200Z" transform="scale(1,1.1755)" shape-rendering="geometricPrecision" style="fill: rgb(141, 32, 137);"></path><path d="M248.58500 209.30000L263.04200 190.26100L249.13800 171.85400L265.25400 171.85400L271.10000 179.75400L277.02500 171.85400L293.06200 171.85400L279.23700 190.26100L293.69400 209.30000L277.42000 209.30000L271.10000 200.92600L264.78000 209.30000L248.58500 209.30000Z" transform="scale(1,1.1755)" shape-rendering="geometricPrecision" style="fill: rgb(141, 32, 137);"></path><path d="M295.66900 209.30000L295.66900 158.42400L318.42100 158.42400Q330.58700 158.42400 336.86750 164.54650Q343.14800 170.66900 343.14800 184.17800L343.14800 184.17800Q343.14800 197.05500 336.86750 203.17750Q330.58700 209.30000 318.42100 209.30000L318.42100 209.30000L295.66900 209.30000ZM310.52100 197.92400L316.52500 197.92400Q320.47500 197.92400 322.92400 196.77850Q325.37300 195.63300 326.67650 192.67050Q327.98000 189.70800 327.98000 184.17800L327.98000 184.17800Q327.98000 178.56900 326.79500 175.44850Q325.61000 172.32800 323.12150 171.06400Q320.63300 169.80000 316.52500 169.80000L316.52500 169.80000L310.52100 169.80000L310.52100 197.92400Z" transform="scale(1,1.1755)" shape-rendering="geometricPrecision" style="fill: rgb(141, 32, 137);"></path><path d="M348.67800 209.30000L348.67800 158.42400L376.64400 158.42400Q384.30700 158.42400 388.37550 162.05800Q392.44400 165.69200 392.44400 172.48600L392.44400 172.48600Q392.44400 176.27800 391.02200 179.04300Q389.60000 181.80800 387.15100 183.38800L387.15100 183.38800Q390.70600 184.81000 392.48350 187.25900Q394.26100 189.70800 394.26100 194.21100L394.26100 194.21100Q394.26100 201.40000 389.83700 205.35000Q385.41300 209.30000 377.27600 209.30000L377.27600 209.30000L348.67800 209.30000ZM362.97700 178.72700L372.61500 178.72700Q378.06600 178.72700 378.06600 173.82900L378.06600 173.82900Q378.06600 171.30100 376.68350 170.07650Q375.30100 168.85200 372.22000 168.85200L372.22000 168.85200L362.97700 168.85200L362.97700 178.72700ZM362.97700 198.95100L373.24700 198.95100Q376.24900 198.95100 377.67100 197.68700Q379.09300 196.42300 379.09300 193.50000L379.09300 193.50000Q379.09300 190.97200 377.63150 189.74750Q376.17000 188.52300 372.93100 188.52300L372.93100 188.52300L362.97700 188.52300L362.97700 198.95100Z" transform="scale(1,1.1755)" shape-rendering="geometricPrecision" style="fill: rgb(141, 32, 137);"></path></g></svg>
