<?xml version="1.0" encoding="UTF-8" standalone="no"?>
<svg
   xmlns:dc="http://purl.org/dc/elements/1.1/"
   xmlns:cc="http://creativecommons.org/ns#"
   xmlns:rdf="http://www.w3.org/1999/02/22-rdf-syntax-ns#"
   xmlns:svg="http://www.w3.org/2000/svg"
   xmlns="http://www.w3.org/2000/svg"
   xmlns:sodipodi="http://sodipodi.sourceforge.net/DTD/sodipodi-0.dtd"
   xmlns:inkscape="http://www.inkscape.org/namespaces/inkscape"
   width="180"
   height="420"
   viewBox="0 0 180 420"
   id="svg5302"
   version="1.1"
   inkscape:version="0.91 r13725"
   sodipodi:docname="logo_union_path.svg">
  <metadata
     id="metadata5378">
    <rdf:RDF>
      <cc:Work
         rdf:about="">
        <dc:format>image/svg+xml</dc:format>
        <dc:type
           rdf:resource="http://purl.org/dc/dcmitype/StillImage" />
        <dc:title></dc:title>
      </cc:Work>
    </rdf:RDF>
  </metadata>
  <defs
     id="defs5376" />
  <sodipodi:namedview
     pagecolor="#ffffff"
     bordercolor="#666666"
     borderopacity="1"
     objecttolerance="10"
     gridtolerance="10"
     guidetolerance="10"
     inkscape:pageopacity="0"
     inkscape:pageshadow="2"
     inkscape:window-width="1920"
     inkscape:window-height="1029"
     id="namedview5374"
     showgrid="false"
     inkscape:zoom="2.247619"
     inkscape:cx="271.84428"
     inkscape:cy="210.487"
     inkscape:window-x="0"
     inkscape:window-y="0"
     inkscape:window-maximized="1"
     inkscape:current-layer="svg5302" />
  <path
     style="fill: rgb(183, 23, 140);"
     d="M 14 0 L 14 14 L 28 14 L 28 0 L 14 0 z M 0 28 L 0 42 L 14 42 L 14 28 L 0 28 z M 14 42 L 14 56 L 28 56 L 28 42 L 14 42 z M 42 28 L 42 42 L 56 42 L 56 28 L 42 28 z M 56 56 L 56 70 L 70 70 L 70 56 L 56 56 z M 28 70 L 28 84 L 28 98 L 14 98 L 14 84 L 0 84 L 0 98 L 0 112 L 0 168 L 180 168 L 180 112 L 112 112 L 112 98 L 98 98 L 98 112 L 84 112 L 84 98 L 84 84 L 70 84 L 70 98 L 70 112 L 56 112 L 56 98 L 56 84 L 42 84 L 42 70 L 28 70 z "
     id="rect5304" />
  <rect
     x="0"
     y="182"
     width="180"
     height="56"
     style="fill: rgb(84, 36, 55);"
     id="rect5338" />
  <path
     style="fill: rgb(83, 119, 122);"
     d="M 0 252 L 0 308 L 68 308 L 68 322 L 82 322 L 82 308 L 96 308 L 96 322 L 96 336 L 110 336 L 110 322 L 110 308 L 124 308 L 124 322 L 124 336 L 138 336 L 138 350 L 152 350 L 152 336 L 152 322 L 166 322 L 166 336 L 180 336 L 180 322 L 180 308 L 180 252 L 0 252 z M 110 350 L 110 364 L 124 364 L 124 350 L 110 350 z M 152 364 L 152 378 L 166 378 L 166 364 L 152 364 z M 166 378 L 166 392 L 180 392 L 180 378 L 166 378 z M 124 378 L 124 392 L 138 392 L 138 378 L 124 378 z M 152 406 L 152 420 L 166 420 L 166 406 L 152 406 z "
     id="rect5340" />
</svg>
