<svg
    width="200"
    height="200"
    xmlns:dc="http://purl.org/dc/elements/1.1/"
    xmlns:cc="http://creativecommons.org/ns#"
    xmlns:rdf="http://www.w3.org/1999/02/22-rdf-syntax-ns#"
    xmlns:svg="http://www.w3.org/2000/svg"
    xmlns="http://www.w3.org/2000/svg"
    xmlns:sodipodi="http://sodipodi.sourceforge.net/DTD/sodipodi-0.dtd"
    xmlns:inkscape="http://www.inkscape.org/namespaces/inkscape"
    viewBox="-100 25 380 380">
    <rect x="0" y="112" width="190" height="60" shape-rendering="crispEdges" style="fill: rgb(230, 0, 141);"></rect>
    <rect x="28" y="70" width="14" height="14" shape-rendering="crispEdges" style="fill: rgb(230, 0, 141);"></rect>
    <rect x="0" y="84" width="14" height="14" shape-rendering="crispEdges" style="fill: rgb(230, 0, 141);"></rect>
    <rect x="28" y="84" width="14" height="14" shape-rendering="crispEdges" style="fill: rgb(230, 0, 141);"></rect>
    <rect x="42" y="84" width="14" height="14" shape-rendering="crispEdges" style="fill: rgb(230, 0, 141);"></rect>
    <rect x="70" y="84" width="14" height="14" shape-rendering="crispEdges" style="fill: rgb(230, 0, 141);"></rect>
    <rect x="0" y="98" width="14" height="14" shape-rendering="crispEdges" style="fill: rgb(230, 0, 141);"></rect>
    <rect x="14" y="98" width="14" height="14" shape-rendering="crispEdges" style="fill: rgb(230, 0, 141);"></rect>
    <rect x="28" y="98" width="14" height="14" shape-rendering="crispEdges" style="fill: rgb(230, 0, 141);"></rect>
    <rect x="42" y="98" width="14" height="14" shape-rendering="crispEdges" style="fill: rgb(230, 0, 141);"></rect>
    <rect x="70" y="98" width="14" height="14" shape-rendering="crispEdges" style="fill: rgb(230, 0, 141);"></rect>
    <rect x="98" y="98" width="14" height="14" shape-rendering="crispEdges" style="fill: rgb(230, 0, 141);"></rect>
    <rect x="0" y="186" width="190" height="60" shape-rendering="crispEdges" style="fill: rgb(141, 32, 137);"></rect>
    <rect x="0" y="260" width="190" height="60" shape-rendering="crispEdges" style="fill: rgb(95, 38, 136);"></rect>
    <rect x="148" y="348" width="14" height="14" shape-rendering="crispEdges" style="fill: rgb(95, 38, 136);"></rect>
    <rect x="176" y="334" width="14" height="14" shape-rendering="crispEdges" style="fill: rgb(95, 38, 136);"></rect>
    <rect x="148" y="334" width="14" height="14" shape-rendering="crispEdges" style="fill: rgb(95, 38, 136);"></rect>
    <rect x="134" y="334" width="14" height="14" shape-rendering="crispEdges" style="fill: rgb(95, 38, 136);"></rect>
    <rect x="106" y="334" width="14" height="14" shape-rendering="crispEdges" style="fill: rgb(95, 38, 136);"></rect>
    <rect x="176" y="320" width="14" height="14" shape-rendering="crispEdges" style="fill: rgb(95, 38, 136);"></rect>
    <rect x="162" y="320" width="14" height="14" shape-rendering="crispEdges" style="fill: rgb(95, 38, 136);"></rect>
    <rect x="148" y="320" width="14" height="14" shape-rendering="crispEdges" style="fill: rgb(95, 38, 136);"></rect>
    <rect x="134" y="320" width="14" height="14" shape-rendering="crispEdges" style="fill: rgb(95, 38, 136);"></rect>
    <rect x="106" y="320" width="14" height="14" shape-rendering="crispEdges" style="fill: rgb(95, 38, 136);"></rect>
    <rect x="78" y="320" width="14" height="14" shape-rendering="crispEdges" style="fill: rgb(95, 38, 136);"></rect>
</svg>
