<svg xmlns="http://www.w3.org/2000/svg" id="RxDB_Logo_final" data-name="RxDB Logo final" viewBox="0 0 393.96 140"><defs><style>.cls-1{fill:#752a8a}.cls-2{fill:#fff}.cls-4{fill:#ed168f}</style></defs><path d="M98.33 10c-2.76 0-5-2.24-5-5s-2.24-5-5-5H75c-2.76 0-5 2.24-5 5v16.67c0 2.76-2.24 5-5 5H5c-2.76 0-5 2.24-5 5V125c0 2.76 2.24 5 5 5s5 2.24 5 5 2.24 5 5 5h13.33c2.76 0 5-2.24 5-5v-16.67c0-2.76 2.24-5 5-5h60c2.76 0 5-2.24 5-5V15c0-2.76-2.24-5-5-5" class="cls-2"/><path d="M6.67 60h90v20h-90z" style="fill:#b2218b" transform="rotate(180 51.665 70)"/><path d="M96.66 53.34h-90v-20h90z" class="cls-4"/><path d="M96.66 106.66h-90v-20h90zM26.67 113.33v20h-10v-10h-10v-10z" class="cls-1"/><path d="M86.67 6.67v10h10v10h-20v-20z" class="cls-4"/><path d="M143.33 106.67V33.33h29.31c4.98 0 9.57.79 13.78 2.36s7.59 4.06 10.15 7.47c2.56 3.4 3.84 7.85 3.84 13.34 0 5.86-1.46 10.48-4.39 13.89-2.93 3.4-6.62 5.84-11.09 7.3l18.88 28.98h-19.87l-16.69-26.9h-6.92v26.9h-17.02Zm17.02-41.61h12.19c1.98 0 3.71-.29 5.21-.88 1.5-.58 2.69-1.5 3.57-2.74s1.32-2.89 1.32-4.94-.44-3.68-1.32-4.89-2.07-2.1-3.57-2.69c-1.5-.58-3.24-.88-5.21-.88h-12.19zM206.02 106.67l20.64-28.54-18.88-25.91h19.76l8.78 12.19h.44l8.56-12.19h19.54l-18.77 25.91 20.53 28.54h-19.65l-10.43-14.82h-.44l-10.43 14.82zM271.22 106.67V33.33h21.52c5.2 0 10.04.6 14.55 1.81 4.5 1.21 8.45 3.22 11.86 6.04 3.4 2.82 6.06 6.59 7.96 11.31s2.85 10.56 2.85 17.51-.95 12.88-2.85 17.56-4.56 8.44-7.96 11.25c-3.4 2.82-7.36 4.83-11.86 6.04s-9.35 1.81-14.55 1.81h-21.52Zm17.02-15.15h4.06c2.63 0 5.16-.26 7.57-.77 2.42-.51 4.56-1.5 6.42-2.96 1.87-1.46 3.35-3.62 4.45-6.48q1.65-4.275 1.65-11.31c0-7.035-.55-8.47-1.65-11.36s-2.58-5.09-4.45-6.59-4.01-2.51-6.42-3.02c-2.42-.51-4.94-.77-7.57-.77h-4.06v43.25ZM335.56 106.67V33.33h29.75c5.49 0 10.15.68 14 2.03 3.84 1.36 6.79 3.42 8.84 6.2s3.07 6.37 3.07 10.76c0 2.42-.37 4.59-1.1 6.53q-1.095 2.91-3.18 5.1c-1.39 1.46-3.07 2.71-5.05 3.73 1.98.66 3.9 1.7 5.76 3.13 1.87 1.43 3.38 3.29 4.56 5.6 1.17 2.31 1.76 5.14 1.76 8.51q0 7.8-3.51 12.57c-2.34 3.18-5.6 5.51-9.77 6.97s-8.97 2.2-14.38 2.2h-30.74Zm17.01-44.9h12.95q3.84 0 6.15-1.92t2.31-5.1c0-3.18-.73-3.77-2.2-4.94-1.46-1.17-3.48-1.76-6.04-1.76h-13.17zm0 30.19h13.83c2.12 0 3.93-.29 5.43-.88 1.5-.58 2.63-1.48 3.4-2.69s1.15-2.65 1.15-4.34c0-2.49-.86-4.37-2.58-5.65q-2.58-1.92-7.41-1.92h-13.83v15.48Z" class="cls-2"/></svg>