<svg width="180" height="420" xmlns:dc="http://purl.org/dc/elements/1.1/" xmlns:cc="http://creativecommons.org/ns#" xmlns:rdf="http://www.w3.org/1999/02/22-rdf-syntax-ns#" xmlns:svg="http://www.w3.org/2000/svg" xmlns="http://www.w3.org/2000/svg" xmlns:sodipodi="http://sodipodi.sourceforge.net/DTD/sodipodi-0.dtd" xmlns:inkscape="http://www.inkscape.org/namespaces/inkscape" viewBox="0 0 180 420"><rect x="0" y="112" width="180" height="56" style="fill: rgb(183, 23, 140);"></rect><rect x="14" y="0" width="14" height="14" style="fill: rgb(183, 23, 140);"></rect><rect x="0" y="28" width="14" height="14" style="fill: rgb(183, 23, 140);"></rect><rect x="42" y="28" width="14" height="14" style="fill: rgb(183, 23, 140);"></rect><rect x="14" y="42" width="14" height="14" style="fill: rgb(183, 23, 140);"></rect><rect x="56" y="56" width="14" height="14" style="fill: rgb(183, 23, 140);"></rect><rect x="28" y="70" width="14" height="14" style="fill: rgb(183, 23, 140);"></rect><rect x="0" y="84" width="14" height="14" style="fill: rgb(183, 23, 140);"></rect><rect x="28" y="84" width="14" height="14" style="fill: rgb(183, 23, 140);"></rect><rect x="42" y="84" width="14" height="14" style="fill: rgb(183, 23, 140);"></rect><rect x="70" y="84" width="14" height="14" style="fill: rgb(183, 23, 140);"></rect><rect x="0" y="98" width="14" height="14" style="fill: rgb(183, 23, 140);"></rect><rect x="14" y="98" width="14" height="14" style="fill: rgb(183, 23, 140);"></rect><rect x="28" y="98" width="14" height="14" style="fill: rgb(183, 23, 140);"></rect><rect x="42" y="98" width="14" height="14" style="fill: rgb(183, 23, 140);"></rect><rect x="70" y="98" width="14" height="14" style="fill: rgb(183, 23, 140);"></rect><rect x="98" y="98" width="14" height="14" style="fill: rgb(183, 23, 140);"></rect><rect x="0" y="182" width="180" height="56" style="fill: rgb(84, 36, 55);"></rect><rect x="0" y="252" width="180" height="56" style="fill: rgb(83, 119, 122);"></rect><rect x="152" y="406" width="14" height="14" style="fill: rgb(83, 119, 122);"></rect><rect x="166" y="378" width="14" height="14" style="fill: rgb(83, 119, 122);"></rect><rect x="124" y="378" width="14" height="14" style="fill: rgb(83, 119, 122);"></rect><rect x="152" y="364" width="14" height="14" style="fill: rgb(83, 119, 122);"></rect><rect x="110" y="350" width="14" height="14" style="fill: rgb(83, 119, 122);"></rect><rect x="138" y="336" width="14" height="14" style="fill: rgb(83, 119, 122);"></rect><rect x="166" y="322" width="14" height="14" style="fill: rgb(83, 119, 122);"></rect><rect x="138" y="322" width="14" height="14" style="fill: rgb(83, 119, 122);"></rect><rect x="124" y="322" width="14" height="14" style="fill: rgb(83, 119, 122);"></rect><rect x="96" y="322" width="14" height="14" style="fill: rgb(83, 119, 122);"></rect><rect x="166" y="308" width="14" height="14" style="fill: rgb(83, 119, 122);"></rect><rect x="152" y="308" width="14" height="14" style="fill: rgb(83, 119, 122);"></rect><rect x="138" y="308" width="14" height="14" style="fill: rgb(83, 119, 122);"></rect><rect x="124" y="308" width="14" height="14" style="fill: rgb(83, 119, 122);"></rect><rect x="96" y="308" width="14" height="14" style="fill: rgb(83, 119, 122);"></rect><rect x="68" y="308" width="14" height="14" style="fill: rgb(83, 119, 122);"></rect></svg>
