<svg xmlns="http://www.w3.org/2000/svg" id="Atkinson_final_Java_Script_Database_Kopie" data-name="Atkinson final Java Script Database Kopie" viewBox="0 0 282.19 140"><defs><style>.cls-1{fill:#752a8a}.cls-3{fill:#b2218b}.cls-4{fill:#ed168f}</style></defs><path d="M103.33 15c0-2.76-2.24-5-5-5s-5-2.24-5-5-2.24-5-5-5H75c-2.76 0-5 2.24-5 5v16.67c0 2.76-2.24 5-5 5H5c-2.76 0-5 2.24-5 5V125c0 2.76 2.24 5 5 5s5 2.24 5 5 2.24 5 5 5h13.33c2.76 0 5-2.24 5-5v-16.67c0-2.76 2.24-5 5-5l197.87.37c2.83 0 4.69-.54 6.78-1.6a14.2 14.2 0 0 0 5.31-4.67c.72-1.05 1.21-2.3 1.55-3.5.27-.95.42-1.85.49-2.9.16-2.17-.04-4.22-.6-6.09-.41-1.38-1-2.65-1.74-3.8h.45c2.96 0 5.51-2.16 6.39-4.83h19.18c3.69 0 6.68-2.99 6.68-6.67V75.8c0-.88-.17-1.73-.48-2.5a6.67 6.67 0 0 0 1.98-4.74v-3.7c0-3.68-2.98-6.67-6.66-6.67a6.67 6.67 0 0 0-5.97-3.69h-4.92c-2.43 0-4.53 1.31-5.69 3.25H243.5a9.33 9.33 0 0 0-2.55-4.82c-1.79-1.79-4.18-2.78-6.73-2.78s-4.94.99-6.73 2.78c-1.33 1.33-2.2 3-2.56 4.82h-30.45c-.49-.59-1-1.15-1.6-1.63a14.3 14.3 0 0 0-4.98-2.67c-1.61-.49-3.26-.73-4.9-.73-1.04 0-2.06.1-3.05.27.77-1.64 1.17-3.49 1.17-5.54s-.4-3.76-1.2-5.33c-.01-.03-.03-.05-.04-.08.33-1.08.49-2.24.49-3.44 0-2.64-.72-4.95-2.13-6.88-1.37-1.85-3.23-3.2-5.55-4.02-1.78-.63-4.01-1.02-6.28-1.02H140.6c-3.15 0-5.79 2.19-6.49 5.13h-8.77c-1.45-1.84-3.31-3.21-5.57-4.06-1.89-.71-3.94-1.06-6.08-1.06h-10.34V15.02Z" style="fill:#fff"/><path d="M96.66 80h-90V60h90z" class="cls-3"/><path d="M96.66 53.34h-90v-20h90z" class="cls-4"/><path d="M96.66 106.66h-90v-20h90zM26.67 113.33v20h-10v-10h-10v-10z" class="cls-1"/><path d="M86.67 6.67v10h10v10h-20v-20z" class="cls-4"/><path d="M112.31 80c-1.55 0-2.87-.23-3.95-.7q-1.62-.705-2.64-1.92c-.68-.81-1.17-1.77-1.49-2.86l4.65-1.76c.18.62.41 1.17.7 1.67s.66.88 1.1 1.16q.675.42 1.68.42c.58 0 1.07-.07 1.49-.22s.76-.39 1.03-.73.47-.77.6-1.31.19-1.19.19-1.97V59.74h5.07v12.04c0 2.54-.7 4.55-2.09 6.02s-3.51 2.21-6.35 2.21ZM127.95 80c-1.47 0-2.69-.39-3.67-1.18-.97-.78-1.46-1.84-1.46-3.17q0-2.685 2.61-3.9c1.74-.81 4.21-1.3 7.41-1.46v-.42c0-.79-.22-1.37-.67-1.71-.45-.35-1.08-.52-1.89-.52q-.93 0-1.62.48c-.47.32-.78.73-.94 1.22l-4.05-1.43c.5-.97 1.33-1.8 2.5-2.47 1.17-.68 2.63-1.01 4.38-1.01 2.19 0 3.88.47 5.1 1.42 1.21.94 1.82 2.45 1.82 4.51v3.78c0 1.05.05 2.09.15 3.11q.15 1.53.39 2.4h-4.5l-.54-1.76c-.56.81-1.27 1.37-2.15 1.67-.87.3-1.83.45-2.86.45Zm1.82-3.19c.64 0 1.18-.1 1.64-.3s.81-.54 1.06-1.01c.25-.48.37-1.12.37-1.94v-.48c-1.63.1-2.87.31-3.73.64-.85.33-1.28.83-1.28 1.5 0 .46.18.83.55 1.13s.83.45 1.39.45ZM144.52 79.64l-5.27-14.78h5.07l2.98 9.8h.12l2.98-9.8h5.01l-5.3 14.78h-5.57ZM161.83 80c-1.47 0-2.69-.39-3.67-1.18-.97-.78-1.46-1.84-1.46-3.17q0-2.685 2.61-3.9c1.74-.81 4.21-1.3 7.41-1.46v-.42c0-.79-.22-1.37-.67-1.71-.45-.35-1.08-.52-1.89-.52q-.93 0-1.62.48c-.47.32-.78.73-.94 1.22l-4.05-1.43c.5-.97 1.33-1.8 2.5-2.47 1.17-.68 2.63-1.01 4.38-1.01 2.19 0 3.88.47 5.1 1.42 1.21.94 1.82 2.45 1.82 4.51v3.78c0 1.05.05 2.09.15 3.11q.15 1.53.39 2.4h-4.5l-.54-1.76c-.56.81-1.27 1.37-2.15 1.67-.87.3-1.83.45-2.86.45Zm1.82-3.19c.64 0 1.18-.1 1.64-.3s.81-.54 1.06-1.01c.25-.48.37-1.12.37-1.94v-.48c-1.63.1-2.87.31-3.73.64-.85.33-1.28.83-1.28 1.5 0 .46.18.83.55 1.13s.83.45 1.39.45ZM182.84 80c-1.37 0-2.61-.2-3.73-.61-1.11-.41-2.07-.99-2.86-1.76-.79-.76-1.4-1.67-1.82-2.73l4.62-1.67c.14.54.4 1.01.77 1.42.38.41.83.73 1.37.95.54.23 1.11.34 1.73.34.44 0 .87-.07 1.31-.21s.81-.36 1.12-.67.46-.69.46-1.15c0-.62-.27-1.09-.8-1.43-.54-.34-1.36-.61-2.47-.8l-1.55-.3c-1.25-.24-2.33-.61-3.25-1.1-.91-.5-1.61-1.14-2.1-1.94-.49-.79-.73-1.75-.73-2.86 0-1.25.38-2.33 1.13-3.25.75-.91 1.74-1.62 2.96-2.12s2.55-.74 3.98-.74c.99 0 1.98.15 2.96.45s1.87.77 2.67 1.43c.79.66 1.4 1.51 1.82 2.56l-4.56 1.67c-.16-.44-.4-.81-.73-1.12a3.4 3.4 0 0 0-1.13-.7c-.43-.16-.9-.24-1.42-.24s-.94.07-1.34.22-.71.36-.94.63-.34.59-.34.97c0 .44.17.81.52 1.12s.87.53 1.56.67l1.94.39c1.35.26 2.54.62 3.58 1.07 1.03.46 1.84 1.06 2.43 1.82s.88 1.74.88 2.95c0 1.37-.37 2.56-1.12 3.56-.74 1-1.73 1.78-2.95 2.34s-2.55.83-3.98.83ZM200.9 80c-1.79 0-3.28-.33-4.47-.98-1.19-.66-2.09-1.57-2.68-2.76-.6-1.18-.89-2.56-.89-4.13s.35-2.93 1.04-4.08c.7-1.15 1.64-2.05 2.85-2.68 1.2-.64 2.57-.95 4.1-.95s3.03.32 4.34.95c1.3.64 2.27 1.64 2.91 3.01l-4.05 1.49c-.22-.58-.57-1-1.04-1.28-.48-.28-1.06-.42-1.76-.42-.54 0-1.06.12-1.58.37s-.94.67-1.28 1.25q-.51.885-.51 2.37c0 1.485.17 1.85.51 2.44.34.6.77 1.02 1.3 1.27s1.05.37 1.56.37c.64 0 1.2-.11 1.7-.34s.87-.55 1.13-.97l3.93 1.43c-.44.79-1.02 1.46-1.74 2-.73.54-1.54.94-2.46 1.22-.91.28-1.88.42-2.89.42ZM210.82 79.64V64.86h3.9l.77 2.71c.87-1.17 1.89-1.99 3.04-2.46s2.32-.7 3.52-.7c.48 0 .95.03 1.42.09s.92.14 1.36.24v4.77c-.5-.2-1.07-.35-1.71-.46-.65-.11-1.3-.16-1.95-.16-1.17 0-2.16.2-2.96.61a4.08 4.08 0 0 0-1.83 1.82q-.63 1.2-.63 2.97v5.36h-4.92ZM227.21 79.64v-3.7h4.83v-7.39h-4.05v-3.7h8.97v11.09h4.83v3.7h-14.57Zm7-17.16c-.79 0-1.47-.27-2.01-.82-.55-.55-.82-1.22-.82-2.01s.27-1.46.82-2.01 1.22-.82 2.01-.82 1.46.27 2.01.82.82 1.22.82 2.01-.27 1.47-.82 2.01c-.55.55-1.22.82-2.01.82M243.54 84.47V64.86h4.35l.57 1.97c.34-.56.76-1.01 1.27-1.36a6 6 0 0 1 1.61-.79q.855-.27 1.56-.27c1.31 0 2.46.32 3.44.95.98.64 1.75 1.54 2.29 2.71.55 1.17.82 2.56.82 4.17s-.27 2.99-.82 4.16c-.55 1.16-1.31 2.05-2.29 2.67s-2.13.92-3.44.92q-.72 0-1.56-.27c-.57-.18-1.1-.45-1.61-.82s-.93-.82-1.27-1.36v6.91h-4.92Zm7.78-8.25c.81 0 1.53-.33 2.15-1s.92-1.65.92-2.97-.31-2.29-.92-3.01c-.62-.72-1.33-1.07-2.15-1.07s-1.53.29-2.16.88-.94 1.61-.94 3.08.31 2.52.94 3.14c.63.63 1.35.94 2.16.94ZM269.79 79.64c-1.27 0-2.28-.11-3.04-.33s-1.3-.63-1.62-1.24c-.33-.61-.49-1.5-.49-2.7v-6.82h-2.92v-3.7h2.92v-3.7h4.92v3.7h5.96v3.7h-5.96v5.6c0 .68.14 1.12.43 1.33s.8.31 1.53.31h2.5v3.84h-4.23Z" class="cls-3"/><path d="M105.71 53.33V33.42h7.96c1.35 0 2.6.21 3.74.64s2.06 1.1 2.76 2.03c.7.92 1.04 2.13 1.04 3.62 0 1.59-.4 2.85-1.19 3.77s-1.8 1.58-3.01 1.98l5.13 7.87h-5.39l-4.53-7.3h-1.88v7.3h-4.62Zm4.62-11.29h3.31c.54 0 1.01-.08 1.42-.24s.73-.41.97-.74c.24-.34.36-.78.36-1.34s-.12-1-.36-1.33-.56-.57-.97-.73-.88-.24-1.42-.24h-3.31zM122.73 53.33l5.6-7.75-5.13-7.03h5.36l2.38 3.31h.12l2.32-3.31h5.3l-5.1 7.03 5.57 7.75h-5.33l-2.83-4.02h-.12l-2.83 4.02h-5.33ZM140.58 53.33V33.42h5.84c1.41 0 2.73.16 3.95.49s2.29.87 3.22 1.64c.92.77 1.64 1.79 2.16 3.07s.77 2.87.77 4.75-.26 3.5-.77 4.77c-.52 1.27-1.24 2.29-2.16 3.05-.92.77-2 1.31-3.22 1.64s-2.54.49-3.95.49h-5.84Zm4.62-4.11h1.1c.71 0 1.4-.07 2.06-.21s1.24-.41 1.74-.8c.51-.4.91-.98 1.21-1.76.3-.77.45-1.8.45-3.07s-.15-2.3-.45-3.08-.7-1.38-1.21-1.79-1.09-.68-1.74-.82c-.66-.14-1.34-.21-2.06-.21h-1.1zM158.58 53.33V33.42h8.08c1.49 0 2.76.18 3.8.55q1.56.555 2.4 1.68c.56.76.83 1.73.83 2.92q0 .99-.3 1.77c-.2.53-.49.99-.86 1.39-.38.4-.83.74-1.37 1.01.54.18 1.06.46 1.56.85.51.39.92.89 1.24 1.52q.48.945.48 2.31c0 1.41-.32 2.55-.95 3.41s-1.52 1.5-2.65 1.89q-1.695.6-3.9.6h-8.34Zm4.62-12.18h3.52c.69 0 1.25-.17 1.67-.52s.63-.81.63-1.39-.2-1.02-.6-1.34-.94-.48-1.64-.48h-3.58zm0 8.19h3.75c.58 0 1.07-.08 1.48-.24s.72-.4.92-.73c.21-.33.31-.72.31-1.18 0-.68-.23-1.19-.7-1.53-.47-.35-1.14-.52-2.01-.52h-3.75z" class="cls-4"/><path d="M106.04 106.67V86.76h5.84c1.41 0 2.73.16 3.95.49s2.29.87 3.22 1.64c.92.77 1.64 1.79 2.16 3.07s.77 2.87.77 4.75-.26 3.5-.77 4.77c-.52 1.27-1.24 2.29-2.16 3.05-.92.77-2 1.31-3.22 1.64s-2.54.49-3.95.49h-5.84Zm4.62-4.12h1.1c.71 0 1.4-.07 2.06-.21s1.24-.41 1.74-.8c.51-.4.91-.98 1.21-1.76.3-.77.45-1.8.45-3.07s-.15-2.3-.45-3.08-.7-1.38-1.21-1.79-1.09-.68-1.74-.82c-.66-.14-1.34-.21-2.06-.21h-1.1zM128.33 107.02c-1.47 0-2.69-.39-3.67-1.18-.97-.78-1.46-1.84-1.46-3.17q0-2.685 2.61-3.9c1.74-.81 4.21-1.3 7.41-1.46v-.42c0-.79-.22-1.37-.67-1.71-.45-.35-1.08-.52-1.89-.52q-.93 0-1.62.48c-.47.32-.78.73-.94 1.22l-4.05-1.43c.5-.97 1.33-1.8 2.5-2.47 1.17-.68 2.63-1.01 4.38-1.01 2.19 0 3.88.47 5.1 1.42 1.21.94 1.82 2.45 1.82 4.51v3.78c0 1.05.05 2.09.15 3.11q.15 1.53.39 2.4h-4.5l-.54-1.76c-.56.81-1.27 1.37-2.15 1.67-.87.3-1.83.45-2.86.45Zm1.82-3.18c.64 0 1.18-.1 1.64-.3s.81-.54 1.06-1.01c.25-.48.37-1.12.37-1.94v-.48c-1.63.1-2.87.31-3.73.64-.85.33-1.28.83-1.28 1.5 0 .46.18.83.55 1.13s.83.45 1.39.45ZM148.92 106.67c-1.27 0-2.28-.11-3.04-.33s-1.3-.63-1.62-1.24c-.33-.61-.49-1.5-.49-2.7v-6.82h-2.92v-3.7h2.92v-3.7h4.92v3.7h5.96v3.7h-5.96v5.6c0 .68.14 1.12.43 1.33s.8.31 1.53.31h2.5v3.84h-4.23ZM162.36 107.02c-1.47 0-2.69-.39-3.67-1.18-.97-.78-1.46-1.84-1.46-3.17q0-2.685 2.61-3.9c1.74-.81 4.21-1.3 7.41-1.46v-.42c0-.79-.22-1.37-.67-1.71-.45-.35-1.08-.52-1.89-.52q-.93 0-1.62.48c-.47.32-.78.73-.94 1.22l-4.05-1.43c.5-.97 1.33-1.8 2.5-2.47 1.17-.68 2.63-1.01 4.38-1.01 2.19 0 3.88.47 5.1 1.42 1.21.94 1.82 2.45 1.82 4.51v3.78c0 1.05.05 2.09.15 3.11q.15 1.53.39 2.4h-4.5l-.54-1.76c-.56.81-1.27 1.37-2.15 1.67-.87.3-1.83.45-2.86.45Zm1.82-3.18c.64 0 1.18-.1 1.64-.3s.81-.54 1.06-1.01.37-1.12.37-1.94v-.48c-1.63.1-2.87.31-3.73.64s-1.28.83-1.28 1.5c0 .46.18.83.55 1.13s.83.45 1.39.45ZM184.65 107.02q-.72 0-1.56-.24c-.57-.16-1.1-.41-1.61-.74-.51-.34-.93-.78-1.27-1.34l-.54 1.97h-4.38v-21.1h4.92v8.28c.34-.56.76-1.01 1.27-1.36a6 6 0 0 1 1.61-.79q.855-.27 1.56-.27c1.31 0 2.46.31 3.44.92.98.62 1.75 1.5 2.29 2.64.55 1.14.82 2.52.82 4.13s-.27 3.01-.82 4.19-1.31 2.1-2.29 2.74c-.98.65-2.13.97-3.44.97m-1.58-3.78c.81 0 1.53-.36 2.15-1.09.62-.72.92-1.73.92-3.02s-.31-2.27-.92-2.94c-.62-.67-1.33-1-2.15-1s-1.53.31-2.16.92c-.63.62-.94 1.65-.94 3.1 0 .99.14 1.79.43 2.38.29.6.67 1.02 1.15 1.27s.98.37 1.52.37ZM198.24 107.02c-1.47 0-2.69-.39-3.67-1.18-.97-.78-1.46-1.84-1.46-3.17q0-2.685 2.61-3.9c1.74-.81 4.21-1.3 7.41-1.46v-.42c0-.79-.22-1.37-.67-1.71-.45-.35-1.08-.52-1.89-.52q-.93 0-1.62.48c-.47.32-.78.73-.94 1.22l-4.05-1.43c.5-.97 1.33-1.8 2.5-2.47 1.17-.68 2.63-1.01 4.38-1.01 2.19 0 3.88.47 5.1 1.42 1.21.94 1.82 2.45 1.82 4.51v3.78c0 1.05.05 2.09.15 3.11q.15 1.53.39 2.4h-4.5l-.54-1.76c-.56.81-1.27 1.37-2.15 1.67-.87.3-1.83.45-2.86.45Zm1.81-3.18c.64 0 1.18-.1 1.64-.3s.81-.54 1.06-1.01.37-1.12.37-1.94v-.48c-1.63.1-2.87.31-3.72.64s-1.28.83-1.28 1.5c0 .46.18.83.55 1.13s.83.45 1.39.45ZM218.35 107.02c-1.23 0-2.35-.15-3.37-.45-1.01-.3-1.88-.72-2.59-1.28a5.54 5.54 0 0 1-1.64-2.03l4.11-1.52c.18.58.6 1.02 1.25 1.33.66.31 1.42.46 2.29.46.66 0 1.25-.1 1.79-.3s.8-.52.8-.95c0-.22-.13-.43-.4-.63q-.405-.3-1.68-.51l-2.68-.48c-1.49-.26-2.68-.75-3.58-1.49-.89-.73-1.34-1.69-1.34-2.86 0-1.09.33-2 1-2.71.67-.72 1.53-1.26 2.59-1.62 1.06-.37 2.2-.55 3.41-.55 1.47 0 2.84.26 4.1.77 1.26.52 2.19 1.42 2.79 2.71l-4.11 1.52c-.2-.52-.54-.9-1.01-1.16-.48-.26-1.08-.39-1.82-.39-.81 0-1.4.11-1.76.33s-.54.5-.54.83c0 .26.11.47.34.63s.67.3 1.33.42l2.83.51c1.89.32 3.22.81 4.01 1.48.78.67 1.18 1.62 1.18 2.88 0 1.13-.33 2.08-.98 2.83-.66.76-1.53 1.32-2.64 1.68-1.1.37-2.33.55-3.68.55M236.2 107.02c-1.61 0-3.04-.31-4.28-.92-1.24-.62-2.22-1.51-2.92-2.68-.71-1.17-1.06-2.59-1.06-4.26 0-1.57.37-2.93 1.1-4.08a7.45 7.45 0 0 1 2.94-2.68c1.22-.64 2.56-.95 4.01-.95 1.23 0 2.34.22 3.32.66s1.82 1.06 2.5 1.86c.69.8 1.19 1.76 1.52 2.88.33 1.11.44 2.35.34 3.72H232.7c.12.46.28.85.49 1.19s.47.62.77.85c.31.23.65.4 1.03.51s.78.16 1.22.16c.64 0 1.18-.09 1.62-.28.45-.19.81-.44 1.09-.76l3.84 1.43a7.55 7.55 0 0 1-2.83 2.49c-1.15.59-2.4.88-3.75.88Zm-3.51-9.32h6.53q-.09-.93-.51-1.5a2.43 2.43 0 0 0-1.09-.86c-.45-.19-.94-.28-1.48-.28s-1.04.09-1.52.27-.88.46-1.22.85q-.51.585-.72 1.53Z" class="cls-1"/></svg>