<svg xmlns:dc="http://purl.org/dc/elements/1.1/" xmlns:cc="http://creativecommons.org/ns#" xmlns:rdf="http://www.w3.org/1999/02/22-rdf-syntax-ns#" xmlns:svg="http://www.w3.org/2000/svg" xmlns="http://www.w3.org/2000/svg" xmlns:sodipodi="http://sodipodi.sourceforge.net/DTD/sodipodi-0.dtd" xmlns:inkscape="http://www.inkscape.org/namespaces/inkscape" preserveAspectRatio="xMidYMin meet" viewBox="-13 27 216 318"><g style="stroke-width: 26px; stroke: rgb(255, 255, 255); stroke-linejoin: round;"><rect x="0" y="82" width="190" height="60" shape-rendering="geometricPrecision" style="fill: rgb(230, 0, 141);"></rect><rect x="28" y="40" width="14" height="14" shape-rendering="geometricPrecision" style="fill: rgb(230, 0, 141);"></rect><rect x="0" y="54" width="14" height="14" shape-rendering="geometricPrecision" style="fill: rgb(230, 0, 141);"></rect><rect x="28" y="54" width="14" height="14" shape-rendering="geometricPrecision" style="fill: rgb(230, 0, 141);"></rect><rect x="42" y="54" width="14" height="14" shape-rendering="geometricPrecision" style="fill: rgb(230, 0, 141);"></rect><rect x="70" y="54" width="14" height="14" shape-rendering="geometricPrecision" style="fill: rgb(230, 0, 141);"></rect><rect x="0" y="68" width="14" height="14" shape-rendering="geometricPrecision" style="fill: rgb(230, 0, 141);"></rect><rect x="14" y="68" width="14" height="14" shape-rendering="geometricPrecision" style="fill: rgb(230, 0, 141);"></rect><rect x="28" y="68" width="14" height="14" shape-rendering="geometricPrecision" style="fill: rgb(230, 0, 141);"></rect><rect x="42" y="68" width="14" height="14" shape-rendering="geometricPrecision" style="fill: rgb(230, 0, 141);"></rect><rect x="70" y="68" width="14" height="14" shape-rendering="geometricPrecision" style="fill: rgb(230, 0, 141);"></rect><rect x="98" y="68" width="14" height="14" shape-rendering="geometricPrecision" style="fill: rgb(230, 0, 141);"></rect><rect x="0" y="156" width="190" height="60" shape-rendering="geometricPrecision" style="fill: rgb(141, 32, 137);"></rect><rect x="0" y="230" width="190" height="60" shape-rendering="geometricPrecision" style="fill: rgb(95, 38, 136);"></rect><rect x="148" y="318" width="14" height="14" shape-rendering="geometricPrecision" style="fill: rgb(95, 38, 136);"></rect><rect x="176" y="304" width="14" height="14" shape-rendering="geometricPrecision" style="fill: rgb(95, 38, 136);"></rect><rect x="148" y="304" width="14" height="14" shape-rendering="geometricPrecision" style="fill: rgb(95, 38, 136);"></rect><rect x="134" y="304" width="14" height="14" shape-rendering="geometricPrecision" style="fill: rgb(95, 38, 136);"></rect><rect x="106" y="304" width="14" height="14" shape-rendering="geometricPrecision" style="fill: rgb(95, 38, 136);"></rect><rect x="176" y="290" width="14" height="14" shape-rendering="geometricPrecision" style="fill: rgb(95, 38, 136);"></rect><rect x="162" y="290" width="14" height="14" shape-rendering="geometricPrecision" style="fill: rgb(95, 38, 136);"></rect><rect x="148" y="290" width="14" height="14" shape-rendering="geometricPrecision" style="fill: rgb(95, 38, 136);"></rect><rect x="134" y="290" width="14" height="14" shape-rendering="geometricPrecision" style="fill: rgb(95, 38, 136);"></rect><rect x="106" y="290" width="14" height="14" shape-rendering="geometricPrecision" style="fill: rgb(95, 38, 136);"></rect><rect x="78" y="290" width="14" height="14" shape-rendering="geometricPrecision" style="fill: rgb(95, 38, 136);"></rect></g><g id="normal-group"><rect x="0" y="82" width="190" height="60" shape-rendering="crispEdges" style="fill: rgb(230, 0, 141);"></rect><rect x="28" y="40" width="14" height="14" shape-rendering="crispEdges" style="fill: rgb(230, 0, 141);"></rect><rect x="0" y="54" width="14" height="14" shape-rendering="crispEdges" style="fill: rgb(230, 0, 141);"></rect><rect x="28" y="54" width="14" height="14" shape-rendering="crispEdges" style="fill: rgb(230, 0, 141);"></rect><rect x="42" y="54" width="14" height="14" shape-rendering="crispEdges" style="fill: rgb(230, 0, 141);"></rect><rect x="70" y="54" width="14" height="14" shape-rendering="crispEdges" style="fill: rgb(230, 0, 141);"></rect><rect x="0" y="68" width="14" height="14" shape-rendering="crispEdges" style="fill: rgb(230, 0, 141);"></rect><rect x="14" y="68" width="14" height="14" shape-rendering="crispEdges" style="fill: rgb(230, 0, 141);"></rect><rect x="28" y="68" width="14" height="14" shape-rendering="crispEdges" style="fill: rgb(230, 0, 141);"></rect><rect x="42" y="68" width="14" height="14" shape-rendering="crispEdges" style="fill: rgb(230, 0, 141);"></rect><rect x="70" y="68" width="14" height="14" shape-rendering="crispEdges" style="fill: rgb(230, 0, 141);"></rect><rect x="98" y="68" width="14" height="14" shape-rendering="crispEdges" style="fill: rgb(230, 0, 141);"></rect><rect x="0" y="156" width="190" height="60" shape-rendering="crispEdges" style="fill: rgb(141, 32, 137);"></rect><rect x="0" y="230" width="190" height="60" shape-rendering="crispEdges" style="fill: rgb(95, 38, 136);"></rect><rect x="148" y="318" width="14" height="14" shape-rendering="crispEdges" style="fill: rgb(95, 38, 136);"></rect><rect x="176" y="304" width="14" height="14" shape-rendering="crispEdges" style="fill: rgb(95, 38, 136);"></rect><rect x="148" y="304" width="14" height="14" shape-rendering="crispEdges" style="fill: rgb(95, 38, 136);"></rect><rect x="134" y="304" width="14" height="14" shape-rendering="crispEdges" style="fill: rgb(95, 38, 136);"></rect><rect x="106" y="304" width="14" height="14" shape-rendering="crispEdges" style="fill: rgb(95, 38, 136);"></rect><rect x="176" y="290" width="14" height="14" shape-rendering="crispEdges" style="fill: rgb(95, 38, 136);"></rect><rect x="162" y="290" width="14" height="14" shape-rendering="crispEdges" style="fill: rgb(95, 38, 136);"></rect><rect x="148" y="290" width="14" height="14" shape-rendering="crispEdges" style="fill: rgb(95, 38, 136);"></rect><rect x="134" y="290" width="14" height="14" shape-rendering="crispEdges" style="fill: rgb(95, 38, 136);"></rect><rect x="106" y="290" width="14" height="14" shape-rendering="crispEdges" style="fill: rgb(95, 38, 136);"></rect><rect x="78" y="290" width="14" height="14" shape-rendering="crispEdges" style="fill: rgb(95, 38, 136);"></rect></g></svg>
