<?xml version="1.0" encoding="UTF-8"?>
<svg id="RxDB_Bildmarke_final" data-name="RxDB Bildmarke final" xmlns="http://www.w3.org/2000/svg" viewBox="0 0 103.33 140">
  <defs>
    <style>
      .cls-1 {
        fill: #752a8a;
      }

      .cls-2 {
        fill: #fff;
      }

      .cls-3 {
        fill: #b2218b;
      }

      .cls-4 {
        fill: #ed168f;
      }
    </style>
  </defs>
  <path class="cls-2" d="M98.33,10c-2.76,0-5-2.24-5-5s-2.24-5-5-5h-13.33c-2.76,0-5,2.24-5,5v16.67c0,2.76-2.24,5-5,5H5c-2.76,0-5,2.24-5,5v93.33c0,2.76,2.24,5,5,5s5,2.24,5,5,2.24,5,5,5h13.33c2.76,0,5-2.24,5-5v-16.67c0-2.76,2.24-5,5-5h60c2.76,0,5-2.24,5-5V15c0-2.76-2.24-5-5-5Z"/>
  <rect class="cls-3" x="6.67" y="60" width="90" height="20" transform="translate(103.33 140) rotate(180)"/>
  <rect class="cls-4" x="6.67" y="33.33" width="90" height="20" transform="translate(103.33 86.67) rotate(180)"/>
  <rect class="cls-1" x="6.67" y="86.67" width="90" height="20" transform="translate(103.33 193.33) rotate(180)"/>
  <polygon class="cls-1" points="26.67 113.33 26.67 133.33 16.67 133.33 16.67 123.33 6.67 123.33 6.67 113.33 26.67 113.33"/>
  <polygon class="cls-4" points="86.67 6.67 86.67 16.67 96.67 16.67 96.67 26.67 76.67 26.67 76.67 6.67 86.67 6.67"/>
</svg>