<?xml version="1.0" encoding="UTF-8"?>
<svg id="RxDB_Logo_final" data-name="RxDB Logo final" xmlns="http://www.w3.org/2000/svg" viewBox="0 0 393.96 140">
  <defs>
    <style>
      .cls-1 {
        fill: #752a8a;
      }

      .cls-2 {
        fill: #fff;
      }

      .cls-3 {
        fill: #b2218b;
      }

      .cls-4 {
        fill: #ed168f;
      }
    </style>
  </defs>
  <path class="cls-2" d="M98.33,10c-2.76,0-5-2.24-5-5s-2.24-5-5-5h-13.33c-2.76,0-5,2.24-5,5v16.67c0,2.76-2.24,5-5,5H5c-2.76,0-5,2.24-5,5v93.33c0,2.76,2.24,5,5,5s5,2.24,5,5,2.24,5,5,5h13.33c2.76,0,5-2.24,5-5v-16.67c0-2.76,2.24-5,5-5h60c2.76,0,5-2.24,5-5V15c0-2.76-2.24-5-5-5Z"/>
  <rect class="cls-3" x="6.67" y="60" width="90" height="20" transform="translate(103.33 140) rotate(180)"/>
  <rect class="cls-4" x="6.67" y="33.33" width="90" height="20" transform="translate(103.33 86.67) rotate(180)"/>
  <rect class="cls-1" x="6.67" y="86.67" width="90" height="20" transform="translate(103.33 193.33) rotate(180)"/>
  <polygon class="cls-1" points="26.67 113.33 26.67 133.33 16.67 133.33 16.67 123.33 6.67 123.33 6.67 113.33 26.67 113.33"/>
  <polygon class="cls-4" points="86.67 6.67 86.67 16.67 96.67 16.67 96.67 26.67 76.67 26.67 76.67 6.67 86.67 6.67"/>
  <path class="cls-2" d="M143.33,106.67V33.33h29.31c4.98,0,9.57.79,13.78,2.36,4.21,1.57,7.59,4.06,10.15,7.47,2.56,3.4,3.84,7.85,3.84,13.34,0,5.86-1.46,10.48-4.39,13.89-2.93,3.4-6.62,5.84-11.09,7.3l18.88,28.98h-19.87l-16.69-26.9h-6.92v26.9h-17.02ZM160.35,65.06h12.19c1.98,0,3.71-.29,5.21-.88,1.5-.58,2.69-1.5,3.57-2.74.88-1.24,1.32-2.89,1.32-4.94s-.44-3.68-1.32-4.89c-.88-1.21-2.07-2.1-3.57-2.69-1.5-.58-3.24-.88-5.21-.88h-12.19v17.02Z"/>
  <path class="cls-2" d="M206.02,106.67l20.64-28.54-18.88-25.91h19.76l8.78,12.19h.44l8.56-12.19h19.54l-18.77,25.91,20.53,28.54h-19.65l-10.43-14.82h-.44l-10.43,14.82h-19.65Z"/>
  <path class="cls-2" d="M271.22,106.67V33.33h21.52c5.2,0,10.04.6,14.55,1.81,4.5,1.21,8.45,3.22,11.86,6.04,3.4,2.82,6.06,6.59,7.96,11.31,1.9,4.72,2.85,10.56,2.85,17.51s-.95,12.88-2.85,17.56c-1.9,4.68-4.56,8.44-7.96,11.25-3.4,2.82-7.36,4.83-11.86,6.04-4.5,1.21-9.35,1.81-14.55,1.81h-21.52ZM288.24,91.52h4.06c2.63,0,5.16-.26,7.57-.77,2.42-.51,4.56-1.5,6.42-2.96,1.87-1.46,3.35-3.62,4.45-6.48,1.1-2.85,1.65-6.62,1.65-11.31s-.55-8.47-1.65-11.36c-1.1-2.89-2.58-5.09-4.45-6.59-1.87-1.5-4.01-2.51-6.42-3.02-2.42-.51-4.94-.77-7.57-.77h-4.06v43.25Z"/>
  <path class="cls-2" d="M335.56,106.67V33.33h29.75c5.49,0,10.15.68,14,2.03,3.84,1.36,6.79,3.42,8.84,6.2,2.05,2.78,3.07,6.37,3.07,10.76,0,2.42-.37,4.59-1.1,6.53-.73,1.94-1.79,3.64-3.18,5.1-1.39,1.46-3.07,2.71-5.05,3.73,1.98.66,3.9,1.7,5.76,3.13,1.87,1.43,3.38,3.29,4.56,5.6,1.17,2.31,1.76,5.14,1.76,8.51,0,5.2-1.17,9.39-3.51,12.57-2.34,3.18-5.6,5.51-9.77,6.97-4.17,1.46-8.97,2.2-14.38,2.2h-30.74ZM352.57,61.77h12.95c2.56,0,4.61-.64,6.15-1.92,1.54-1.28,2.31-2.98,2.31-5.1s-.73-3.77-2.2-4.94c-1.46-1.17-3.48-1.76-6.04-1.76h-13.17v13.72ZM352.57,91.96h13.83c2.12,0,3.93-.29,5.43-.88,1.5-.58,2.63-1.48,3.4-2.69.77-1.21,1.15-2.65,1.15-4.34,0-2.49-.86-4.37-2.58-5.65-1.72-1.28-4.19-1.92-7.41-1.92h-13.83v15.48Z"/>
</svg>