<svg xmlns="http://www.w3.org/2000/svg" id="RxDB_Logo_mit_Umrandung_final" data-name="RxDB Logo mit Umrandung final" viewBox="0 0 226.14 140"><defs><style>.cls-1{fill:#752a8a}.cls-4{fill:#ed168f}</style></defs><path d="M224.64 69.97c-.32-.63-.68-1.22-1.07-1.78.15-.31.28-.63.4-.96.61-1.62.92-3.39.92-5.26 0-3.4-.9-6.34-2.66-8.74-1.71-2.33-4.1-4.04-7.08-5.09-2.47-.87-5.25-1.29-8.52-1.29h-13.51c-2.46 0-4.6 1.37-5.7 3.38a20.9 20.9 0 0 0-5.45-2.34c-2.58-.69-5.37-1.04-8.29-1.04h-9.77a6.5 6.5 0 0 0-6.5 6.5v2.07h-21.22c-.3-.53-.62-1.04-.98-1.52-1.92-2.55-4.45-4.42-7.53-5.57-2.64-.98-5.51-1.48-8.53-1.48h-15.81V15c0-2.76-2.24-5-5-5s-5-2.24-5-5-2.24-5-5-5H75.01c-2.76 0-5 2.24-5 5v16.67c0 2.76-2.24 5-5 5H5c-2.76 0-5 2.24-5 5V125c0 2.76 2.24 5 5 5s5 2.24 5 5 2.24 5 5 5h13.33c2.76 0 5-2.24 5-5v-16.67c0-2.76 2.24-5 5-5h60c2.76 0 5-2.24 5-5V93.14h71.12v-.02c2.64-.06 5.17-.39 7.52-1.02 1.96-.53 3.77-1.32 5.45-2.34a6.48 6.48 0 0 0 5.7 3.38h13.96c3.19 0 6.11-.46 8.68-1.36 3.14-1.1 5.67-2.93 7.52-5.45 1.9-2.58 2.86-5.8 2.86-9.56 0-2.55-.5-4.84-1.5-6.81ZM26.67 133.33h-10v-10h-10v-10h20zm70-26.66h-90v-20h90zm0-26.67h-90V60h90zm0-26.67h-90v-20h90zm0-26.66h-20v-20h10v10h10z" style="fill:#fff"/><path d="M6.67 60h90v20h-90z" style="fill:#b2218b" transform="rotate(180 51.665 70)"/><path d="M96.66 53.34h-90v-20h90z" class="cls-4"/><path d="M96.66 106.66h-90v-20h90zM26.67 113.33v20h-10v-10h-10v-10z" class="cls-1"/><path d="M86.67 6.67v10h10v10h-20v-20z" class="cls-4"/><path d="M105.83 86.64v-33.3h13.31c2.26 0 4.34.36 6.26 1.07 1.91.72 3.45 1.84 4.61 3.39s1.74 3.56 1.74 6.06c0 2.66-.67 4.76-1.99 6.31-1.33 1.55-3.01 2.65-5.03 3.32l8.57 13.16h-9.02l-7.58-12.21h-3.14v12.21h-7.73Zm7.73-18.89h5.53c.9 0 1.69-.13 2.37-.4s1.22-.68 1.62-1.25c.4-.56.6-1.31.6-2.24s-.2-1.67-.6-2.22-.94-.95-1.62-1.22-1.47-.4-2.37-.4h-5.53zM134.3 86.64l9.37-12.96-8.57-11.76h8.97l3.99 5.53h.2l3.89-5.53h8.87l-8.52 11.76 9.32 12.96h-8.92l-4.74-6.73h-.2l-4.74 6.73zM163.91 86.64v-33.3h9.77c2.36 0 4.56.27 6.61.82s3.84 1.46 5.38 2.74c1.55 1.28 2.75 2.99 3.61 5.13s1.3 4.79 1.3 7.95-.43 5.85-1.3 7.98c-.86 2.13-2.07 3.83-3.61 5.11-1.55 1.28-3.34 2.19-5.38 2.74s-4.25.82-6.61.82h-9.77Zm7.72-6.88h1.84c1.2 0 2.34-.12 3.44-.35s2.07-.68 2.92-1.35c.85-.66 1.52-1.65 2.02-2.94q.75-1.95.75-5.13c0-3.18-.25-3.85-.75-5.16s-1.17-2.31-2.02-2.99a6.85 6.85 0 0 0-2.92-1.37c-1.1-.23-2.24-.35-3.44-.35h-1.84zM193.12 86.64v-33.3h13.51c2.49 0 4.61.31 6.36.92 1.74.62 3.08 1.55 4.01 2.82.93 1.26 1.4 2.89 1.4 4.89 0 1.1-.17 2.09-.5 2.97s-.81 1.65-1.45 2.32c-.63.67-1.4 1.23-2.29 1.69.9.3 1.77.77 2.62 1.42s1.54 1.5 2.07 2.54c.53 1.05.8 2.34.8 3.86 0 2.36-.53 4.26-1.6 5.71-1.06 1.45-2.54 2.5-4.44 3.17-1.89.67-4.07 1-6.53 1h-13.96Zm7.73-20.38h5.88q1.74 0 2.79-.87c.7-.58 1.05-1.35 1.05-2.32s-.33-1.71-1-2.24-1.58-.8-2.74-.8h-5.98zm0 13.7h6.28c.96 0 1.79-.13 2.47-.4s1.2-.67 1.55-1.22.52-1.2.52-1.97c0-1.13-.39-1.99-1.17-2.57q-1.17-.87-3.36-.87h-6.28v7.03Z" class="cls-1"/></svg>