<?xml version="1.0" encoding="UTF-8"?>
<svg id="Atkinson_final_Java_Script_Database_Kopie" data-name="Atkinson final Java Script Database Kopie" xmlns="http://www.w3.org/2000/svg" viewBox="0 0 282.19 140">
  <defs>
    <style>
      .cls-1 {
        fill: #752a8a;
      }

      .cls-2 {
        fill: #fff;
      }

      .cls-3 {
        fill: #b2218b;
      }

      .cls-4 {
        fill: #ed168f;
      }
    </style>
  </defs>
  <path class="cls-2" d="M103.33,15c0-2.76-2.24-5-5-5s-5-2.24-5-5-2.24-5-5-5h-13.33c-2.76,0-5,2.24-5,5v16.67c0,2.76-2.24,5-5,5H5c-2.76,0-5,2.24-5,5v93.33c0,2.76,2.24,5,5,5s5,2.24,5,5,2.24,5,5,5h13.33c2.76,0,5-2.24,5-5v-16.67c0-2.76,2.24-5,5-5l197.87.37c2.83,0,4.69-.54,6.78-1.6,2.15-1.1,3.94-2.67,5.31-4.67.72-1.05,1.21-2.3,1.55-3.5.27-.95.42-1.85.49-2.9.16-2.17-.04-4.22-.6-6.09-.41-1.38-1-2.65-1.74-3.8h.45c2.96,0,5.51-2.16,6.39-4.83h19.18c3.69,0,6.68-2.99,6.68-6.67v-3.84c0-.88-.17-1.73-.48-2.5,1.22-1.21,1.98-2.89,1.98-4.74v-3.7c0-3.68-2.98-6.67-6.66-6.67-1.09-2.19-3.36-3.69-5.97-3.69h-4.92c-2.43,0-4.53,1.31-5.69,3.25h-15.45c-.36-1.82-1.22-3.49-2.55-4.82-1.79-1.79-4.18-2.78-6.73-2.78s-4.94.99-6.73,2.78c-1.33,1.33-2.2,3-2.56,4.82h-30.45c-.49-.59-1-1.15-1.6-1.63-1.47-1.22-3.15-2.11-4.98-2.67-1.61-.49-3.26-.73-4.9-.73-1.04,0-2.06.1-3.05.27.77-1.64,1.17-3.49,1.17-5.54s-.4-3.76-1.2-5.33c-.01-.03-.03-.05-.04-.08.33-1.08.49-2.24.49-3.44,0-2.64-.72-4.95-2.13-6.88-1.37-1.85-3.23-3.2-5.55-4.02-1.78-.63-4.01-1.02-6.28-1.02h-25.81c-3.15,0-5.79,2.19-6.49,5.13h-8.77c-1.45-1.84-3.31-3.21-5.57-4.06-1.89-.71-3.94-1.06-6.08-1.06h-10.34v-11.67Z"/>
  <g>
    <rect class="cls-3" x="6.67" y="60" width="90" height="20" transform="translate(103.33 140) rotate(180)"/>
    <rect class="cls-4" x="6.67" y="33.33" width="90" height="20" transform="translate(103.33 86.67) rotate(180)"/>
    <rect class="cls-1" x="6.67" y="86.67" width="90" height="20" transform="translate(103.33 193.33) rotate(180)"/>
    <polygon class="cls-1" points="26.67 113.33 26.67 133.33 16.67 133.33 16.67 123.33 6.67 123.33 6.67 113.33 26.67 113.33"/>
    <polygon class="cls-4" points="86.67 6.67 86.67 16.67 96.67 16.67 96.67 26.67 76.67 26.67 76.67 6.67 86.67 6.67"/>
  </g>
  <g>
    <path class="cls-3" d="M112.31,80c-1.55,0-2.87-.23-3.95-.7-1.08-.47-1.96-1.11-2.64-1.92-.68-.81-1.17-1.77-1.49-2.86l4.65-1.76c.18.62.41,1.17.7,1.67.29.5.66.88,1.1,1.16.45.28,1.01.42,1.68.42.58,0,1.07-.07,1.49-.22.42-.15.76-.39,1.03-.73.27-.34.47-.77.6-1.31.13-.54.19-1.19.19-1.97v-12.04h5.07v12.04c0,2.54-.7,4.55-2.09,6.02-1.39,1.47-3.51,2.21-6.35,2.21Z"/>
    <path class="cls-3" d="M127.95,80c-1.47,0-2.69-.39-3.67-1.18-.97-.78-1.46-1.84-1.46-3.17,0-1.79.87-3.09,2.61-3.9,1.74-.81,4.21-1.3,7.41-1.46v-.42c0-.79-.22-1.37-.67-1.71-.45-.35-1.08-.52-1.89-.52-.62,0-1.16.16-1.62.48-.47.32-.78.73-.94,1.22l-4.05-1.43c.5-.97,1.33-1.8,2.5-2.47,1.17-.68,2.63-1.01,4.38-1.01,2.19,0,3.88.47,5.1,1.42,1.21.94,1.82,2.45,1.82,4.51v3.78c0,1.05.05,2.09.15,3.11.1,1.02.23,1.82.39,2.4h-4.5l-.54-1.76c-.56.81-1.27,1.37-2.15,1.67-.87.3-1.83.45-2.86.45ZM129.77,76.81c.64,0,1.18-.1,1.64-.3.46-.2.81-.54,1.06-1.01.25-.48.37-1.12.37-1.94v-.48c-1.63.1-2.87.31-3.73.64-.85.33-1.28.83-1.28,1.5,0,.46.18.83.55,1.13.37.3.83.45,1.39.45Z"/>
    <path class="cls-3" d="M144.52,79.64l-5.27-14.78h5.07l2.98,9.8h.12l2.98-9.8h5.01l-5.3,14.78h-5.57Z"/>
    <path class="cls-3" d="M161.83,80c-1.47,0-2.69-.39-3.67-1.18-.97-.78-1.46-1.84-1.46-3.17,0-1.79.87-3.09,2.61-3.9,1.74-.81,4.21-1.3,7.41-1.46v-.42c0-.79-.22-1.37-.67-1.71-.45-.35-1.08-.52-1.89-.52-.62,0-1.16.16-1.62.48-.47.32-.78.73-.94,1.22l-4.05-1.43c.5-.97,1.33-1.8,2.5-2.47,1.17-.68,2.63-1.01,4.38-1.01,2.19,0,3.88.47,5.1,1.42,1.21.94,1.82,2.45,1.82,4.51v3.78c0,1.05.05,2.09.15,3.11.1,1.02.23,1.82.39,2.4h-4.5l-.54-1.76c-.56.81-1.27,1.37-2.15,1.67-.87.3-1.83.45-2.86.45ZM163.65,76.81c.64,0,1.18-.1,1.64-.3.46-.2.81-.54,1.06-1.01.25-.48.37-1.12.37-1.94v-.48c-1.63.1-2.87.31-3.73.64-.85.33-1.28.83-1.28,1.5,0,.46.18.83.55,1.13.37.3.83.45,1.39.45Z"/>
    <path class="cls-3" d="M182.84,80c-1.37,0-2.61-.2-3.73-.61-1.11-.41-2.07-.99-2.86-1.76-.79-.76-1.4-1.67-1.82-2.73l4.62-1.67c.14.54.4,1.01.77,1.42.38.41.83.73,1.37.95.54.23,1.11.34,1.73.34.44,0,.87-.07,1.31-.21.44-.14.81-.36,1.12-.67.31-.31.46-.69.46-1.15,0-.62-.27-1.09-.8-1.43-.54-.34-1.36-.61-2.47-.8l-1.55-.3c-1.25-.24-2.33-.61-3.25-1.1-.91-.5-1.61-1.14-2.1-1.94-.49-.79-.73-1.75-.73-2.86,0-1.25.38-2.33,1.13-3.25.75-.91,1.74-1.62,2.96-2.12,1.22-.5,2.55-.74,3.98-.74.99,0,1.98.15,2.96.45s1.87.77,2.67,1.43c.79.66,1.4,1.51,1.82,2.56l-4.56,1.67c-.16-.44-.4-.81-.73-1.12-.33-.31-.71-.54-1.13-.7-.43-.16-.9-.24-1.42-.24s-.94.07-1.34.22c-.4.15-.71.36-.94.63-.23.27-.34.59-.34.97,0,.44.17.81.52,1.12.35.31.87.53,1.56.67l1.94.39c1.35.26,2.54.62,3.58,1.07,1.03.46,1.84,1.06,2.43,1.82.59.76.88,1.74.88,2.95,0,1.37-.37,2.56-1.12,3.56-.74,1-1.73,1.78-2.95,2.34-1.22.56-2.55.83-3.98.83Z"/>
    <path class="cls-3" d="M200.9,80c-1.79,0-3.28-.33-4.47-.98-1.19-.66-2.09-1.57-2.68-2.76-.6-1.18-.89-2.56-.89-4.13s.35-2.93,1.04-4.08c.7-1.15,1.64-2.05,2.85-2.68,1.2-.64,2.57-.95,4.1-.95s3.03.32,4.34.95c1.3.64,2.27,1.64,2.91,3.01l-4.05,1.49c-.22-.58-.57-1-1.04-1.28-.48-.28-1.06-.42-1.76-.42-.54,0-1.06.12-1.58.37-.52.25-.94.67-1.28,1.25-.34.59-.51,1.38-.51,2.37s.17,1.85.51,2.44c.34.6.77,1.02,1.3,1.27.53.25,1.05.37,1.56.37.64,0,1.2-.11,1.7-.34.5-.23.87-.55,1.13-.97l3.93,1.43c-.44.79-1.02,1.46-1.74,2-.73.54-1.54.94-2.46,1.22-.91.28-1.88.42-2.89.42Z"/>
    <path class="cls-3" d="M210.82,79.64v-14.78h3.9l.77,2.71c.87-1.17,1.89-1.99,3.04-2.46,1.15-.47,2.32-.7,3.52-.7.48,0,.95.03,1.42.09s.92.14,1.36.24v4.77c-.5-.2-1.07-.35-1.71-.46-.65-.11-1.3-.16-1.95-.16-1.17,0-2.16.2-2.96.61-.8.41-1.42,1.01-1.83,1.82-.42.8-.63,1.79-.63,2.97v5.36h-4.92Z"/>
    <path class="cls-3" d="M227.21,79.64v-3.7h4.83v-7.39h-4.05v-3.7h8.97v11.09h4.83v3.7h-14.57ZM234.21,62.48c-.79,0-1.47-.27-2.01-.82-.55-.55-.82-1.22-.82-2.01s.27-1.46.82-2.01c.55-.55,1.22-.82,2.01-.82s1.46.27,2.01.82c.55.55.82,1.22.82,2.01s-.27,1.47-.82,2.01c-.55.55-1.22.82-2.01.82Z"/>
    <path class="cls-3" d="M243.54,84.47v-19.61h4.35l.57,1.97c.34-.56.76-1.01,1.27-1.36.51-.35,1.04-.61,1.61-.79.57-.18,1.09-.27,1.56-.27,1.31,0,2.46.32,3.44.95.98.64,1.75,1.54,2.29,2.71.55,1.17.82,2.56.82,4.17s-.27,2.99-.82,4.16c-.55,1.16-1.31,2.05-2.29,2.67-.98.62-2.13.92-3.44.92-.48,0-1-.09-1.56-.27-.57-.18-1.1-.45-1.61-.82-.51-.37-.93-.82-1.27-1.36v6.91h-4.92ZM251.32,76.22c.81,0,1.53-.33,2.15-1,.62-.67.92-1.65.92-2.97s-.31-2.29-.92-3.01c-.62-.72-1.33-1.07-2.15-1.07s-1.53.29-2.16.88c-.63.59-.94,1.61-.94,3.08s.31,2.52.94,3.14c.63.63,1.35.94,2.16.94Z"/>
    <path class="cls-3" d="M269.79,79.64c-1.27,0-2.28-.11-3.04-.33-.76-.22-1.3-.63-1.62-1.24-.33-.61-.49-1.5-.49-2.7v-6.82h-2.92v-3.7h2.92v-3.7h4.92v3.7h5.96v3.7h-5.96v5.6c0,.68.14,1.12.43,1.33.29.21.8.31,1.53.31h2.5v3.84h-4.23Z"/>
  </g>
  <g>
    <path class="cls-4" d="M105.71,53.33v-19.91h7.96c1.35,0,2.6.21,3.74.64,1.14.43,2.06,1.1,2.76,2.03.7.92,1.04,2.13,1.04,3.62,0,1.59-.4,2.85-1.19,3.77-.79.92-1.8,1.58-3.01,1.98l5.13,7.87h-5.39l-4.53-7.3h-1.88v7.3h-4.62ZM110.33,42.04h3.31c.54,0,1.01-.08,1.42-.24.41-.16.73-.41.97-.74.24-.34.36-.78.36-1.34s-.12-1-.36-1.33-.56-.57-.97-.73c-.41-.16-.88-.24-1.42-.24h-3.31v4.62Z"/>
    <path class="cls-4" d="M122.73,53.33l5.6-7.75-5.13-7.03h5.36l2.38,3.31h.12l2.32-3.31h5.3l-5.1,7.03,5.57,7.75h-5.33l-2.83-4.02h-.12l-2.83,4.02h-5.33Z"/>
    <path class="cls-4" d="M140.58,53.33v-19.91h5.84c1.41,0,2.73.16,3.95.49,1.22.33,2.29.87,3.22,1.64.92.77,1.64,1.79,2.16,3.07s.77,2.87.77,4.75-.26,3.5-.77,4.77c-.52,1.27-1.24,2.29-2.16,3.05-.92.77-2,1.31-3.22,1.64-1.22.33-2.54.49-3.95.49h-5.84ZM145.2,49.22h1.1c.71,0,1.4-.07,2.06-.21.66-.14,1.24-.41,1.74-.8.51-.4.91-.98,1.21-1.76.3-.77.45-1.8.45-3.07s-.15-2.3-.45-3.08c-.3-.78-.7-1.38-1.21-1.79-.51-.41-1.09-.68-1.74-.82-.66-.14-1.34-.21-2.06-.21h-1.1v11.74Z"/>
    <path class="cls-4" d="M158.58,53.33v-19.91h8.08c1.49,0,2.76.18,3.8.55,1.04.37,1.84.93,2.4,1.68.56.76.83,1.73.83,2.92,0,.66-.1,1.25-.3,1.77-.2.53-.49.99-.86,1.39-.38.4-.83.74-1.37,1.01.54.18,1.06.46,1.56.85.51.39.92.89,1.24,1.52.32.63.48,1.4.48,2.31,0,1.41-.32,2.55-.95,3.41s-1.52,1.5-2.65,1.89c-1.13.4-2.43.6-3.9.6h-8.34ZM163.2,41.15h3.52c.69,0,1.25-.17,1.67-.52.42-.35.63-.81.63-1.39s-.2-1.02-.6-1.34c-.4-.32-.94-.48-1.64-.48h-3.58v3.73ZM163.2,49.34h3.75c.58,0,1.07-.08,1.48-.24.41-.16.72-.4.92-.73.21-.33.31-.72.31-1.18,0-.68-.23-1.19-.7-1.53-.47-.35-1.14-.52-2.01-.52h-3.75v4.2Z"/>
  </g>
  <g>
    <path class="cls-1" d="M106.04,106.67v-19.91h5.84c1.41,0,2.73.16,3.95.49,1.22.33,2.29.87,3.22,1.64.92.77,1.64,1.79,2.16,3.07s.77,2.87.77,4.75-.26,3.5-.77,4.77c-.52,1.27-1.24,2.29-2.16,3.05-.92.77-2,1.31-3.22,1.64-1.22.33-2.54.49-3.95.49h-5.84ZM110.66,102.55h1.1c.71,0,1.4-.07,2.06-.21.66-.14,1.24-.41,1.74-.8.51-.4.91-.98,1.21-1.76.3-.77.45-1.8.45-3.07s-.15-2.3-.45-3.08c-.3-.78-.7-1.38-1.21-1.79-.51-.41-1.09-.68-1.74-.82-.66-.14-1.34-.21-2.06-.21h-1.1v11.74Z"/>
    <path class="cls-1" d="M128.33,107.02c-1.47,0-2.69-.39-3.67-1.18-.97-.78-1.46-1.84-1.46-3.17,0-1.79.87-3.09,2.61-3.9,1.74-.81,4.21-1.3,7.41-1.46v-.42c0-.79-.22-1.37-.67-1.71-.45-.35-1.08-.52-1.89-.52-.62,0-1.16.16-1.62.48-.47.32-.78.73-.94,1.22l-4.05-1.43c.5-.97,1.33-1.8,2.5-2.47,1.17-.68,2.63-1.01,4.38-1.01,2.19,0,3.88.47,5.1,1.42,1.21.94,1.82,2.45,1.82,4.51v3.78c0,1.05.05,2.09.15,3.11.1,1.02.23,1.82.39,2.4h-4.5l-.54-1.76c-.56.81-1.27,1.37-2.15,1.67-.87.3-1.83.45-2.86.45ZM130.15,103.84c.64,0,1.18-.1,1.64-.3.46-.2.81-.54,1.06-1.01.25-.48.37-1.12.37-1.94v-.48c-1.63.1-2.87.31-3.73.64-.85.33-1.28.83-1.28,1.5,0,.46.18.83.55,1.13.37.3.83.45,1.39.45Z"/>
    <path class="cls-1" d="M148.92,106.67c-1.27,0-2.28-.11-3.04-.33-.76-.22-1.3-.63-1.62-1.24-.33-.61-.49-1.5-.49-2.7v-6.82h-2.92v-3.7h2.92v-3.7h4.92v3.7h5.96v3.7h-5.96v5.6c0,.68.14,1.12.43,1.33.29.21.8.31,1.53.31h2.5v3.84h-4.23Z"/>
    <path class="cls-1" d="M162.36,107.02c-1.47,0-2.69-.39-3.67-1.18-.97-.78-1.46-1.84-1.46-3.17,0-1.79.87-3.09,2.61-3.9,1.74-.81,4.21-1.3,7.41-1.46v-.42c0-.79-.22-1.37-.67-1.71-.45-.35-1.08-.52-1.89-.52-.62,0-1.16.16-1.62.48-.47.32-.78.73-.94,1.22l-4.05-1.43c.5-.97,1.33-1.8,2.5-2.47,1.17-.68,2.63-1.01,4.38-1.01,2.19,0,3.88.47,5.1,1.42,1.21.94,1.82,2.45,1.82,4.51v3.78c0,1.05.05,2.09.15,3.11.1,1.02.23,1.82.39,2.4h-4.5l-.54-1.76c-.56.81-1.27,1.37-2.15,1.67-.87.3-1.83.45-2.86.45ZM164.18,103.84c.64,0,1.18-.1,1.64-.3.46-.2.81-.54,1.06-1.01s.37-1.12.37-1.94v-.48c-1.63.1-2.87.31-3.73.64s-1.28.83-1.28,1.5c0,.46.18.83.55,1.13.37.3.83.45,1.39.45Z"/>
    <path class="cls-1" d="M184.65,107.02c-.48,0-1-.08-1.56-.24-.57-.16-1.1-.41-1.61-.74-.51-.34-.93-.78-1.27-1.34l-.54,1.97h-4.38v-21.1h4.92v8.28c.34-.56.76-1.01,1.27-1.36.51-.35,1.04-.61,1.61-.79.57-.18,1.09-.27,1.56-.27,1.31,0,2.46.31,3.44.92.98.62,1.75,1.5,2.29,2.64.55,1.14.82,2.52.82,4.13s-.27,3.01-.82,4.19c-.55,1.18-1.31,2.1-2.29,2.74-.98.65-2.13.97-3.44.97ZM183.07,103.24c.81,0,1.53-.36,2.15-1.09.62-.72.92-1.73.92-3.02s-.31-2.27-.92-2.94c-.62-.67-1.33-1-2.15-1s-1.53.31-2.16.92c-.63.62-.94,1.65-.94,3.1,0,.99.14,1.79.43,2.38.29.6.67,1.02,1.15,1.27.48.25.98.37,1.52.37Z"/>
    <path class="cls-1" d="M198.24,107.02c-1.47,0-2.69-.39-3.67-1.18-.97-.78-1.46-1.84-1.46-3.17,0-1.79.87-3.09,2.61-3.9,1.74-.81,4.21-1.3,7.41-1.46v-.42c0-.79-.22-1.37-.67-1.71-.45-.35-1.08-.52-1.89-.52-.62,0-1.16.16-1.62.48-.47.32-.78.73-.94,1.22l-4.05-1.43c.5-.97,1.33-1.8,2.5-2.47,1.17-.68,2.63-1.01,4.38-1.01,2.19,0,3.88.47,5.1,1.42,1.21.94,1.82,2.45,1.82,4.51v3.78c0,1.05.05,2.09.15,3.11.1,1.02.23,1.82.39,2.4h-4.5l-.54-1.76c-.56.81-1.27,1.37-2.15,1.67-.87.3-1.83.45-2.86.45ZM200.05,103.84c.64,0,1.18-.1,1.64-.3.46-.2.81-.54,1.06-1.01s.37-1.12.37-1.94v-.48c-1.63.1-2.87.31-3.72.64-.85.33-1.28.83-1.28,1.5,0,.46.18.83.55,1.13s.83.45,1.39.45Z"/>
    <path class="cls-1" d="M218.35,107.02c-1.23,0-2.35-.15-3.37-.45-1.01-.3-1.88-.72-2.59-1.28-.72-.56-1.26-1.23-1.64-2.03l4.11-1.52c.18.58.6,1.02,1.25,1.33.66.31,1.42.46,2.29.46.66,0,1.25-.1,1.79-.3.54-.2.8-.52.8-.95,0-.22-.13-.43-.4-.63-.27-.2-.83-.37-1.68-.51l-2.68-.48c-1.49-.26-2.68-.75-3.58-1.49-.89-.73-1.34-1.69-1.34-2.86,0-1.09.33-2,1-2.71.67-.72,1.53-1.26,2.59-1.62,1.06-.37,2.2-.55,3.41-.55,1.47,0,2.84.26,4.1.77,1.26.52,2.19,1.42,2.79,2.71l-4.11,1.52c-.2-.52-.54-.9-1.01-1.16-.48-.26-1.08-.39-1.82-.39-.81,0-1.4.11-1.76.33-.36.22-.54.5-.54.83,0,.26.11.47.34.63.23.16.67.3,1.33.42l2.83.51c1.89.32,3.22.81,4.01,1.48.78.67,1.18,1.62,1.18,2.88,0,1.13-.33,2.08-.98,2.83-.66.76-1.53,1.32-2.64,1.68-1.1.37-2.33.55-3.68.55Z"/>
    <path class="cls-1" d="M236.2,107.02c-1.61,0-3.04-.31-4.28-.92-1.24-.62-2.22-1.51-2.92-2.68-.71-1.17-1.06-2.59-1.06-4.26,0-1.57.37-2.93,1.1-4.08.73-1.15,1.71-2.05,2.94-2.68,1.22-.64,2.56-.95,4.01-.95,1.23,0,2.34.22,3.32.66.98.44,1.82,1.06,2.5,1.86.69.8,1.19,1.76,1.52,2.88.33,1.11.44,2.35.34,3.72h-10.97c.12.46.28.85.49,1.19.21.34.47.62.77.85.31.23.65.4,1.03.51.38.11.78.16,1.22.16.64,0,1.18-.09,1.62-.28.45-.19.81-.44,1.09-.76l3.84,1.43c-.73,1.07-1.68,1.9-2.83,2.49-1.15.59-2.4.88-3.75.88ZM232.69,97.7h6.53c-.06-.62-.23-1.12-.51-1.5-.28-.39-.64-.68-1.09-.86-.45-.19-.94-.28-1.48-.28s-1.04.09-1.52.27c-.48.18-.88.46-1.22.85-.34.39-.58.9-.72,1.53Z"/>
  </g>
</svg>