<svg width="2500" height="605" viewBox="0 0 512 124" xmlns="http://www.w3.org/2000/svg" preserveAspectRatio="xMinYMin meet"><g fill-rule="evenodd"><g fill="#DF4F4F"><path d="M303.758.215l107.286 113.642s3.656 2.578 6.45-.43c2.796-3.007.646-6.014.646-6.014L303.758.215zM337.728 10.956l81.702 88.078s3.655 2.578 6.45-.43c2.795-3.007.645-6.014.645-6.014l-88.797-81.634zM313.863 33.942l81.701 88.079s3.655 2.578 6.45-.43c2.795-3.008.645-6.015.645-6.015l-88.796-81.634zM366.446 20.194l57.08 61.535s2.553 1.8 4.506-.3c1.953-2.102.45-4.203.45-4.203l-62.036-57.032zM321.725 60.58l57.08 61.536s2.554 1.8 4.506-.3c1.953-2.102.451-4.203.451-4.203l-62.037-57.032zM395.78 33.513l25.87 27.974s1.263.844 2.229-.14c.966-.985.223-1.97.223-1.97l-28.323-25.864zM336.008 88.938l25.87 27.974s1.264.844 2.23-.14c.966-.985.223-1.97.223-1.97l-28.323-25.864z"/></g><g fill="#26262C"><path d="M446.171 46.23v75.433h17.067V97.331h12.8l16.457 24.332H512l-18.286-26.157s16.238-6.418 16.238-23.826c0-24.576-22.333-25.448-22.333-25.448l-41.448-.002zm17.067 14.602v21.9h21.943s8.387-.002 8.387-10.952c0-11.365-10.216-10.948-10.216-10.948h-20.114zM257.219 46.232v75.431h57.295v-14.6h-40.228V91.249h34.743v-14.6h-34.743V60.82h40.228V46.232H257.22zM174.324 46.232v14.6h22.552v60.831h17.067V60.832h22.552v-14.6h-62.171zM96.305 46.232v75.431H153.6v-14.6h-40.229V91.249h34.743v-14.6h-34.743V60.82H153.6V46.232H96.305zM0 46.23v75.435l17.055-.001V74.213l20.724 30.416 20.735-30.416v47.452h17.067V46.23H58.514L37.78 77.254 17.055 46.23H0z"/></g></g></svg>