<svg xmlns="http://www.w3.org/2000/svg" preserveAspectRatio="xMidYMid" viewBox="-48 0 351 351"><defs><filter id="b" width="200%" height="200%" x="-50%" y="-50%" filterUnits="objectBoundingBox"><feGaussianBlur in="SourceAlpha" result="shadowBlurInner1" stdDeviation="17.5"/><feOffset in="shadowBlurInner1" result="shadowOffsetInner1"/><feComposite in="shadowOffsetInner1" in2="SourceAlpha" k2="-1" k3="1" operator="arithmetic" result="shadowInnerInner1"/><feColorMatrix in="shadowInnerInner1" values="0 0 0 0 0 0 0 0 0 0 0 0 0 0 0 0 0 0 0.06 0"/></filter><filter id="d" width="200%" height="200%" x="-50%" y="-50%" filterUnits="objectBoundingBox"><feGaussianBlur in="SourceAlpha" result="shadowBlurInner1" stdDeviation="3.5"/><feOffset dx="1" dy="-9" in="shadowBlurInner1" result="shadowOffsetInner1"/><feComposite in="shadowOffsetInner1" in2="SourceAlpha" k2="-1" k3="1" operator="arithmetic" result="shadowInnerInner1"/><feColorMatrix in="shadowInnerInner1" values="0 0 0 0 0 0 0 0 0 0 0 0 0 0 0 0 0 0 0.09 0"/></filter><path id="a" d="m1 281 2-3 99-189L58 6c-4-7-13-6-14 2z"/><path id="c" d="m134 149 32-33-32-61c-3-6-10-6-13 0l-18 34v1z"/></defs><path fill="#ffc24a" d="m0 283 2-3L103 90v-3L58 4c-3-7-14-5-15 3z"/><use fill="#ffa712" fill-rule="evenodd" href="#a"/><use filter="url(#b)" href="#a"/><path fill="#f4bd62" d="m135 150 33-33-33-63c-3-6-12-6-15 0l-18 33v3z"/><use fill="#ffa50e" fill-rule="evenodd" href="#c"/><use filter="url(#d)" href="#c"/><path fill="#f6820c" d="M0 283zl3-1 129-128 2-5-32-61z"/><path fill="#fde068" d="m139 348 116-65-33-205c-1-6-9-9-13-4L0 283l116 65a24 24 0 0 0 23 0"/><path fill="#fcca3f" d="M254 282 221 79q-3-10-12-4L1 283l115 64a24 24 0 0 0 23 0z"/><path fill="#eeab37" d="M139 346a24 24 0 0 1-23 0L1 282l-1 1 116 65a24 24 0 0 0 23 0l116-65v-2z"/></svg>
