<svg xmlns:dc="http://purl.org/dc/elements/1.1/" xmlns:cc="http://creativecommons.org/ns#" xmlns:rdf="http://www.w3.org/1999/02/22-rdf-syntax-ns#" xmlns:svg="http://www.w3.org/2000/svg" xmlns="http://www.w3.org/2000/svg" xmlns:sodipodi="http://sodipodi.sourceforge.net/DTD/sodipodi-0.dtd" xmlns:inkscape="http://www.inkscape.org/namespaces/inkscape" preserveAspectRatio="xMidYMin meet" viewBox="-13 27 421 318"><g style="stroke-width: 26px; stroke: rgb(255, 255, 255); stroke-linejoin: round;"><rect x="0" y="82" width="190" height="60" shape-rendering="geometricPrecision" style="fill: rgb(230, 0, 141);"></rect><rect x="28" y="40" width="14" height="14" shape-rendering="geometricPrecision" style="fill: rgb(230, 0, 141);"></rect><rect x="0" y="54" width="14" height="14" shape-rendering="geometricPrecision" style="fill: rgb(230, 0, 141);"></rect><rect x="28" y="54" width="14" height="14" shape-rendering="geometricPrecision" style="fill: rgb(230, 0, 141);"></rect><rect x="42" y="54" width="14" height="14" shape-rendering="geometricPrecision" style="fill: rgb(230, 0, 141);"></rect><rect x="70" y="54" width="14" height="14" shape-rendering="geometricPrecision" style="fill: rgb(230, 0, 141);"></rect><rect x="0" y="68" width="14" height="14" shape-rendering="geometricPrecision" style="fill: rgb(230, 0, 141);"></rect><rect x="14" y="68" width="14" height="14" shape-rendering="geometricPrecision" style="fill: rgb(230, 0, 141);"></rect><rect x="28" y="68" width="14" height="14" shape-rendering="geometricPrecision" style="fill: rgb(230, 0, 141);"></rect><rect x="42" y="68" width="14" height="14" shape-rendering="geometricPrecision" style="fill: rgb(230, 0, 141);"></rect><rect x="70" y="68" width="14" height="14" shape-rendering="geometricPrecision" style="fill: rgb(230, 0, 141);"></rect><rect x="98" y="68" width="14" height="14" shape-rendering="geometricPrecision" style="fill: rgb(230, 0, 141);"></rect><rect x="0" y="156" width="190" height="60" shape-rendering="geometricPrecision" style="fill: rgb(141, 32, 137);"></rect><rect x="0" y="230" width="190" height="60" shape-rendering="geometricPrecision" style="fill: rgb(95, 38, 136);"></rect><rect x="148" y="318" width="14" height="14" shape-rendering="geometricPrecision" style="fill: rgb(95, 38, 136);"></rect><rect x="176" y="304" width="14" height="14" shape-rendering="geometricPrecision" style="fill: rgb(95, 38, 136);"></rect><rect x="148" y="304" width="14" height="14" shape-rendering="geometricPrecision" style="fill: rgb(95, 38, 136);"></rect><rect x="134" y="304" width="14" height="14" shape-rendering="geometricPrecision" style="fill: rgb(95, 38, 136);"></rect><rect x="106" y="304" width="14" height="14" shape-rendering="geometricPrecision" style="fill: rgb(95, 38, 136);"></rect><rect x="176" y="290" width="14" height="14" shape-rendering="geometricPrecision" style="fill: rgb(95, 38, 136);"></rect><rect x="162" y="290" width="14" height="14" shape-rendering="geometricPrecision" style="fill: rgb(95, 38, 136);"></rect><rect x="148" y="290" width="14" height="14" shape-rendering="geometricPrecision" style="fill: rgb(95, 38, 136);"></rect><rect x="134" y="290" width="14" height="14" shape-rendering="geometricPrecision" style="fill: rgb(95, 38, 136);"></rect><rect x="106" y="290" width="14" height="14" shape-rendering="geometricPrecision" style="fill: rgb(95, 38, 136);"></rect><rect x="78" y="290" width="14" height="14" shape-rendering="geometricPrecision" style="fill: rgb(95, 38, 136);"></rect><path d="M203.55950 183.70000L203.55950 132.75960L230.05800 132.75960Q239.07540 132.75960 243.66320 137.66380Q248.25100 142.56800 248.25100 150.87350L248.25100 150.87350Q248.25100 155.93590 245.71980 159.85135Q243.18860 163.76680 238.83810 165.90250L238.83810 165.90250Q239.70820 166.61440 240.34100 167.56360Q240.97380 168.51280 241.76480 170.33210L241.76480 170.33210L247.61820 183.70000L232.11460 183.70000L226.73580 171.43950Q226.10300 170.01570 225.19335 169.42245Q224.28370 168.82920 222.62260 168.82920L222.62260 168.82920L218.43030 168.82920L218.43030 183.70000L203.55950 183.70000ZM218.43030 157.43880L226.26120 157.43880Q229.50430 157.43880 231.28405 155.73815Q233.06380 154.03750 233.06380 150.87350L233.06380 150.87350Q233.06380 144.15000 226.73580 144.15000L226.73580 144.15000L218.43030 144.15000L218.43030 157.43880Z" transform="scale(1,1.1755)" shape-rendering="geometricPrecision" style="fill: rgb(141, 32, 137);"></path><path d="M248.64650 183.70000L263.12180 164.63690L249.20020 146.20660L265.33660 146.20660L271.19000 154.11660L277.12250 146.20660L293.17980 146.20660L279.33730 164.63690L293.81260 183.70000L277.51800 183.70000L271.19000 175.31540L264.86200 183.70000L248.64650 183.70000Z" transform="scale(1,1.1755)" shape-rendering="geometricPrecision" style="fill: rgb(141, 32, 137);"></path><path d="M295.79010 183.70000L295.79010 132.75960L318.57090 132.75960Q330.75230 132.75960 337.04075 138.88985Q343.32920 145.02010 343.32920 158.54620L343.32920 158.54620Q343.32920 171.43950 337.04075 177.56975Q330.75230 183.70000 318.57090 183.70000L318.57090 183.70000L295.79010 183.70000ZM310.66090 172.30960L316.67250 172.30960Q320.62750 172.30960 323.07960 171.16265Q325.53170 170.01570 326.83685 167.04945Q328.14200 164.08320 328.14200 158.54620L328.14200 158.54620Q328.14200 152.93010 326.95550 149.80565Q325.76900 146.68120 323.27735 145.41560Q320.78570 144.15000 316.67250 144.15000L316.67250 144.15000L310.66090 144.15000L310.66090 172.30960Z" transform="scale(1,1.1755)" shape-rendering="geometricPrecision" style="fill: rgb(141, 32, 137);"></path><path d="M348.86620 183.70000L348.86620 132.75960L376.86760 132.75960Q384.54030 132.75960 388.61395 136.39820Q392.68760 140.03680 392.68760 146.83940L392.68760 146.83940Q392.68760 150.63620 391.26380 153.40470Q389.84000 156.17320 387.38790 157.75520L387.38790 157.75520Q390.94740 159.17900 392.72715 161.63110Q394.50690 164.08320 394.50690 168.59190L394.50690 168.59190Q394.50690 175.79000 390.07730 179.74500Q385.64770 183.70000 377.50040 183.70000L377.50040 183.70000L348.86620 183.70000ZM363.18330 153.08830L372.83350 153.08830Q378.29140 153.08830 378.29140 148.18410L378.29140 148.18410Q378.29140 145.65290 376.90715 144.42685Q375.52290 143.20080 372.43800 143.20080L372.43800 143.20080L363.18330 143.20080L363.18330 153.08830ZM363.18330 173.33790L373.46630 173.33790Q376.47210 173.33790 377.89590 172.07230Q379.31970 170.80670 379.31970 167.88000L379.31970 167.88000Q379.31970 165.34880 377.85635 164.12275Q376.39300 162.89670 373.14990 162.89670L373.14990 162.89670L363.18330 162.89670L363.18330 173.33790Z" transform="scale(1,1.1755)" shape-rendering="geometricPrecision" style="fill: rgb(141, 32, 137);"></path></g><g id="normal-group"><rect x="0" y="82" width="190" height="60" shape-rendering="crispEdges" style="fill: rgb(230, 0, 141);"></rect><rect x="28" y="40" width="14" height="14" shape-rendering="crispEdges" style="fill: rgb(230, 0, 141);"></rect><rect x="0" y="54" width="14" height="14" shape-rendering="crispEdges" style="fill: rgb(230, 0, 141);"></rect><rect x="28" y="54" width="14" height="14" shape-rendering="crispEdges" style="fill: rgb(230, 0, 141);"></rect><rect x="42" y="54" width="14" height="14" shape-rendering="crispEdges" style="fill: rgb(230, 0, 141);"></rect><rect x="70" y="54" width="14" height="14" shape-rendering="crispEdges" style="fill: rgb(230, 0, 141);"></rect><rect x="0" y="68" width="14" height="14" shape-rendering="crispEdges" style="fill: rgb(230, 0, 141);"></rect><rect x="14" y="68" width="14" height="14" shape-rendering="crispEdges" style="fill: rgb(230, 0, 141);"></rect><rect x="28" y="68" width="14" height="14" shape-rendering="crispEdges" style="fill: rgb(230, 0, 141);"></rect><rect x="42" y="68" width="14" height="14" shape-rendering="crispEdges" style="fill: rgb(230, 0, 141);"></rect><rect x="70" y="68" width="14" height="14" shape-rendering="crispEdges" style="fill: rgb(230, 0, 141);"></rect><rect x="98" y="68" width="14" height="14" shape-rendering="crispEdges" style="fill: rgb(230, 0, 141);"></rect><rect x="0" y="156" width="190" height="60" shape-rendering="crispEdges" style="fill: rgb(141, 32, 137);"></rect><rect x="0" y="230" width="190" height="60" shape-rendering="crispEdges" style="fill: rgb(95, 38, 136);"></rect><rect x="148" y="318" width="14" height="14" shape-rendering="crispEdges" style="fill: rgb(95, 38, 136);"></rect><rect x="176" y="304" width="14" height="14" shape-rendering="crispEdges" style="fill: rgb(95, 38, 136);"></rect><rect x="148" y="304" width="14" height="14" shape-rendering="crispEdges" style="fill: rgb(95, 38, 136);"></rect><rect x="134" y="304" width="14" height="14" shape-rendering="crispEdges" style="fill: rgb(95, 38, 136);"></rect><rect x="106" y="304" width="14" height="14" shape-rendering="crispEdges" style="fill: rgb(95, 38, 136);"></rect><rect x="176" y="290" width="14" height="14" shape-rendering="crispEdges" style="fill: rgb(95, 38, 136);"></rect><rect x="162" y="290" width="14" height="14" shape-rendering="crispEdges" style="fill: rgb(95, 38, 136);"></rect><rect x="148" y="290" width="14" height="14" shape-rendering="crispEdges" style="fill: rgb(95, 38, 136);"></rect><rect x="134" y="290" width="14" height="14" shape-rendering="crispEdges" style="fill: rgb(95, 38, 136);"></rect><rect x="106" y="290" width="14" height="14" shape-rendering="crispEdges" style="fill: rgb(95, 38, 136);"></rect><rect x="78" y="290" width="14" height="14" shape-rendering="crispEdges" style="fill: rgb(95, 38, 136);"></rect><path d="M203.55950 183.70000L203.55950 132.75960L230.05800 132.75960Q239.07540 132.75960 243.66320 137.66380Q248.25100 142.56800 248.25100 150.87350L248.25100 150.87350Q248.25100 155.93590 245.71980 159.85135Q243.18860 163.76680 238.83810 165.90250L238.83810 165.90250Q239.70820 166.61440 240.34100 167.56360Q240.97380 168.51280 241.76480 170.33210L241.76480 170.33210L247.61820 183.70000L232.11460 183.70000L226.73580 171.43950Q226.10300 170.01570 225.19335 169.42245Q224.28370 168.82920 222.62260 168.82920L222.62260 168.82920L218.43030 168.82920L218.43030 183.70000L203.55950 183.70000ZM218.43030 157.43880L226.26120 157.43880Q229.50430 157.43880 231.28405 155.73815Q233.06380 154.03750 233.06380 150.87350L233.06380 150.87350Q233.06380 144.15000 226.73580 144.15000L226.73580 144.15000L218.43030 144.15000L218.43030 157.43880Z" transform="scale(1,1.1755)" shape-rendering="geometricPrecision" style="fill: rgb(141, 32, 137);"></path><path d="M248.64650 183.70000L263.12180 164.63690L249.20020 146.20660L265.33660 146.20660L271.19000 154.11660L277.12250 146.20660L293.17980 146.20660L279.33730 164.63690L293.81260 183.70000L277.51800 183.70000L271.19000 175.31540L264.86200 183.70000L248.64650 183.70000Z" transform="scale(1,1.1755)" shape-rendering="geometricPrecision" style="fill: rgb(141, 32, 137);"></path><path d="M295.79010 183.70000L295.79010 132.75960L318.57090 132.75960Q330.75230 132.75960 337.04075 138.88985Q343.32920 145.02010 343.32920 158.54620L343.32920 158.54620Q343.32920 171.43950 337.04075 177.56975Q330.75230 183.70000 318.57090 183.70000L318.57090 183.70000L295.79010 183.70000ZM310.66090 172.30960L316.67250 172.30960Q320.62750 172.30960 323.07960 171.16265Q325.53170 170.01570 326.83685 167.04945Q328.14200 164.08320 328.14200 158.54620L328.14200 158.54620Q328.14200 152.93010 326.95550 149.80565Q325.76900 146.68120 323.27735 145.41560Q320.78570 144.15000 316.67250 144.15000L316.67250 144.15000L310.66090 144.15000L310.66090 172.30960Z" transform="scale(1,1.1755)" shape-rendering="geometricPrecision" style="fill: rgb(141, 32, 137);"></path><path d="M348.86620 183.70000L348.86620 132.75960L376.86760 132.75960Q384.54030 132.75960 388.61395 136.39820Q392.68760 140.03680 392.68760 146.83940L392.68760 146.83940Q392.68760 150.63620 391.26380 153.40470Q389.84000 156.17320 387.38790 157.75520L387.38790 157.75520Q390.94740 159.17900 392.72715 161.63110Q394.50690 164.08320 394.50690 168.59190L394.50690 168.59190Q394.50690 175.79000 390.07730 179.74500Q385.64770 183.70000 377.50040 183.70000L377.50040 183.70000L348.86620 183.70000ZM363.18330 153.08830L372.83350 153.08830Q378.29140 153.08830 378.29140 148.18410L378.29140 148.18410Q378.29140 145.65290 376.90715 144.42685Q375.52290 143.20080 372.43800 143.20080L372.43800 143.20080L363.18330 143.20080L363.18330 153.08830ZM363.18330 173.33790L373.46630 173.33790Q376.47210 173.33790 377.89590 172.07230Q379.31970 170.80670 379.31970 167.88000L379.31970 167.88000Q379.31970 165.34880 377.85635 164.12275Q376.39300 162.89670 373.14990 162.89670L373.14990 162.89670L363.18330 162.89670L363.18330 173.33790Z" transform="scale(1,1.1755)" shape-rendering="geometricPrecision" style="fill: rgb(141, 32, 137);"></path></g></svg>
