<svg width="364" height="77" viewBox="0 0 364 77" fill="none" xmlns="http://www.w3.org/2000/svg">
<g clip-path="url(#clip0_2177_293)">
<path d="M127.968 77C128.882 77 129.623 76.2591 129.623 75.3451V36.6549C129.623 35.7409 130.364 35 131.278 35L149.656 35C150.57 35 151.311 35.7409 151.311 36.6549V54.3451C151.311 55.2591 152.052 56 152.966 56H171.345C172.259 56 173 55.2591 173 54.3452V15.6548C173 14.5 173.742 14 174.655 14L193.606 14C194.52 14 195.261 14.7409 195.261 15.6548V33.3451C195.261 34.2591 196.002 35 196.916 35L215.074 35C215.988 35 216.729 34.2591 216.729 33.3451V15.6548C216.729 14.7409 217.47 14 218.383 14L236.541 14C237.455 14 238.196 14.7409 238.196 15.6548V54.3451C238.196 55.2591 238.937 56 239.851 56H258.008C258.922 56 259.663 55.2591 259.663 54.3451V15.6548C259.663 14.7409 260.404 14 261.318 14H279.476C280.39 14 281.131 14.7409 281.131 15.6548V54.3451C281.131 55.2591 281.872 56 282.785 56L300.943 56C301.857 56 302.598 56.7409 302.598 57.6548V75.3451C302.598 76.2591 303.339 77 304.253 77L322.41 77C323.324 77 324.065 76.2591 324.065 75.3451V36.6549C324.065 35.7409 324.806 35 325.72 35L343.878 35C344.792 35 345.533 35.7409 345.533 36.6549V54.3451C345.533 55.2591 346.274 56 347.188 56H365.345C366.259 56 367 55.2591 367 54.3452L367 -76L-23 -76L-23 12.3451C-23 13.2591 -22.2591 14 -21.3451 14L-2.16408 14C-1.25013 14 -0.509226 14.7409 -0.509226 15.6548L-0.509228 33.3451C-0.509228 34.2591 0.231676 35 1.14563 35H19.5246C20.4385 35 21.1794 34.2591 21.1794 33.3451L21.1794 15.6548C21.1794 14.7409 21.9203 14 22.8343 14L41.2132 14C42.1272 14 42.8681 14.7409 42.8681 15.6548V54.3451C42.8681 55.2591 43.609 56 44.5229 56H62.9019C63.8158 56 64.5567 55.2591 64.5567 54.3451L64.5567 15.6548C64.5567 14.7409 65.2976 14 66.2116 14H84.5906C85.5045 14 86.2454 14.7409 86.2454 15.6548L86.2454 54.3451C86.2454 55.2591 86.9863 56 87.9003 56L106.279 56C107.193 56 107.934 56.7409 107.934 57.6548V75.3451C107.934 76.2591 108.675 77 109.589 77L127.968 77Z" fill="#131720"/>
</g>
<defs>
<clipPath id="clip0_2177_293">
<rect width="364" height="77" fill="white"/>
</clipPath>
</defs>
</svg>
