<svg width="393" height="140" viewBox="0 0 393 140" fill="none" xmlns="http://www.w3.org/2000/svg">
<path d="M39.0475 1.65485C39.0475 0.740902 39.7884 -1.66823e-06 40.7024 -1.66823e-06L56.475 -1.66823e-06C57.3889 -1.66823e-06 58.1298 0.7409 58.1298 1.65485L58.1298 17.4464C58.1298 18.3604 58.8707 19.1013 59.7847 19.1013L75.5573 19.1013C76.4713 19.1013 77.2122 19.8422 77.2122 20.7561L77.2122 38.2026L77.2122 55.649C77.2122 56.563 77.9531 57.3039 78.867 57.3039L94.6397 57.3039C95.5536 57.3039 96.2945 56.563 96.2945 55.649L96.2945 38.2026L115.377 38.2026L115.377 55.649C115.377 56.563 116.118 57.3039 117.032 57.3039L132.804 57.3039C133.718 57.3039 134.459 56.563 134.459 55.649L134.459 39.8574C134.459 38.9435 135.2 38.2026 136.114 38.2026L151.887 38.2026C152.801 38.2026 153.542 38.9435 153.542 39.8574L153.542 55.649C153.542 56.563 154.282 57.3039 155.196 57.3039L258.203 57.3039C259.117 57.3039 259.857 58.0448 259.857 58.9587L259.857 137.512C259.857 138.426 259.117 139.167 258.203 139.167L2.53767 139.167C1.62372 139.167 0.882819 138.426 0.882819 137.512L0.882816 20.7561C0.882816 19.8422 1.62372 19.1013 2.53767 19.1013L18.3103 19.1013C19.2243 19.1013 19.9652 19.8422 19.9652 20.7561L19.9652 36.5477C19.9652 37.4617 20.7061 38.2026 21.62 38.2026L37.3926 38.2026C38.3066 38.2026 39.0475 37.4617 39.0475 36.5477L39.0475 1.65485Z" fill="#1A202C"/>
<path d="M96.2945 20.7561C96.2945 19.8422 97.0354 19.1013 97.9494 19.1013L113.722 19.1013C114.636 19.1013 115.377 19.8422 115.377 20.7561L115.377 38.2026L96.2945 38.2026L96.2945 20.7561Z" fill="#1A202C"/>
<path d="M354.835 1.65485C354.835 0.740902 354.094 -1.66823e-06 353.18 -1.66823e-06L337.408 -1.66823e-06C336.494 -1.66823e-06 335.753 0.7409 335.753 1.65485L335.753 17.4464C335.753 18.3604 335.012 19.1013 334.098 19.1013L318.325 19.1013C317.412 19.1013 316.671 19.8422 316.671 20.7561L316.671 38.2026L316.671 55.649C316.671 56.563 315.93 57.3039 315.016 57.3039L299.243 57.3039C298.329 57.3039 297.588 56.563 297.588 55.649L297.588 38.2026L278.506 38.2026L278.506 55.649C278.506 56.563 277.765 57.3039 276.851 57.3039L261.078 57.3039C260.165 57.3039 259.424 56.563 259.424 55.649L259.424 39.8574C259.424 38.9435 258.683 38.2026 257.769 38.2026L241.996 38.2026C241.082 38.2026 240.341 38.9435 240.341 39.8574L240.341 55.649C240.341 56.563 239.6 57.3039 238.686 57.3039L135.68 57.3039C134.766 57.3039 134.025 58.0448 134.025 58.9587L134.025 137.512C134.025 138.426 134.766 139.167 135.68 139.167L391.345 139.167C392.259 139.167 393 138.426 393 137.512L393 20.7561C393 19.8422 392.259 19.1013 391.345 19.1013L375.573 19.1013C374.659 19.1013 373.918 19.8422 373.918 20.7561L373.918 36.5477C373.918 37.4617 373.177 38.2026 372.263 38.2026L356.49 38.2026C355.576 38.2026 354.835 37.4617 354.835 36.5477L354.835 1.65485Z" fill="#1A202C"/>
<path d="M297.588 20.7561C297.588 19.8422 296.847 19.1013 295.933 19.1013L280.161 19.1013C279.247 19.1013 278.506 19.8422 278.506 20.7561L278.506 38.2026L297.588 38.2026L297.588 20.7561Z" fill="#1A202C"/>
</svg>
