<?xml version="1.0" encoding="utf-8"?>
<svg version="1.1" id="Layer_1" xmlns="http://www.w3.org/2000/svg" xmlns:xlink="http://www.w3.org/1999/xlink" x="0px" y="0px"
	 viewBox="0 0 512 512" style="enable-background:new 0 0 512 512;" xml:space="preserve">

<linearGradient xmlns="http://www.w3.org/2000/svg" 
id="gradient" gradientUnits="userSpaceOnUse" x1="184.2886" y1="98.5924" 
x2="628.1017" 
y2="867.2993">
	<stop offset="0" style="stop-color:#e8108d"/>
	<stop offset="0.5" style="stop-color:#8e2088"/>
	<stop offset="1" style="stop-color:#602586"/>
</linearGradient>
<style type="text/css">
	.st0{fill:url(#gradient);}
</style>

<g class="st0">
	<path d="M195.39,67.68c0-16.48,12.94-29.43,29.43-29.43h257.76c16.48,0,29.43,12.95,29.43,29.43c0,16.48-12.95,29.43-29.43,29.43
		H224.81C208.92,97.1,195.39,84.16,195.39,67.68z M482.57,226.57H224.81c-16.48,0-29.43,12.95-29.43,29.43s12.94,29.43,29.43,29.43
		h257.76c16.48,0,29.43-12.95,29.43-29.43S499.05,226.57,482.57,226.57z M482.57,414.9H224.81c-16.48,0-29.43,12.95-29.43,29.43
		s12.94,29.43,29.43,29.43h257.76c16.48,0,29.43-12.95,29.43-29.43S499.05,414.9,482.57,414.9z M129.47,23.54
		c0-11.18-9.42-20.6-20.6-20.6H20.6C9.41,2.94,0,12.36,0,23.54v88.28c0,11.18,9.41,20.6,20.6,20.6h88.28
		c11.18,0,20.6-9.42,20.6-20.6V23.54z M129.47,300.14c0,11.18-9.42,20.6-20.6,20.6H20.6c-11.18,0-20.6-9.41-20.6-20.6v-88.28
		c0-11.18,9.41-20.6,20.6-20.6h88.28c11.18,0,20.6,9.41,20.6,20.6V300.14z M94.16,232.46H41.2v47.08h52.97V232.46z M129.47,488.46
		c0,11.18-9.42,20.6-20.6,20.6H20.6c-11.18,0-20.6-9.41-20.6-20.6v-88.28c0-11.18,9.41-20.6,20.6-20.6h88.28
		c11.18,0,20.6,9.41,20.6,20.6V488.46z M94.16,420.78H41.2v52.97h52.97V420.78z"/>
</g>
</svg>
