<?xml version="1.0" encoding="utf-8"?>
<!-- Generator: Adobe Illustrator 19.0.0, SVG Export Plug-In . SVG Version: 6.00 Build 0)  -->
<svg version="1.1" id="Layer_1" xmlns="http://www.w3.org/2000/svg" xmlns:xlink="http://www.w3.org/1999/xlink" x="0px" y="0px"
	 viewBox="0 0 512 512" style="enable-background:new 0 0 512 512;" xml:space="preserve">
<linearGradient xmlns="http://www.w3.org/2000/svg" 
id="gradient" gradientUnits="userSpaceOnUse" x1="184.2886" y1="98.5924" 
x2="628.1017" 
y2="867.2993">
	<stop offset="0" style="stop-color:#e8108d"/>
	<stop offset="0.5" style="stop-color:#8e2088"/>
	<stop offset="1" style="stop-color:#602586"/>
</linearGradient>
<style type="text/css">
	.st0{fill:url(#gradient);}
</style>


<g id="XMLID_1_" class="st0">
	<path id="XMLID_5_" d="M509.1,6.6c-0.9-1.9-1.9-3.7-3.7-3.7c-67-16.8-221.5,41.9-305.2,125.6c-16.8,16.8-29.8,32.6-40.9,48.4
		c-26.1-2.8-52.1,0-73.5,9.3c-62.3,27-81,98.6-85.6,129.4c-0.9,7.4,4.7,14,12.1,13l99.6-11.2c0,9.3,0.9,17.7,0.9,22.3
		c0.9,5.6,2.8,10.2,6.5,14l39.1,39.1c3.7,3.7,8.4,5.6,14,6.5c5.6,0.9,13,0.9,22.3,0.9l-11.2,99.6c-0.9,7.4,5.6,13,13,12.1
		c30.7-4.7,102.4-23.3,129.4-85.6c9.3-22.3,11.2-47.5,9.3-73.5c15.8-11.2,31.6-24.2,48.4-40.9C467.3,229,525.9,77.3,509.1,6.6
		L509.1,6.6z M308.1,203.9c-20.5-20.5-20.5-54,0-74.4s54-20.5,74.4,0s20.5,54,0,74.4C362.1,224.3,329.5,224.3,308.1,203.9z"/>
	<path id="XMLID_6_" d="M155.5,409.5c-5.6,5.6-14,8.4-24.2,10.2c-22.3,3.7-41.9-15.8-38.2-38.2c1.9-10.2,4.7-19.5,9.3-24.2l0,0
		c2.8-2.8,0.9-7.4-3.7-7.4c-12.1,1.9-24.2,6.5-33.5,15.8C44.8,388.1,42,470,42,470s81.9-1.9,104.2-24.2c9.3-9.3,14.9-21.4,15.8-33.5
		C163,408.6,158.3,406.7,155.5,409.5L155.5,409.5z"/>
</g>
</svg>
