<svg id="svg" version="1.1" xmlns="http://www.w3.org/2000/svg" xmlns:xlink="http://www.w3.org/1999/xlink" width="400" height="400" viewBox="0, 0, 400,400"><g id="svgg"><path id="path0" d="M199.716 15.537 C 199.257 16.329,185.453 40.427,169.041 69.087 C 152.629 97.747,139.167 121.231,139.126 121.274 C 139.084 121.317,108.041 129.697,70.142 139.896 C 32.242 150.095,1.201 158.472,1.161 158.511 C 1.122 158.551,20.206 180.413,43.570 207.095 L 86.051 255.607 81.901 317.499 C 79.619 351.540,77.689 380.150,77.612 381.078 C 77.482 382.655,77.498 382.757,77.871 382.656 C 78.091 382.596,106.428 370.652,140.844 356.112 C 175.259 341.573,203.513 329.681,203.631 329.685 C 203.748 329.690,231.272 342.343,264.795 357.803 C 298.318 373.263,325.767 385.886,325.793 385.855 C 325.819 385.824,323.462 356.499,320.556 320.688 L 315.272 255.578 356.992 206.326 C 379.938 179.238,398.714 157.021,398.715 156.956 C 398.717 156.891,370.104 150.843,335.131 143.516 L 271.543 130.195 236.114 72.145 C 216.629 40.217,200.656 14.095,200.619 14.095 C 200.583 14.095,200.176 14.744,199.716 15.537 M231.285 96.049 C 247.753 123.035,261.289 145.178,261.366 145.255 C 261.443 145.333,285.531 150.419,314.896 156.559 C 344.261 162.699,368.351 167.777,368.429 167.844 C 368.508 167.911,352.819 186.562,333.564 209.290 L 298.556 250.614 298.666 251.468 C 298.935 253.550,307.326 358.317,307.270 358.898 L 307.208 359.547 269.199 342.027 C 226.977 322.564,229.479 323.839,228.108 321.092 C 226.990 318.853,227.007 319.242,227.155 300.267 C 227.319 279.277,227.164 277.189,225.076 272.284 C 223.990 269.732,221.545 266.125,220.675 265.791 C 220.051 265.551,220.642 265.295,222.152 265.149 C 247.618 262.695,262.358 249.735,265.661 226.896 C 267.908 211.355,265.229 199.467,257.377 190.142 L 256.089 188.613 256.620 187.045 C 258.824 180.542,258.365 170.495,255.528 163.161 L 255.074 161.986 252.978 161.925 C 247.239 161.756,239.367 164.752,230.115 170.625 L 227.426 172.332 224.925 171.711 C 210.510 168.128,193.911 168.115,179.507 171.675 L 176.953 172.306 173.848 170.359 C 165.230 164.955,158.082 162.160,152.299 161.934 C 148.974 161.804,149.346 161.548,148.338 164.656 C 145.880 172.229,145.641 180.380,147.687 186.856 L 148.235 188.589 146.905 190.237 C 140.312 198.409,137.729 206.529,138.025 218.153 C 138.706 244.921,150.988 259.670,176.508 264.366 C 178.469 264.726,183.354 265.456,183.808 265.456 C 183.879 265.456,183.451 265.971,182.856 266.600 C 180.396 269.202,178.653 272.870,177.773 277.299 L 177.417 279.094 176.429 279.515 C 164.357 284.650,153.846 281.079,147.333 269.630 C 144.547 264.731,137.593 261.151,132.501 261.995 C 128.517 262.655,129.014 264.578,134.065 268.051 C 138.170 270.873,141.213 274.300,142.884 277.983 C 146.712 286.424,151.848 290.636,160.598 292.510 C 163.380 293.106,170.870 293.052,174.407 292.409 C 175.835 292.150,177.063 291.938,177.136 291.938 C 177.208 291.938,177.241 298.113,177.208 305.659 L 177.149 319.381 176.646 320.629 C 176.034 322.146,174.708 323.812,173.406 324.701 C 172.436 325.362,95.742 357.853,95.566 357.677 C 95.515 357.625,97.051 334.092,98.980 305.380 C 100.910 276.668,102.517 252.504,102.552 251.682 L 102.616 250.187 66.701 209.183 C 46.947 186.631,30.774 168.090,30.759 167.982 C 30.744 167.873,57.606 160.553,90.451 151.715 C 123.296 142.878,150.200 135.615,150.239 135.576 C 150.277 135.537,161.715 115.587,175.656 91.244 C 189.597 66.901,201.080 46.983,201.174 46.983 C 201.267 46.983,214.817 69.063,231.285 96.049 " stroke="none" fill="#ebcb4b" fill-rule="evenodd"></path><path id="path1" d="M175.684 91.475 L 150.324 135.752 90.912 151.732 C 58.236 160.520,31.335 167.769,31.132 167.841 C 30.845 167.943,38.660 176.988,66.807 209.132 C 100.465 247.569,102.846 250.339,102.785 250.987 C 102.502 253.982,95.670 357.354,95.750 357.434 C 95.980 357.664,172.577 325.146,173.576 324.394 C 177.011 321.809,177.042 321.638,177.042 305.449 L 177.042 292.096 176.241 292.235 C 171.745 293.016,170.950 293.089,166.898 293.086 C 155.323 293.078,147.236 288.250,143.191 278.931 C 141.328 274.637,138.258 271.062,133.836 268.033 C 128.737 264.542,128.344 262.531,132.625 261.842 C 138.128 260.956,144.334 264.422,147.906 270.375 C 152.194 277.521,157.264 280.958,164.442 281.585 C 168.594 281.948,177.092 279.930,177.369 278.517 C 178.415 273.183,180.524 268.528,182.892 266.327 C 183.692 265.583,183.668 265.567,181.260 265.274 C 152.731 261.802,138.739 246.624,137.821 218.153 C 137.442 206.408,140.146 198.397,147.602 189.169 L 148.070 188.590 147.503 186.713 C 145.453 179.934,145.704 172.286,148.230 164.517 C 149.190 161.566,149.074 161.666,151.559 161.666 C 157.312 161.666,165.943 165.054,174.750 170.769 L 176.871 172.145 180.107 171.400 C 195.087 167.952,210.144 167.985,224.669 171.498 L 227.448 172.170 229.421 170.900 C 238.665 164.947,247.027 161.666,252.950 161.666 C 255.173 161.666,255.216 161.704,256.147 164.549 C 258.708 172.373,258.878 180.940,256.605 187.559 L 256.257 188.573 257.694 190.336 C 264.017 198.092,266.414 205.307,266.404 216.551 C 266.378 246.019,252.410 261.579,222.685 265.253 L 220.598 265.511 221.628 266.605 C 224.367 269.515,225.991 273.129,226.966 278.484 C 227.299 280.310,227.336 282.443,227.336 299.843 L 227.336 319.173 228.046 320.618 C 228.856 322.264,230.336 323.855,231.726 324.572 C 232.925 325.191,307.197 359.399,307.238 359.352 C 307.254 359.332,305.310 335.195,302.917 305.713 C 300.525 276.231,298.568 251.725,298.568 251.255 C 298.570 250.430,299.787 248.964,333.485 209.184 C 367.311 169.253,368.382 167.963,367.809 167.818 C 367.484 167.736,343.529 162.711,314.576 156.652 C 285.622 150.592,261.785 145.589,261.604 145.534 C 261.422 145.480,247.783 123.331,231.294 96.316 C 214.805 69.300,201.253 47.197,201.179 47.197 C 201.105 47.197,189.632 67.122,175.684 91.475 " stroke="none" fill="#cc9434" fill-rule="evenodd"></path><path id="path2" d="M150.726 161.822 C 151.229 161.868,151.998 161.867,152.435 161.821 C 152.872 161.775,152.461 161.738,151.522 161.739 C 150.582 161.740,150.224 161.777,150.726 161.822 M251.954 161.822 C 252.457 161.868,253.226 161.867,253.663 161.821 C 254.100 161.775,253.689 161.738,252.750 161.739 C 251.810 161.740,251.452 161.777,251.954 161.822 M197.170 169.080 C 197.493 169.129,198.022 169.129,198.345 169.080 C 198.668 169.031,198.404 168.991,197.758 168.991 C 197.112 168.991,196.847 169.031,197.170 169.080 M206.143 169.080 C 206.467 169.129,206.948 169.128,207.211 169.077 C 207.473 169.026,207.208 168.986,206.620 168.988 C 206.033 168.990,205.818 169.031,206.143 169.080 M258.048 175.654 C 258.049 176.359,258.089 176.621,258.137 176.237 C 258.184 175.854,258.183 175.277,258.134 174.956 C 258.086 174.635,258.047 174.949,258.048 175.654 M146.134 177.042 C 146.134 177.571,146.176 177.787,146.227 177.523 C 146.277 177.258,146.277 176.826,146.227 176.562 C 146.176 176.297,146.134 176.514,146.134 177.042 M258.048 178.644 C 258.049 179.349,258.089 179.611,258.137 179.227 C 258.184 178.844,258.183 178.267,258.134 177.946 C 258.086 177.625,258.047 177.939,258.048 178.644 M266.375 213.561 C 266.375 214.207,266.415 214.471,266.464 214.148 C 266.513 213.825,266.513 213.297,266.464 212.974 C 266.415 212.651,266.375 212.915,266.375 213.561 M137.826 216.124 C 137.826 217.357,137.861 217.862,137.904 217.245 C 137.948 216.628,137.948 215.619,137.904 215.003 C 137.861 214.386,137.826 214.891,137.826 216.124 M266.381 218.793 C 266.382 219.616,266.420 219.926,266.467 219.483 C 266.513 219.040,266.512 218.367,266.465 217.988 C 266.418 217.609,266.380 217.971,266.381 218.793 M138.014 221.570 C 138.017 222.040,138.060 222.207,138.112 221.941 C 138.163 221.675,138.161 221.291,138.107 221.087 C 138.054 220.882,138.012 221.100,138.014 221.570 M150.027 252.002 C 150.485 252.472,150.909 252.856,150.968 252.856 C 151.026 252.856,150.699 252.472,150.240 252.002 C 149.781 251.532,149.358 251.148,149.299 251.148 C 149.241 251.148,149.568 251.532,150.027 252.002 M102.559 252.002 C 102.559 252.413,102.603 252.581,102.657 252.376 C 102.710 252.170,102.710 251.834,102.657 251.628 C 102.603 251.423,102.559 251.591,102.559 252.002 M298.822 254.565 C 298.822 254.976,298.866 255.144,298.919 254.939 C 298.973 254.733,298.973 254.397,298.919 254.191 C 298.866 253.986,298.822 254.154,298.822 254.565 M102.345 255.206 C 102.345 255.617,102.389 255.785,102.443 255.579 C 102.497 255.374,102.497 255.037,102.443 254.832 C 102.389 254.626,102.345 254.794,102.345 255.206 M299.035 257.128 C 299.035 257.539,299.079 257.707,299.133 257.501 C 299.187 257.296,299.187 256.959,299.133 256.754 C 299.079 256.548,299.035 256.716,299.035 257.128 M102.132 258.409 C 102.132 258.820,102.176 258.988,102.229 258.783 C 102.283 258.577,102.283 258.241,102.229 258.035 C 102.176 257.830,102.132 257.998,102.132 258.409 M101.923 261.506 C 101.925 261.975,101.969 262.142,102.020 261.877 C 102.071 261.611,102.069 261.227,102.015 261.023 C 101.962 260.818,101.920 261.036,101.923 261.506 M101.709 264.709 C 101.711 265.179,101.755 265.346,101.806 265.080 C 101.857 264.815,101.855 264.430,101.802 264.226 C 101.748 264.022,101.707 264.239,101.709 264.709 M299.676 265.029 C 299.676 265.440,299.720 265.609,299.773 265.403 C 299.827 265.198,299.827 264.861,299.773 264.656 C 299.720 264.450,299.676 264.618,299.676 265.029 M220.511 265.442 C 220.443 265.551,220.501 265.710,220.638 265.795 C 220.788 265.888,220.831 265.857,220.745 265.718 C 220.663 265.585,220.807 265.448,221.086 265.394 C 221.566 265.302,221.566 265.301,221.102 265.272 C 220.844 265.256,220.579 265.332,220.511 265.442 M101.495 267.912 C 101.498 268.382,101.541 268.549,101.593 268.284 C 101.644 268.018,101.642 267.634,101.588 267.429 C 101.535 267.225,101.493 267.443,101.495 267.912 M300.103 270.368 C 300.103 270.779,300.147 270.948,300.201 270.742 C 300.254 270.537,300.254 270.200,300.201 269.995 C 300.147 269.789,300.103 269.957,300.103 270.368 M101.282 271.116 C 101.284 271.586,101.328 271.753,101.379 271.487 C 101.430 271.221,101.428 270.837,101.375 270.633 C 101.321 270.429,101.279 270.646,101.282 271.116 M300.316 272.931 C 300.316 273.342,300.360 273.510,300.414 273.305 C 300.468 273.099,300.468 272.763,300.414 272.557 C 300.360 272.352,300.316 272.520,300.316 272.931 M101.068 274.319 C 101.071 274.789,101.114 274.956,101.165 274.691 C 101.217 274.425,101.215 274.040,101.161 273.836 C 101.108 273.632,101.066 273.849,101.068 274.319 M100.855 277.523 C 100.857 277.993,100.901 278.160,100.952 277.894 C 101.003 277.628,101.001 277.244,100.948 277.040 C 100.894 276.836,100.852 277.053,100.855 277.523 M300.744 278.270 C 300.744 278.681,300.788 278.849,300.841 278.644 C 300.895 278.438,300.895 278.102,300.841 277.896 C 300.788 277.691,300.744 277.859,300.744 278.270 M100.637 280.619 C 100.637 281.030,100.681 281.199,100.735 280.993 C 100.788 280.788,100.788 280.451,100.735 280.246 C 100.681 280.040,100.637 280.208,100.637 280.619 M300.957 280.833 C 300.957 281.244,301.001 281.412,301.055 281.207 C 301.109 281.001,301.109 280.665,301.055 280.459 C 301.001 280.254,300.957 280.422,300.957 280.833 M100.423 283.823 C 100.423 284.234,100.467 284.402,100.521 284.196 C 100.575 283.991,100.575 283.655,100.521 283.449 C 100.467 283.243,100.423 283.412,100.423 283.823 M301.384 286.172 C 301.384 286.583,301.428 286.751,301.482 286.546 C 301.536 286.340,301.536 286.004,301.482 285.798 C 301.428 285.593,301.384 285.761,301.384 286.172 M100.214 286.919 C 100.216 287.389,100.260 287.556,100.311 287.291 C 100.362 287.025,100.360 286.641,100.307 286.436 C 100.253 286.232,100.212 286.450,100.214 286.919 M301.598 288.735 C 301.598 289.146,301.642 289.314,301.696 289.108 C 301.749 288.903,301.749 288.566,301.696 288.361 C 301.642 288.155,301.598 288.324,301.598 288.735 M100.000 290.123 C 100.003 290.593,100.047 290.760,100.098 290.494 C 100.149 290.228,100.147 289.844,100.093 289.640 C 100.040 289.436,99.998 289.653,100.000 290.123 M177.143 305.392 C 177.143 312.851,177.170 315.902,177.202 312.173 C 177.235 308.444,177.235 302.341,177.202 298.612 C 177.170 294.883,177.143 297.934,177.143 305.392 M99.787 293.326 C 99.789 293.796,99.833 293.963,99.884 293.697 C 99.935 293.432,99.933 293.047,99.880 292.843 C 99.826 292.639,99.785 292.856,99.787 293.326 M165.997 293.163 C 166.558 293.207,167.423 293.207,167.919 293.162 C 168.415 293.117,167.955 293.081,166.898 293.082 C 165.841 293.082,165.435 293.119,165.997 293.163 M302.025 294.074 C 302.025 294.485,302.069 294.653,302.123 294.447 C 302.176 294.242,302.176 293.905,302.123 293.700 C 302.069 293.494,302.025 293.663,302.025 294.074 M99.573 296.530 C 99.576 296.999,99.619 297.167,99.671 296.901 C 99.722 296.635,99.720 296.251,99.666 296.047 C 99.613 295.842,99.571 296.060,99.573 296.530 M302.239 296.636 C 302.239 297.048,302.282 297.216,302.336 297.010 C 302.390 296.805,302.390 296.468,302.336 296.263 C 302.282 296.057,302.239 296.225,302.239 296.636 M99.360 299.733 C 99.362 300.203,99.406 300.370,99.457 300.104 C 99.508 299.839,99.506 299.454,99.453 299.250 C 99.399 299.046,99.357 299.263,99.360 299.733 M302.666 301.975 C 302.666 302.387,302.710 302.555,302.763 302.349 C 302.817 302.144,302.817 301.807,302.763 301.602 C 302.710 301.396,302.666 301.564,302.666 301.975 M99.146 302.936 C 99.149 303.406,99.192 303.573,99.243 303.308 C 99.294 303.042,99.293 302.658,99.239 302.453 C 99.186 302.249,99.144 302.467,99.146 302.936 M302.879 304.538 C 302.879 304.949,302.923 305.117,302.977 304.912 C 303.031 304.706,303.031 304.370,302.977 304.164 C 302.923 303.959,302.879 304.127,302.879 304.538 M98.928 306.033 C 98.928 306.444,98.972 306.612,99.026 306.407 C 99.080 306.201,99.080 305.865,99.026 305.659 C 98.972 305.454,98.928 305.622,98.928 306.033 M227.110 311.906 C 227.110 315.430,227.139 316.901,227.175 315.176 C 227.211 313.451,227.211 310.568,227.175 308.769 C 227.140 306.971,227.110 308.382,227.110 311.906 M98.715 309.237 C 98.715 309.648,98.759 309.816,98.812 309.610 C 98.866 309.405,98.866 309.068,98.812 308.863 C 98.759 308.657,98.715 308.825,98.715 309.237 M303.306 309.877 C 303.306 310.288,303.350 310.456,303.404 310.251 C 303.458 310.045,303.458 309.709,303.404 309.503 C 303.350 309.298,303.306 309.466,303.306 309.877 M98.506 312.333 C 98.508 312.803,98.552 312.970,98.603 312.704 C 98.654 312.439,98.652 312.054,98.598 311.850 C 98.545 311.646,98.503 311.863,98.506 312.333 M98.292 315.537 C 98.294 316.006,98.338 316.173,98.389 315.908 C 98.440 315.642,98.438 315.258,98.385 315.054 C 98.331 314.849,98.290 315.067,98.292 315.537 M303.947 317.779 C 303.947 318.190,303.991 318.358,304.045 318.153 C 304.098 317.947,304.098 317.611,304.045 317.405 C 303.991 317.200,303.947 317.368,303.947 317.779 M98.078 318.740 C 98.081 319.210,98.125 319.377,98.176 319.111 C 98.227 318.846,98.225 318.461,98.171 318.257 C 98.118 318.053,98.076 318.270,98.078 318.740 M97.865 321.943 C 97.867 322.413,97.911 322.580,97.962 322.315 C 98.013 322.049,98.011 321.665,97.958 321.460 C 97.904 321.256,97.862 321.474,97.865 321.943 M97.651 325.147 C 97.654 325.617,97.697 325.784,97.748 325.518 C 97.800 325.252,97.798 324.868,97.744 324.664 C 97.691 324.460,97.649 324.677,97.651 325.147 M304.588 325.681 C 304.588 326.092,304.632 326.260,304.685 326.054 C 304.739 325.849,304.739 325.513,304.685 325.307 C 304.632 325.101,304.588 325.270,304.588 325.681 M97.438 328.350 C 97.440 328.820,97.484 328.987,97.535 328.721 C 97.586 328.456,97.584 328.071,97.531 327.867 C 97.477 327.663,97.435 327.880,97.438 328.350 M97.220 331.447 C 97.220 331.858,97.264 332.026,97.318 331.821 C 97.371 331.615,97.371 331.279,97.318 331.073 C 97.264 330.868,97.220 331.036,97.220 331.447 M305.228 333.582 C 305.228 333.994,305.272 334.162,305.326 333.956 C 305.380 333.751,305.380 333.414,305.326 333.209 C 305.272 333.003,305.228 333.171,305.228 333.582 M97.006 334.650 C 97.006 335.061,97.050 335.230,97.104 335.024 C 97.158 334.818,97.158 334.482,97.104 334.277 C 97.050 334.071,97.006 334.239,97.006 334.650 M96.793 337.854 C 96.793 338.265,96.837 338.433,96.890 338.227 C 96.944 338.022,96.944 337.686,96.890 337.480 C 96.837 337.274,96.793 337.443,96.793 337.854 M96.583 340.950 C 96.586 341.420,96.630 341.587,96.681 341.322 C 96.732 341.056,96.730 340.672,96.676 340.467 C 96.623 340.263,96.581 340.481,96.583 340.950 M305.869 341.484 C 305.869 341.895,305.913 342.064,305.967 341.858 C 306.020 341.652,306.020 341.316,305.967 341.111 C 305.913 340.905,305.869 341.073,305.869 341.484 M96.370 344.154 C 96.372 344.624,96.416 344.791,96.467 344.525 C 96.518 344.259,96.516 343.875,96.463 343.671 C 96.409 343.467,96.368 343.684,96.370 344.154 M96.156 347.357 C 96.159 347.827,96.202 347.994,96.254 347.728 C 96.305 347.463,96.303 347.078,96.249 346.874 C 96.196 346.670,96.154 346.887,96.156 347.357 M306.510 349.386 C 306.510 349.797,306.554 349.965,306.607 349.760 C 306.661 349.554,306.661 349.218,306.607 349.012 C 306.554 348.807,306.510 348.975,306.510 349.386 M95.943 350.561 C 95.945 351.030,95.989 351.197,96.040 350.932 C 96.091 350.666,96.089 350.282,96.036 350.078 C 95.982 349.873,95.940 350.091,95.943 350.561 M95.729 353.764 C 95.732 354.234,95.775 354.401,95.826 354.135 C 95.878 353.870,95.876 353.485,95.822 353.281 C 95.769 353.077,95.727 353.294,95.729 353.764 M95.516 356.967 C 95.518 357.437,95.562 357.604,95.613 357.339 C 95.664 357.073,95.662 356.689,95.609 356.484 C 95.555 356.280,95.513 356.498,95.516 356.967 M307.150 357.288 C 307.150 357.699,307.194 357.867,307.248 357.662 C 307.302 357.456,307.302 357.120,307.248 356.914 C 307.194 356.708,307.150 356.877,307.150 357.288 " stroke="none" fill="#dcb444" fill-rule="evenodd"></path><path id="path3" d="" stroke="none" fill="#dcaa3c" fill-rule="evenodd"></path><path id="path4" d="M201.442 168.869 C 201.882 168.915,202.603 168.915,203.043 168.869 C 203.484 168.823,203.123 168.785,202.242 168.785 C 201.361 168.785,201.001 168.823,201.442 168.869 M146.125 175.547 C 146.125 175.958,146.169 176.127,146.223 175.921 C 146.277 175.715,146.277 175.379,146.223 175.174 C 146.169 174.968,146.125 175.136,146.125 175.547 M146.125 178.751 C 146.125 179.162,146.169 179.330,146.223 179.124 C 146.277 178.919,146.277 178.582,146.223 178.377 C 146.169 178.171,146.125 178.340,146.125 178.751 M137.801 219.007 C 137.803 219.477,137.847 219.644,137.898 219.378 C 137.949 219.113,137.947 218.728,137.894 218.524 C 137.840 218.320,137.798 218.537,137.801 219.007 M227.325 289.696 C 227.325 293.807,227.354 295.458,227.389 293.366 C 227.424 291.273,227.424 287.910,227.389 285.891 C 227.354 283.873,227.325 285.585,227.325 289.696 " stroke="none" fill="#d4a43c" fill-rule="evenodd"></path></g></svg>