<svg xmlns="http://www.w3.org/2000/svg" data-name="Layer 1" viewBox="0 0 77.38 67"><path fill="#176d2a" d="M72.78 35.08C72 54.8 53.66 69.89 34.16 66.53S2.44 43.76 7.46 24.73c4.69-.07 9.39 0 14.09 0 .68-.17.62 1.95.66 2.41 0 4.24-.68 8.45-1.07 12.67a30 30 0 0 0-.4 5.59c.36 2.28 3.07 2.08 4.67 1.34.41-.09-.45-.61-.11-1.64 1.49-4.53 4-8.68 6.26-12.84 1.55-2.43 2.95-5.29 5.51-6.79 2.08-.95 2.15 1.41 1.8 2.87C38.09 33.16 37 38 36 42.78c-1 3.67.14 5.21 4 4.06.17 0 .2-.1.16-.27 0-1.73 1.5-3.53 2.27-5.06 2.94-4.46 8-14.14 12.64-16.33 2.62-.65.84 3.85.78 5.12a91 91 0 0 0-1.57 9c-.62 5.06 1.6 9.46 7.29 7.49 5.12-2.21 8.21-7.27 11.21-11.71"/><path fill="#176d2a" d="M8.13 22.59a37 37 0 0 1 4.16-8.19A33.3 33.3 0 0 1 34 .52c14.33-2.7 29.55 5.39 35.6 18.59a34.6 34.6 0 0 1 2.9 9.58 6 6 0 0 1 .1 1.14c0 .13 0 .25.18.23-2.49 3.94-6.61 11.49-11.19 12.73-2.53.47-2.59-2.7-2.31-4.45.39-3.1 1.16-6.15 1.7-9.22.32-2.74 1.83-6.93-.88-8.85-7.29-3.5-15.91 13.46-18.57 18.73.68-4.75 2-9.4 2.49-14.19s-2.49-6.44-6.44-3.81C32 25.08 29.12 31.74 26 37.72c.11-3.69.78-7.44 1-11.15.45-3.29.14-4.29-3.88-4.2-7.41.17-8.8.06-14.95.13"/><path fill="#fcfdfc" d="M1.1 22.6c7.31-.16 15-.1 22-.23 3.83-1.21 4.33.9 3.88 4.2-.23 3.71-.9 7.46-1 11.15 3.14-6 6-12.64 11.6-16.75 3.94-2.59 7-1 6.44 3.84S42.21 34.25 41.53 39c2.66-5.26 11.28-22.23 18.57-18.73 2.71 1.92 1.2 6.12.88 8.85-.54 3.07-1.31 6.12-1.7 9.22-.28 1.75-.22 4.92 2.31 4.45 4.6-1.26 8.69-8.83 11.19-12.73.87-1.4 1.68-2.85 2.49-4.29.07-.12.14-.15.27-.07l1.72 1c.25.13 0 .27 0 .37-1.32 2.61-2.75 5.17-4.27 7.67-3 4.58-6.2 9.79-11.43 12-5.67 2-7.92-2.46-7.29-7.49.36-4.41 1.8-8.64 2.2-13-1.54-5.95-13 13.45-14 15.28-.78 1.52-2.29 3.34-2.28 5.06 0 .17 0 .23-.16.27-3.79 1.14-5-.37-4-4.06q1-4.87 2-9.75c.09-1.63 2.72-9.17-1-7.6-4.14 2.41-9.25 13.67-11.35 18.33-.29.85-.8 1.84-.23 2.68.09.14.09.2-.08.26-1.6.74-4.31.94-4.67-1.34a12.2 12.2 0 0 1 .14-3.19c0-2.14 2.51-17.42.67-17.48H1.2a1.06 1.06 0 1 1-.1-2.11"/></svg>