<?xml version="1.0" encoding="UTF-8" standalone="no"?>
<!-- Created with Inkscape (http://www.inkscape.org/) -->

<svg
   version="1.1"
   id="svg2"
   width="340.56"
   height="336.35999"
   viewBox="0 0 340.56 336.35999"
   sodipodi:docname="Nutrien N only RGB.eps"
   xmlns:inkscape="http://www.inkscape.org/namespaces/inkscape"
   xmlns:sodipodi="http://sodipodi.sourceforge.net/DTD/sodipodi-0.dtd"
   xmlns="http://www.w3.org/2000/svg"
   xmlns:svg="http://www.w3.org/2000/svg">
  <defs
     id="defs6">
    <clipPath
       clipPathUnits="userSpaceOnUse"
       id="clipPath18">
      <path
         d="m 1740.59,337.141 c -22.57,41.339 -127.57,240.41 -216.34,521.007 -87.04,275.122 -173.22,613.402 -215.9,791.602 -87.37,364.95 -232.13,697.72 -663.077,827.56 -192.132,57.89 -645.26909375,43.88 -645.26909375,43.88 0,0 311.15609375,-198.08 488.49209375,-525.77 112.641,-208.13 137.387,-393.02 156.777,-453.62 346.965,-6.42 493.457,-164.49 693.927,-524.3 43.95,-78.871 89.97,-159.191 134.64,-235.891 0,0 0.23,-0.449 -0.16,-0.64 -0.44,-0.227 -0.68,0.281 -0.68,0.281 l -0.01,-0.008 c -63.03,97.156 -135.54,205.348 -199.3,292.198 -143.89,196 -330.651,379.34 -615.569,386.12 -138.445,3.29 -75.32,-1.09 -275.785,2.77 C 691.492,1290.83 715.434,865.07 911.242,588.488 1091.19,334.332 1249.46,123.73 1705.52,35.4414 1770.02,22.9492 1920.84,-0.378906 1991.64,3.78906 1897.36,83.5586 1823.67,194.742 1740.59,337.141 Z"
         id="path16" />
    </clipPath>
    <linearGradient
       x1="0"
       y1="0"
       x2="1"
       y2="0"
       gradientUnits="userSpaceOnUse"
       gradientTransform="matrix(451.194,2122.7,2122.7,-451.194,776.893,232.52)"
       spreadMethod="pad"
       id="linearGradient24">
      <stop
         style="stop-opacity:1;stop-color:#46a339"
         offset="0"
         id="stop20" />
      <stop
         style="stop-opacity:1;stop-color:#7dcb29"
         offset="1"
         id="stop22" />
    </linearGradient>
  </defs>
  <sodipodi:namedview
     id="namedview4"
     pagecolor="#ffffff"
     bordercolor="#000000"
     borderopacity="0.25"
     inkscape:showpageshadow="2"
     inkscape:pageopacity="0.0"
     inkscape:pagecheckerboard="0"
     inkscape:deskcolor="#d1d1d1" />
  <g
     id="g8"
     inkscape:groupmode="layer"
     inkscape:label="ink_ext_XXXXXX"
     transform="matrix(1.3333333,0,0,-1.3333333,0,336.36)">
    <g
       id="g10"
       transform="scale(0.1)">
      <g
         id="g12">
        <g
           id="g14"
           clip-path="url(#clipPath18)">
          <path
             d="m 1740.59,337.141 c -22.57,41.339 -127.57,240.41 -216.34,521.007 -87.04,275.122 -173.22,613.402 -215.9,791.602 -87.37,364.95 -232.13,697.72 -663.077,827.56 -192.132,57.89 -645.26909375,43.88 -645.26909375,43.88 0,0 311.15609375,-198.08 488.49209375,-525.77 112.641,-208.13 137.387,-393.02 156.777,-453.62 346.965,-6.42 493.457,-164.49 693.927,-524.3 43.95,-78.871 89.97,-159.191 134.64,-235.891 0,0 0.23,-0.449 -0.16,-0.64 -0.44,-0.227 -0.68,0.281 -0.68,0.281 l -0.01,-0.008 c -63.03,97.156 -135.54,205.348 -199.3,292.198 -143.89,196 -330.651,379.34 -615.569,386.12 -138.445,3.29 -75.32,-1.09 -275.785,2.77 C 691.492,1290.83 715.434,865.07 911.242,588.488 1091.19,334.332 1249.46,123.73 1705.52,35.4414 1770.02,22.9492 1920.84,-0.378906 1991.64,3.78906 1897.36,83.5586 1823.67,194.742 1740.59,337.141"
             style="fill:url(#linearGradient24);fill-opacity:1;fill-rule:nonzero;stroke:none"
             id="path26" />
        </g>
      </g>
      <path
         d="m 2156.68,2522.26 -480,-1844.35 c 97.49,-246.262 190.25,-450.551 337.48,-585.0116 l 527.31,2020.6516 4.25,16.59 c 5.36,24.01 8.52,48.4 8.52,72.94 0,191.43 -173.32,315.55 -397.56,319.18"
         style="fill:#100f0d;fill-opacity:1;fill-rule:nonzero;stroke:none"
         id="path28" />
      <path
         d="M 362.363,1384.66 9.03125,35.3594 H 500.344 L 702.387,815.43 c -90.864,258.83 -183.371,457.51 -340.024,569.23"
         style="fill:#100f0d;fill-opacity:1;fill-rule:nonzero;stroke:none"
         id="path30" />
      <path
         d="m 2308.58,99.1211 25.32,-70.9609 25.49,70.9609 h 28.17 V 0 h -18.18 V 79.9805 L 2341.96,0 h -15.87 l -27.67,79.9805 V 0 h -18.18 V 99.1211 Z M 2178.93,82.582 v 16.5391 h 84.49 V 82.582 h -32.4 V 0 h -19.69 v 82.582 h -32.4"
         style="fill:#100f0d;fill-opacity:1;fill-rule:nonzero;stroke:none"
         id="path32" />
    </g>
  </g>
</svg>
