<svg xmlns="http://www.w3.org/2000/svg" width="50" height="50" fill="none"><g style="mix-blend-mode:multiply"><path fill="#000" d="M50 0H0v50h50z"/><path fill="#fff" d="M36.223 35.787c1.054 1.753 1.914 2.336 3.672 2.545v1.754H31.22L23.09 26.527h-2.03v8.89c0 2.38.587 2.711 3.089 2.92v1.754H11.053v-1.754c2.501-.209 3.09-.544 3.09-2.92V15.552c0-2.419-.51-2.71-3.09-2.92V10.88h13.48c8.128 0 12.374 1.71 12.374 7.72 0 4.547-2.21 6.718-6.665 7.467zM22.23 13.717c-.704 0-1.17.5-1.17 1.252v8.72h3.361c3.479 0 5.548-1.253 5.548-5.09 0-3.882-2.07-4.883-5.431-4.883z"/><path fill="#fff" d="M31.345 11.918h-12.64v12.068h12.64z"/><path fill="#000" d="M29.718 14.023c-.685 1.268.375 7.244.375 7.244a.644.644 0 0 1-.51.66s-6.481.03-8.629 1.818"/></g></svg>