<svg xmlns="http://www.w3.org/2000/svg" xmlns:xlink="http://www.w3.org/1999/xlink" viewBox="5.56 0 487.82 274.12"><defs><linearGradient id="a" x1="624.28" x2="499.23" y1="428.44" y2="356.33" gradientTransform="matrix(1 0 0 -1 0 652)" gradientUnits="userSpaceOnUse"><stop offset="0" stop-color="#00ffae"/><stop offset=".99" stop-color="#00deff"/></linearGradient><linearGradient xlink:href="#a" id="b" x1="616.14" x2="491.08" y1="442.57" y2="370.44" gradientTransform="matrix(1 0 0 -1 0 652.01)"/><linearGradient xlink:href="#a" id="c" x1="595.1" x2="470.04" y1="479.06" y2="406.93"/></defs><g transform="translate(-302.35 -165.73)"><path d="m605.62 241.09-31.64 55.85-22.01-39.84-21.99 39.84-31.85-57.71c-7.09-12.85-26.8-7.98-26.88 6.7v.42c0 45.78 38.13 82.63 84.38 80.51 41.59-1.91 75.2-35.86 76.74-77.45 0-.31 0-.65.03-.97.37-14.87-19.47-20.28-26.8-7.35h.03Z" class="cls-1" style="fill:url(#a)"/><circle cx="616.81" cy="209.05" r="9.66" class="cls-5" style="fill:url(#b)"/><path d="m590.07 230.62-16.1 29.21-19.18-34.78-3.53-6.39-13.98-25.34-4.92-8.93h-20.62l20.55 37.01 4.55 8.19 4.89 8.93-11.75 21.3-4.37-7.93-47.53-86.16h74.49c32.95.29 53.45 36.04 37.53 64.91l-.03-.03Z" class="cls-4" style="fill:url(#c)"/></g><path d="m346.64 438.43 12.51-61.51 12.41 61.51h15.7l22.8-80.27H399.9c-4.14 0-6.86 2.12-8.27 6.26l-12.17 50.3-11.57-56.56h-17.48l-11.8 56.56-13.58-56.56h-17.12l22.9 80.27zm90.32 1.42c15.34 0 23.84-7.33 27.27-20.55h-11.57c-2.12 0-3.9.71-5.31 2.25-3.06 2.96-6.49 4.48-10.16 4.48-7.67 0-11.8-4.84-12.41-14.4h40.39c1.18-24.45-8.14-36.59-27.98-36.59-19 .13-28.58 10.73-28.58 31.98s9.45 32.22 28.35 32.82Zm0-51.95c6.73 0 10.63 4.24 11.57 12.51h-23.5c1.18-8.27 5.18-12.51 11.93-12.51m64.8 51.48c19.37-.37 29.05-10.86 29.05-31.64s-8.27-32.11-24.92-32.69c-7.8 0-13.69 3.19-17.72 9.68v-18.66c0-5.18-2.59-7.9-7.8-7.9h-7.9v53.24c0 18.77 9.79 28.11 29.29 27.98Zm-.24-50.3c8.51 0 12.88 5.92 13.22 17.95 0 12.64-4.48 19-13.45 19s-13.22-6.39-13.11-19c.47-12.04 4.84-17.95 13.35-17.95Zm75.1 49.35 12.51-61.51 12.41 61.51h15.7l22.8-80.27h-10.16c-4.14 0-6.86 2.12-8.27 6.26l-12.17 50.3-11.57-56.56h-17.48l-11.8 56.56-13.58-56.56h-17.12l22.9 80.27zm78.65-46.17c.84-2.96 3.9-4.37 9.45-4.37 6.49 0 9.79 1.78 10.16 5.31 0 3.43-3.43 5.44-10.16 6.26-15.81 1.54-26.67 5.55-27.04 20.55 0 13.82 10.39 20.78 25.39 19.6 16.88-1.18 27.27-8.85 27.27-26.09v-21.25c-.37-11.57-9.08-17.25-26.33-17.25-14.4 0-22.56 5.68-24.45 17.25h15.7Zm19.84 20.55c0 8.85-5.31 14.05-14.05 14.05-4.95 0-7.56-2.36-7.9-7.33 0-4.61 3.19-7.56 9.45-8.74 4.61-.94 8.85-2.25 12.51-3.77v5.78Zm38.71-6.83c0-9.08 4.37-13.69 13.11-13.69h5.31v-16.28h-2.25c-20.89 0-31.64 10.02-32.11 30.23v32.22h15.94zm53.6 33.87c15.34 0 23.84-7.33 27.27-20.55h-11.57c-2.12 0-3.9.71-5.31 2.25-3.06 2.96-6.49 4.48-10.16 4.48-7.67 0-11.8-4.84-12.41-14.4h40.39c1.18-24.45-8.14-36.59-27.98-36.59-19 .13-28.58 10.73-28.58 31.98s9.45 32.22 28.35 32.82Zm0-51.95c6.73 0 10.63 4.24 11.57 12.51h-23.5c1.18-8.27 5.18-12.51 11.93-12.51" class="cls-2" style="fill:#fff" transform="translate(-302.35 -165.73)"/></svg>