<svg xmlns="http://www.w3.org/2000/svg" viewBox="0 0 1260 1260"><path fill="#323a46" d="M0 90Q0 0 90 0h1080q90 0 90 90v810q0 90-90 90H360L0 1260Z"/><path fill="#cd2c24" d="M0 90Q0 0 90 0h90v270a90 90 0 1 1-180 0ZM360 0h180v270a90 90 0 1 1-180 0Zm360 0h180v270a90 90 0 1 1-180 0Zm360 0h90q90 0 90 90v180a90 90 0 1 1-180 0Z"/><path fill="#f5e5c0" d="M180 0h180v270a90 90 0 1 1-180 0Zm360 0h180v270a90 90 0 1 1-180 0Zm360 0h180v270a90 90 0 1 1-180 0Z"/><path fill="none" stroke="#fff" stroke-linecap="round" stroke-width="55" d="M130 924V532"/><circle cx="260.5" cy="662.5" r="130.5" fill="none" stroke="#fff" stroke-linecap="round" stroke-width="55"/><circle cx="630" cy="662" r="131" fill="none" stroke="#fff" stroke-linecap="round" stroke-width="55"/><path fill="none" stroke="#fff" stroke-linecap="round" stroke-width="55" d="M1131 566c-22-13-65-35-130-35q-131 0-131 65t131 66 130 65-130 65c-66 0-109-22-131-35"/></svg>
