<svg xmlns="http://www.w3.org/2000/svg" fill="none" viewBox="0 0 50 50"><g style="mix-blend-mode:multiply"><path fill="#000" d="M50 0H0v50h50z"/><path fill="#fff" d="M36.2 35.8q1.3 2.4 3.7 2.5v1.8h-8.7l-8.1-13.6h-2v9c0 2.3.5 2.6 3 2.8v1.8h-13v-1.8c2.5-.2 3-.5 3-2.9V15.6c0-2.5-.5-2.8-3-3V11h13.4c8.2 0 12.4 1.7 12.4 7.7 0 4.5-2.2 6.7-6.7 7.5zm-14-22q-1 0-1.1 1.2v8.7h3.3c3.5 0 5.6-1.3 5.6-5.1 0-3.9-2.1-4.9-5.5-4.9z"/><path fill="#fff" d="M31.3 12H18.7v12h12.6z"/><path fill="#000" d="M29.7 14c-.7 1.3.4 7.3.4 7.3a1 1 0 0 1-.5.6S23 22 21 23.7"/></g></svg>
