<svg xmlns="http://www.w3.org/2000/svg" viewBox="6 0 488 274"><defs><linearGradient id="a" x1="624.3" x2="499.2" y1="428.4" y2="356.3" gradientTransform="matrix(1 0 0 -1 0 652)" gradientUnits="userSpaceOnUse"><stop offset="0" stop-color="#00ffae"/><stop offset="1" stop-color="#00deff"/></linearGradient><linearGradient id="b" x1="616.1" x2="491.1" y1="442.6" y2="370.4" gradientTransform="matrix(1 0 0 -1 0 652)" href="#a"/><linearGradient id="c" x1="595.1" x2="470" y1="479.1" y2="406.9" href="#a"/></defs><g transform="translate(-302 -166)"><path fill="url(#a)" d="m606 241-32 56-22-40-22 40-32-58c-7-13-27-8-27 7a81 81 0 0 0 161 3v-1c1-14-19-20-26-7" class="cls-1"/><circle cx="616.8" cy="209.1" r="9.7" fill="url(#b)" class="cls-5"/><path fill="url(#c)" d="m590 231-16 29-19-35-4-6-14-26-5-9h-20l20 37 5 9 5 9-12 21-4-8-48-86h75c33 0 53 36 37 65" class="cls-4"/></g><path fill="#fff" d="m44 273 13-62 12 62h16l23-81H98q-7 0-9 7l-12 50-11-57H48l-12 57-13-57H6l22 81zm91 1q22 0 27-20h-12q-3 0-5 2-4 4-10 4-12 0-13-14h41q2-37-28-37-29 0-29 32c0 32 10 33 29 33m0-52q9 0 11 13h-23q2-13 12-13m64 52q30-1 29-32c-1-31-8-32-24-33q-12 0-18 10v-19q0-8-8-8h-8v54q0 28 29 28m0-51q13 0 13 18 0 19-13 19c-13 0-13-6-13-19q1-18 13-18m75 50 13-62 12 62h16l23-81h-10q-7 1-9 7l-12 50-11-57h-18l-12 57-13-57h-17l22 81zm79-46q1-5 9-5 10 0 11 5 0 6-11 7c-15 1-26 5-27 20q2 21 26 20 26-1 27-26v-21q0-18-26-18-22 0-25 18zm20 20q-1 14-14 14-8 0-8-7t9-9l13-4zm38-7q0-13 14-13h5v-17h-2q-32 0-32 31v32h15zm54 34q23 0 27-20h-11q-3 0-6 2-4 4-10 4-11 0-12-14h40q2-37-28-37-28 0-28 32c0 32 9 33 28 33m0-52q11 0 12 13h-24q2-13 12-13" class="cls-2"/></svg>
