<svg xmlns="http://www.w3.org/2000/svg" width="256" height="256" preserveAspectRatio="xMidYMid"><path fill="#53B9FF" d="M39.863 54.115.31 93.716l60.995 61.179L0 216.385l39.428 39.62 61.43-61.508 61.097 61.068 39.552-39.602z"/><path fill="#119EFF" d="m140.517 154.896-39.658 39.601 61.097 61.069 39.552-39.602z"/><path fill-opacity=".2" d="m140.517 154.896-39.658 39.601 15.267 15.182z"/><path fill="#53B9FF" d="M194.57 100.985 256 39.478 216.43 0 155.02 61.384 93.917.31 54.365 39.913 216.01 201.761l39.552-39.602z"/><path fill="#119EFF" d="m115.36 100.987 39.659-39.602L93.917.313 54.365 39.914z"/><path fill-opacity=".2" d="m115.359 100.985 39.659-39.601-15.27-15.186z"/></svg>