<svg xmlns="http://www.w3.org/2000/svg" xmlns:xlink="http://www.w3.org/1999/xlink" xml:space="preserve" width="289.598" height="293.201"><defs><clipPath id="b"><use xlink:href="#a" width="289.598" height="293.201" style="overflow:visible"/></clipPath><path id="a" d="M-275.786-151.084h841.89v595.28h-841.89z"/></defs><path d="M59.298 218.992c-11.214 0-16.476 7.621-16.476 19.343 0 11.322 5.262 19.161 16.476 19.161 11.177 0 16.44-7.839 16.44-19.161 0-11.722-5.263-19.343-16.44-19.343m0 33.423c-7.258 0-9.69-5.808-9.69-14.153 0-9.036 2.432-14.117 9.69-14.117 7.149 0 9.689 5.081 9.689 14.117 0 8.345-2.431 14.153-9.689 14.153M115.802 219.428h-6.714v29.54c-.834.652-1.815 1.231-2.903 1.742-1.852.867-4.427 1.704-7.476 1.704-5.371 0-7.04-3.302-7.04-11.721v-21.266h-6.678v21.52c0 11.359 3.738 16.548 12.158 16.548 4.101 0 7.288-1.209 9.508-2.468 1.3-.737 2.431-1.56 3.375-2.467l.907 4.681 4.863-.398zM125.347 238.479c0 14.225 8.056 19.121 16.04 19.016 3.085-.041 5.729-.453 7.585-.979 1.084-.308 2.069-.617 2.94-1.017l.579-4.827c-.942.327-1.96.614-3.084.871a35.7 35.7 0 0 1-7.222.871c-6.497.103-9.962-4.282-9.98-14.044-.019-10.125 3.484-14.263 9.98-14.263 2.758 0 5.297.476 7.186.908a30 30 0 0 1 3.085.906l-.544-4.898c-.871-.399-1.857-.706-2.977-1.018-1.893-.523-4.537-1.015-7.73-1.015-7.838 0-15.858 4.499-15.858 19.489M161.165 257.496h6.714v-28.852c1.742-.58 6.314-3.883 10.814-3.883 4.354 0 6.714 2.468 6.714 12.339v20.396h6.714v-20.904c0-12.192-3.266-16.947-11.722-16.947-4.899 0-8.565 1.198-12.521 4.282v-18.581l-6.713.654zM235.814 209.593c-4.559-3.502-10.415-4.247-16.585-4.247h-14.951v52.15h16.584c18.146 0 22.465-10.742 22.465-27.146 0-11.358-3-17.291-7.513-20.757m-17.237 42.677h-7.331v-41.661h9.87c12.013 0 15.404 6.532 15.388 20.032-.021 16.73-3.774 21.629-17.927 21.629M283.719 231.185c-1.709-.974-3.665-1.523-5.879-1.704 2.758-.291 9.29-2.795 9.29-10.452 0-9.871-4.899-13.683-18.399-13.683h-14.335v52.15h17.093c12.085 0 18.109-4.646 18.109-15.062 0-6.494-2.944-9.574-5.879-11.249m-22.754-20.576h6.858c9.11 0 12.793 1.523 12.774 8.129-.017 5.696-2.867 8.818-11.178 8.818h-8.455v-16.947zm8.782 41.661h-8.782v-20.104h8.673c9.291 0 13.5 2.178 13.5 10.198 0 8.382-4.536 9.906-13.391 9.906M20.794 257.496c4.246 0 7.84-.577 10.415-1.198 1.489-.358 2.831-.762 4.029-1.234l.617-5.66c-1.271.472-2.655.887-4.138 1.306-2.619.742-6.096 1.286-10.125 1.307-9.653.052-14.353-6.206-14.407-21.846-.055-16.114 5.733-21.152 15.097-21.231 3.738-.03 7.119.557 9.581 1.125 1.457.339 2.794.764 3.992 1.198l-.581-5.625c-1.161-.398-2.467-.729-3.92-1.052a46 46 0 0 0-9.834-1.089c-12.375 0-21.544 6.604-21.52 26.746.012 10.415 2.322 17.383 6.06 21.593 3.738 4.208 8.891 5.66 14.734 5.66" clip-path="url(#b)" style="fill:#444"/><path d="M213.361 270.927c-2.085 0-4.108.949-5.698 2.601l-.722-2.601-2.663.207v21.324h3.819v-16.494a10 10 0 0 1 1.548-.95c.972-.472 2.312-.97 3.881-.97.661 0 1.053.083 1.28.145l.289.145.454-2.952a6 6 0 0 0-.682-.228c-.412-.103-.949-.227-1.506-.227M235.471 278.275c-.09-3.777-2.663-7.38-7.865-7.349-5.244.031-9.228 3.324-9.228 11.188 0 7.122 3.364 10.715 10.032 10.715 1.672 0 3.098-.246 4.149-.496.599-.143 1.156-.31 1.652-.495l.392-2.767a22.677 22.677 0 0 1-5.925.867c-3.819.044-6.358-1.774-6.358-6.977v-.743h12.82c.082-.269.135-.93.206-1.652.074-.744.138-1.712.125-2.291m-3.304 1.116a5 5 0 0 0-.021.516h-9.764c.165-2.478.846-3.922 1.816-4.851s2.188-1.301 3.488-1.301c2.54 0 4.403 1.485 4.501 4.996.006.186.007.413-.02.64M240.734 263.536v29.293h3.798v-29.665zM266.952 290.229c-.352-.146-.455-.661-.455-1.651v-8.361c0-6.688-1.589-9.125-8.278-9.125-2.063 0-3.692.336-4.851.661-.68.191-1.28.413-1.796.641l-.413 2.87a18 18 0 0 1 2.127-.641c1.3-.313 2.931-.619 4.644-.619 3.53 0 4.77.681 4.77 5.078v2.332l-1.135-.165c-.719-.104-1.652-.144-2.622-.144-4.789 0-9.455 1.114-9.455 6.048 0 3.737 2.539 6.084 6.296 6.049 2.746-.027 4.519-.664 5.657-1.384.657-.416 1.176-.887 1.548-1.403 0 .33.227 1.218.723 1.775.495.557 1.259 1.012 2.395 1.012.66 0 1.241-.071 1.651-.186l.66-.187.27-2.519c-.58.001-1.344.082-1.736-.081m-4.253-1.611c-.476.351-1.015.633-1.61.908-1.015.468-2.457.888-4.19.888-2.498 0-3.923-.991-3.923-3.117 0-3.612 4.15-3.89 6.586-3.818l2.126.062 1.012.062zM285.324 292.829h4.274l-7.102-10.59 7.102-10.693h-4.046l-5.161 8.547-5.203-8.547h-4.004l7.059 10.693-7.059 10.59h4.231l4.976-8.299z" clip-path="url(#b)" style="fill:#777"/><path d="M235.298 126.699c0 12.001-6.323 17.882-18.1 18.09v.01H72.399v-.01c-11.777-.208-18.1-6.089-18.1-18.09s6.323-17.882 18.1-18.09v-.01h144.799v.01c11.777.208 18.1 6.089 18.1 18.09m-18.1 27.159v-.01H72.399v.01c-11.777.208-18.1 6.09-18.1 18.091s6.323 17.882 18.1 18.09v.01h144.799v-.01c11.776-.208 18.1-6.089 18.1-18.09s-6.323-17.883-18.1-18.091m45.25-99.538v-.01c-11.777.208-18.101 6.089-18.101 18.09v99.549c0 12.001 6.323 17.882 18.101 18.09v-.021c17.665-.623 27.149-18.266 27.149-54.27V90.5c.001-24.002-9.484-35.764-27.149-36.18M27.15 54.31v.01C9.484 54.736 0 66.497 0 90.5v45.249c0 36.004 9.484 53.646 27.15 54.27v.021c11.777-.208 18.099-6.089 18.099-18.09V72.4c0-12.001-6.322-17.882-18.099-18.09m235.298-9.06c0-30.003-15.808-44.705-45.25-45.225V0H72.399v.025C42.957.545 27.15 15.247 27.15 45.25v.015c17.665.312 27.149 9.133 27.149 27.135 0 18.001 9.485 26.823 27.15 27.135v.015h126.699v-.015c17.666-.312 27.15-9.134 27.15-27.135s9.484-26.823 27.15-27.135z" clip-path="url(#b)" style="fill:#e42528"/></svg>