<svg xmlns="http://www.w3.org/2000/svg" width="800" height="800" viewBox="0 0 32 32"><path d="M14.74.011c-.073.005-.313.031-.532.052-3.072.323-6.104 1.625-8.577 3.692A22 22 0 0 0 3.76 5.631C1.713 8.074.516 10.818.079 14.063c-.1.724-.1 3.151 0 3.875.437 3.245 1.635 5.989 3.681 8.432a22 22 0 0 0 1.871 1.876c2.448 2.047 5.187 3.239 8.437 3.681.719.1 3.151.1 3.869 0 3.245-.443 5.989-1.64 8.432-3.681a21 21 0 0 0 1.876-1.876c2.047-2.443 3.239-5.187 3.681-8.432.1-.724.1-3.151 0-3.875-.443-3.245-1.635-5.989-3.681-8.432a21 21 0 0 0-1.876-1.876C23.932 1.719 21.161.506 17.964.079c-.349-.048-.849-.068-1.787-.073q-.721-.016-1.432 0zm.197 1.697c0 .459.032 1.459.073 2.407.025.464.052 1.131.063 1.479.047 1.224.177 4.448.192 4.735l.021.287-.177-.021a.6.6 0 0 1-.203-.041 4 4 0 0 1-.052-.604q-.18-3.818-.328-7.631l-.027-.875.115-.016c.057-.011.156-.02.219-.025h.104zm3.766-.093c.005.005.016 1.192.032 2.64.015 1.448.031 2.756.047 2.896.011.147.005.271-.016.276a.5.5 0 0 1-.213 0l-.177-.015-.031-1.147-.041-1.563c-.032-.692-.057-3.057-.037-3.119.016-.043.057-.048.224-.016.115.02.208.041.213.047zM9.599 2.932c.027.037.208 2.204.437 5.041l.161 1.953c.021.204.016.209-.109.287a.6.6 0 0 1-.156.084c-.011 0-.036-.104-.047-.229-.057-.516-.265-2.985-.416-4.771-.089-1.052-.167-1.991-.177-2.095-.021-.172-.016-.187.083-.244.131-.063.199-.079.224-.027zm10.833.792c.115.036.125.057.147.281.041.396.031 2.276-.016 2.276-.115 0-.349-.136-.369-.208a19 19 0 0 1-.021-1.24c0-1.281-.016-1.203.26-1.109zm-7.265.183c0 .109.027.692.057 1.312l.083 1.74c.032.687.037.661-.228.677-.125.004-.125.004-.136-.193-.011-.109-.025-.453-.052-.765-.021-.317-.068-1-.099-1.516a29 29 0 0 0-.084-1.145c-.02-.199-.015-.204.089-.245a.8.8 0 0 1 .244-.041c.125-.005.125-.005.125.183zm10.916.541.131.052.032.527c.009.285.02.911.009 1.38l-.009.853-.167-.077-.167-.084-.011-1.301c-.005-.724-.005-1.333.005-1.36.015-.057.015-.057.176.011zm-7.187.516c.025.02.077 1.932.083 2.9l.005.584-.187-.032c-.063-.004-.131-.015-.199-.025-.011-.011-.125-2.927-.125-3.208v-.292l.199.027q.115.006.224.047zm9.063.276c.047.057.057.916.068 5.672.009 5.457.009 5.599-.057 5.599a.27.27 0 0 1-.141-.047c-.057-.048-.063-.521-.083-5.183a493 493 0 0 0-.048-5.703l-.025-.568.115.083c.068.047.14.115.177.147zm-3.527.807c.021.021.037.245.041.5.021.869.021 6.199.005 6.213-.009.011-.077-.011-.161-.041l-.14-.057V5.97l.115.02c.057.021.12.041.14.063zm-10.864.224c.016.104.031.344.047.541l.063.975c.041.692.036.74-.188.74-.12 0-.135-.016-.151-.131-.036-.235-.177-2.167-.156-2.203a1 1 0 0 1 .317-.105c.027-.005.057.079.068.183m-6.505 1 .192 1.943c.063.647.12 1.199.12 1.224 0 .047-.301.199-.333.161a121 121 0 0 1-.411-3.656c0-.093.301-.495.339-.448.015.005.052.36.093.776m15.426.417.115.061.005.855c.005.464.011.984.011 1.151.011.355-.036.417-.251.339l-.119-.041v-.339c0-.187-.011-.735-.027-1.219l-.027-.875h.095a.6.6 0 0 1 .197.068zM6.787 9.213l.26 2.833.136 1.453-.156.156-.147.151-.031-.312c-.016-.172-.095-.973-.177-1.787-.084-.807-.199-1.984-.26-2.609l-.109-1.135.156-.141c.135-.129.151-.135.177-.063.015.043.083.693.151 1.453zm-2.948.475c.088.776.317 2.839.516 4.583.192 1.74.38 3.423.416 3.74.032.312.084.787.115 1.063.057.457.057.489-.005.536-.093.073-.135.063-.135-.021 0-.036-.037-.333-.079-.656-.068-.536-.188-1.453-.453-3.505-.052-.411-.161-1.233-.235-1.828a455 455 0 0 1-.489-3.828c-.073-.536-.115-1.011-.104-1.063.027-.109.26-.473.287-.453.005.011.083.657.172 1.433zm-1.203 1.697.244 1.921c.073.579.167 1.308.213 1.611l.073.552-.084.072c-.047.037-.093.052-.109.037-.015-.011-.047-.172-.072-.344-.021-.172-.167-1.188-.323-2.245l-.281-1.927.088-.265q.04-.142.109-.267c.021 0 .079.387.141.855zm21.604-.516c.057.052.063.297.063 2.104v2.043h-.109c-.24 0-.235.063-.256-2.172l-.011-2.037h.125c.068 0 .156.027.188.063zm-8.615.704c.891.135 1.667.38 2.432.776.495.255.735.432 1.287.957.817.781 1.317 1.469 1.792 2.439.687 1.405.957 2.656 1.296 6 .152 1.5.355 4.219.396 5.333.011.323.041.853.063 1.176.041.693.093.6-.516.896-.848.412-1.661.693-2.735.953-1.317.323-2.167.427-3.463.432l-.943.005.005-.453c0-.249.025-.828.047-1.281.12-2.187.093-4.957-.057-6.489-.089-.885-.256-1.953-.349-2.187-.02-.052.068-.1.459-.229.713-.251 1.333-.557 1.421-.713.172-.292-.129-.709-.515-.709-.068 0-.272.073-.453.157-.88.4-2.652.88-3.667.984-.855.073-1.713.036-2.557-.104-.417-.079-1.156-.355-1.771-.672-.715-.371-1.152-.865-1.281-1.448-.068-.313-.052-.943.041-1.297.099-.391.369-.959.625-1.287 1.12-1.473 3.437-2.755 5.807-3.203a8.8 8.8 0 0 1 2.636-.036m12.14.124c.141.057.156.073.156.209.011 1.072-.015 3.525-.036 3.629 0 .037-.203.043-.292.005-.057-.015-.063-.229-.063-1.963 0-1.245.016-1.948.043-1.948.015 0 .109.031.192.063zm1.719 2.158.141.063-.027 3.255c-.031 4.151-.036 4.276-.187 4.635-.24.584-.229.704-.209-1.869.011-1.287.032-2.588.037-2.896.011-.301.015-1.156.02-1.901 0-.895.011-1.343.043-1.343.02 0 .104.025.181.057zm-23.667.984c.027.317.021.349-.099.599l-.125.271-.047-.396c-.073-.629-.073-.656.079-.749.068-.047.135-.079.145-.073.016.011.036.167.047.349zm-2.432 2.369c.036.323.312 2.464.453 3.516.213 1.625.229 1.86.135 1.76a20 20 0 0 1-.197-1.219c-.615-4.239-.609-4.213-.557-4.244.104-.073.141-.032.167.187zm2.834 1.803c.027.099.141 1.167.141 1.296 0 .109-.141.209-.204.147-.02-.021-.073-.355-.115-.74l-.093-.901-.027-.197.136.156q.1.108.161.24zm3.177 1.484c.041.041.073.199.109.62.057.771.068.708-.093.708-.167 0-.161.016-.219-.683-.053-.703-.053-.692.052-.692.052 0 .119.021.151.047m3.12.057c.005.041.025.276.041.527.011.244.047.807.079 1.239.109 1.589.113 1.792.047 1.792-.079 0-.084-.063-.172-1.183a59 59 0 0 0-.131-1.624c-.031-.428-.057-.787-.041-.792.041-.047.156-.016.177.041m-7.401.755c.025.037.177 1.297.359 3.016.057.521.111 1.021.12 1.115l.021.167-.099-.063a.2.2 0 0 1-.1-.192c0-.245-.171-1.88-.301-2.88a31 31 0 0 1-.131-1.109c0-.084.095-.115.131-.048zm22.708 1.646-.025 1.645-.1.147c-.224.333-.213.395-.203-1.448l.011-1.688.145-.151a1 1 0 0 1 .172-.147c.016 0 .016.74 0 1.647zm-3.635 2.61c.015 2.287.015 2.464-.048 2.536-.041.041-.077.068-.088.057-.025-.031-.068-5.016-.036-5.047.015-.016.057-.021.088-.021.052.016.068.292.084 2.475m-12.855-1.568c.027.245.125 1.417.167 1.969.021.364.021.38-.063.405-.047.016-.104.011-.12-.005-.025-.031-.115-.9-.219-2.249l-.031-.323h.125c.113 0 .119.011.14.203zm-3.093 1.38c.025.027.047.125.047.224 0 .104.047.636.099 1.183.151 1.511.161 1.713.093 1.672-.104-.057-.192-.147-.172-.172q-.001-.218-.041-.437a21 21 0 0 1-.077-.828 26 26 0 0 0-.084-.923c-.073-.687-.068-.771.016-.771.041 0 .093.021.12.047zm1.859 2.646c.016.088.037.411.052.719.032.588.016.629-.145.511-.047-.037-.079-.183-.125-.631-.083-.813-.083-.781.068-.765.115.009.131.025.151.167zM8.697 13.459c-.411.177-.443.735-.057.927.281.145.563.079.709-.167.281-.437-.177-.973-.652-.76m2.667.38a.604.604 0 0 0 0 1.021c.376.223.855-.073.855-.521 0-.432-.495-.724-.855-.505z"/></svg>