<svg xmlns="http://www.w3.org/2000/svg" width="400" height="400"><g fill-rule="evenodd"><path fill="#ebcb4b" d="M199.716 15.537c-.459.792-14.263 24.89-30.675 53.55s-29.874 52.144-29.915 52.187-31.085 8.423-68.984 18.622c-37.9 10.199-68.941 18.576-68.981 18.615-.039.04 19.045 21.902 42.409 48.584l42.481 48.512-4.15 61.892c-2.282 34.041-4.212 62.651-4.289 63.579-.13 1.577-.114 1.679.259 1.578.22-.06 28.557-12.004 62.973-26.544 34.415-14.539 62.669-26.431 62.787-26.427.117.005 27.641 12.658 61.164 28.118s60.972 28.083 60.998 28.052-2.331-29.356-5.237-65.167l-5.284-65.11 41.72-49.252c22.946-27.088 41.722-49.305 41.723-49.37.002-.065-28.611-6.113-63.584-13.44l-63.588-13.321-35.429-58.05c-19.485-31.928-35.458-58.05-35.495-58.05s-.443.649-.903 1.442m31.569 80.512c16.468 26.986 30.004 49.129 30.081 49.206s24.165 5.164 53.53 11.304 53.455 11.218 53.533 11.285-15.61 18.718-34.865 41.446l-35.008 41.324.11.854c.269 2.082 8.66 106.849 8.604 107.43l-.062.649-38.009-17.52c-42.222-19.463-39.72-18.188-41.091-20.935-1.118-2.239-1.101-1.85-.953-20.825.164-20.99.009-23.078-2.079-27.983-1.086-2.552-3.531-6.159-4.401-6.493-.624-.24-.033-.496 1.477-.642 25.466-2.454 40.206-15.414 43.509-38.253 2.247-15.541-.432-27.429-8.284-36.754l-1.288-1.529.531-1.568c2.204-6.503 1.745-16.55-1.092-23.884l-.454-1.175-2.096-.061c-5.739-.169-13.611 2.827-22.863 8.7l-2.689 1.707-2.501-.621c-14.415-3.583-31.014-3.596-45.418-.036l-2.554.631-3.105-1.947c-8.618-5.404-15.766-8.199-21.549-8.425-3.325-.13-2.953-.386-3.961 2.722-2.458 7.573-2.697 15.724-.651 22.2l.548 1.733-1.33 1.648c-6.593 8.172-9.176 16.292-8.88 27.916.681 26.768 12.963 41.517 38.483 46.213 1.961.36 6.846 1.09 7.3 1.09.071 0-.357.515-.952 1.144-2.46 2.602-4.203 6.27-5.083 10.699l-.356 1.795-.988.421c-12.072 5.135-22.583 1.564-29.096-9.885-2.786-4.899-9.74-8.479-14.832-7.635-3.984.66-3.487 2.583 1.564 6.056 4.105 2.822 7.148 6.249 8.819 9.932 3.828 8.441 8.964 12.653 17.714 14.527 2.782.596 10.272.542 13.809-.101 1.428-.259 2.656-.471 2.729-.471s.105 6.175.072 13.721l-.059 13.722-.503 1.248c-.612 1.517-1.938 3.183-3.24 4.072-.97.661-77.664 33.152-77.84 32.976-.051-.052 1.485-23.585 3.414-52.297s3.537-52.876 3.572-53.698l.064-1.495-35.915-41.004c-19.754-22.552-35.927-41.093-35.942-41.201-.015-.109 26.847-7.429 59.692-16.267s59.749-16.1 59.788-16.139 11.476-19.989 25.417-44.332 25.424-44.261 25.518-44.261c.093 0 13.643 22.08 30.111 49.066"/><path fill="#cc9434" d="m175.684 91.475-25.36 44.277-59.412 15.98c-32.676 8.788-59.577 16.037-59.78 16.109-.287.102 7.528 9.147 35.675 41.291 33.658 38.437 36.039 41.207 35.978 41.855-.283 2.995-7.115 106.367-7.035 106.447.23.23 76.827-32.288 77.826-33.04 3.435-2.585 3.466-2.756 3.466-18.945v-13.353l-.801.139c-4.496.781-5.291.854-9.343.851-11.575-.008-19.662-4.836-23.707-14.155-1.863-4.294-4.933-7.869-9.355-10.898-5.099-3.491-5.492-5.502-1.211-6.191 5.503-.886 11.709 2.58 15.281 8.533 4.288 7.146 9.358 10.583 16.536 11.21 4.152.363 12.65-1.655 12.927-3.068 1.046-5.334 3.155-9.989 5.523-12.19.8-.744.776-.76-1.632-1.053-28.529-3.472-42.521-18.65-43.439-47.121-.379-11.745 2.325-19.756 9.781-28.984l.468-.579-.567-1.877c-2.05-6.779-1.799-14.427.727-22.196.96-2.951.844-2.851 3.329-2.851 5.753 0 14.384 3.388 23.191 9.103l2.121 1.376 3.236-.745c14.98-3.448 30.037-3.415 44.562.098l2.779.672 1.973-1.27c9.244-5.953 17.606-9.234 23.529-9.234 2.223 0 2.266.038 3.197 2.883 2.561 7.824 2.731 16.391.458 23.01l-.348 1.014 1.437 1.763c6.323 7.756 8.72 14.971 8.71 26.215-.026 29.468-13.994 45.028-43.719 48.702l-2.087.258 1.03 1.094c2.739 2.91 4.363 6.524 5.338 11.879.333 1.826.37 3.959.37 21.359v19.33l.71 1.445c.81 1.646 2.29 3.237 3.68 3.954 1.199.619 75.471 34.827 75.512 34.78.016-.02-1.928-24.157-4.321-53.639s-4.349-53.988-4.349-54.458c.002-.825 1.219-2.291 34.917-42.071 33.826-39.931 34.897-41.221 34.324-41.366-.325-.082-24.28-5.107-53.233-11.166-28.954-6.06-52.791-11.063-52.972-11.118s-13.821-22.203-30.31-49.218-30.041-49.119-30.115-49.119-11.547 19.925-25.495 44.278"/><path fill="#dcb444" d="M150.726 161.822c.503.046 1.272.045 1.709-.001s.026-.083-.913-.082-1.298.038-.796.083m101.228 0c.503.046 1.272.045 1.709-.001s.026-.083-.913-.082-1.298.038-.796.083m-54.784 7.258c.323.049.852.049 1.175 0s.059-.089-.587-.089-.911.04-.588.089m8.973 0c.324.049.805.048 1.068-.003.262-.051-.003-.091-.591-.089-.587.002-.802.043-.477.092m51.905 6.574c.001.705.041.967.089.583a5.7 5.7 0 0 0-.003-1.281c-.048-.321-.087-.007-.086.698m-111.914 1.388c0 .529.042.745.093.481.05-.265.05-.697 0-.961-.051-.265-.093-.048-.093.48m111.914 1.602c.001.705.041.967.089.583a5.7 5.7 0 0 0-.003-1.281c-.048-.321-.087-.007-.086.698m8.327 34.917c0 .646.04.91.089.587a4.7 4.7 0 0 0 0-1.174c-.049-.323-.089-.059-.089.587m-128.549 2.563c0 1.233.035 1.738.078 1.121.044-.617.044-1.626 0-2.242-.043-.617-.078-.112-.078 1.121m128.555 2.669c.001.823.039 1.133.086.69a8 8 0 0 0-.002-1.495c-.047-.379-.085-.017-.084.805m-128.367 2.777c.003.47.046.637.098.371.051-.266.049-.65-.005-.854-.053-.205-.095.013-.093.483m12.013 30.432c.458.47.882.854.941.854s-.269-.384-.728-.854-.882-.854-.941-.854.269.384.728.854m-47.468 0c0 .411.044.579.098.374a1.8 1.8 0 0 0 0-.748c-.054-.205-.098-.037-.098.374m196.263 2.563c0 .411.044.579.097.374a1.75 1.75 0 0 0 0-.748c-.053-.205-.097-.037-.097.374m-196.477.641c0 .411.044.579.098.373a1.74 1.74 0 0 0 0-.747c-.054-.206-.098-.038-.098.374m196.69 1.922c0 .411.044.579.098.373a1.74 1.74 0 0 0 0-.747c-.054-.206-.098-.038-.098.374m-196.903 1.281c0 .411.044.579.097.374a1.75 1.75 0 0 0 0-.748c-.053-.205-.097-.037-.097.374m-.209 3.097c.002.469.046.636.097.371.051-.266.049-.65-.005-.854-.053-.205-.095.013-.092.483m-.214 3.203c.002.47.046.637.097.371.051-.265.049-.65-.004-.854s-.095.013-.093.483m197.967.32c0 .411.044.58.097.374a1.74 1.74 0 0 0 0-.747c-.053-.206-.097-.038-.097.373m-79.165.413c-.068.109-.01.268.127.353.15.093.193.062.107-.077-.082-.133.062-.27.341-.324.48-.092.48-.093.016-.122-.258-.016-.523.06-.591.17m-119.016 2.47c.003.47.046.637.098.372.051-.266.049-.65-.005-.855-.053-.204-.095.014-.093.483m198.608 2.456c0 .411.044.58.098.374a1.8 1.8 0 0 0 0-.747c-.054-.206-.098-.038-.098.373m-198.821.748c.002.47.046.637.097.371s.049-.65-.004-.854-.096.013-.093.483m199.034 1.815c0 .411.044.579.098.374a1.75 1.75 0 0 0 0-.748c-.054-.205-.098-.037-.098.374m-199.248 1.388c.003.47.046.637.097.372.052-.266.05-.651-.004-.855-.053-.204-.095.013-.093.483m-.213 3.204c.002.47.046.637.097.371s.049-.65-.004-.854-.096.013-.093.483m199.889.747c0 .411.044.579.097.374a1.75 1.75 0 0 0 0-.748c-.053-.205-.097-.037-.097.374m-200.107 2.349c0 .411.044.58.098.374a1.8 1.8 0 0 0 0-.747c-.054-.206-.098-.038-.098.373m200.32.214c0 .411.044.579.098.374a1.75 1.75 0 0 0 0-.748c-.054-.205-.098-.037-.098.374m-200.534 2.99c0 .411.044.579.098.373a1.74 1.74 0 0 0 0-.747c-.054-.206-.098-.037-.098.374m200.961 2.349c0 .411.044.579.098.374a1.75 1.75 0 0 0 0-.748c-.054-.205-.098-.037-.098.374m-201.17.747c.002.47.046.637.097.372.051-.266.049-.65-.004-.855s-.095.014-.093.483m201.384 1.816c0 .411.044.579.098.373a1.8 1.8 0 0 0 0-.747c-.054-.206-.098-.037-.098.374M100 290.123c.003.47.047.637.098.371s.049-.65-.005-.854c-.053-.204-.095.013-.093.483m77.143 15.269c0 7.459.027 10.51.059 6.781.033-3.729.033-9.832 0-13.561-.032-3.729-.059-.678-.059 6.78m-77.356-12.066c.002.47.046.637.097.371.051-.265.049-.65-.004-.854s-.095.013-.093.483m66.21-.163c.561.044 1.426.044 1.922-.001s.036-.081-1.021-.08c-1.057 0-1.463.037-.901.081m136.028.911c0 .411.044.579.098.373a1.8 1.8 0 0 0 0-.747c-.054-.206-.098-.037-.098.374M99.573 296.53c.003.469.046.637.098.371.051-.266.049-.65-.005-.854-.053-.205-.095.013-.093.483m202.666.106c0 .412.043.58.097.374a1.74 1.74 0 0 0 0-.747c-.054-.206-.097-.038-.097.373M99.36 299.733c.002.47.046.637.097.371.051-.265.049-.65-.004-.854s-.096.013-.093.483m203.306 2.242c0 .412.044.58.097.374a1.74 1.74 0 0 0 0-.747c-.053-.206-.097-.038-.097.373m-203.52.961c.003.47.046.637.097.372.051-.266.05-.65-.004-.855-.053-.204-.095.014-.093.483m203.733 1.602c0 .411.044.579.098.374a1.75 1.75 0 0 0 0-.748c-.054-.205-.098-.037-.098.374m-203.951 1.495c0 .411.044.579.098.374a1.75 1.75 0 0 0 0-.748c-.054-.205-.098-.037-.098.374m128.182 5.873c0 3.524.029 4.995.065 3.27s.036-4.608 0-6.407c-.035-1.798-.065-.387-.065 3.137m-128.395-2.669c0 .411.044.579.097.373a1.74 1.74 0 0 0 0-.747c-.053-.206-.097-.038-.097.374m204.591.64c0 .411.044.579.098.374a1.75 1.75 0 0 0 0-.748c-.054-.205-.098-.037-.098.374m-204.8 2.456c.002.47.046.637.097.371.051-.265.049-.65-.005-.854-.053-.204-.095.013-.092.483m-.214 3.204c.002.469.046.636.097.371.051-.266.049-.65-.004-.854-.054-.205-.095.013-.093.483m205.655 2.242c0 .411.044.579.098.374a1.8 1.8 0 0 0 0-.748c-.054-.205-.098-.037-.098.374m-205.869.961c.003.47.047.637.098.371.051-.265.049-.65-.005-.854-.053-.204-.095.013-.093.483m-.213 3.203c.002.47.046.637.097.372.051-.266.049-.65-.004-.855s-.096.014-.093.483m-.214 3.204c.003.47.046.637.097.371s.05-.65-.004-.854c-.053-.204-.095.013-.093.483m206.937.534c0 .411.044.579.097.373a1.74 1.74 0 0 0 0-.747c-.053-.206-.097-.037-.097.374m-207.15 2.669c.002.47.046.637.097.371.051-.265.049-.65-.004-.854s-.096.013-.093.483m-.218 3.097c0 .411.044.579.098.374a1.8 1.8 0 0 0 0-.748c-.054-.205-.098-.037-.098.374m208.008 2.135c0 .412.044.58.098.374a1.74 1.74 0 0 0 0-.747c-.054-.206-.098-.038-.098.373M97.006 334.65c0 .411.044.58.098.374a1.74 1.74 0 0 0 0-.747c-.054-.206-.098-.038-.098.373m-.213 3.204c0 .411.044.579.097.373a1.74 1.74 0 0 0 0-.747c-.053-.206-.097-.037-.097.374m-.21 3.096c.003.47.047.637.098.372.051-.266.049-.65-.005-.855-.053-.204-.095.014-.093.483m209.286.534c0 .411.044.58.098.374a1.8 1.8 0 0 0 0-.747c-.054-.206-.098-.038-.098.373m-209.499 2.67c.002.47.046.637.097.371s.049-.65-.004-.854-.095.013-.093.483m-.214 3.203c.003.47.046.637.098.371.051-.265.049-.65-.005-.854-.053-.204-.095.013-.093.483m210.354 2.029c0 .411.044.579.097.374a1.75 1.75 0 0 0 0-.748c-.053-.205-.097-.037-.097.374m-210.567 1.175c.002.469.046.636.097.371.051-.266.049-.65-.004-.854-.054-.205-.096.013-.093.483m-.214 3.203c.003.47.046.637.097.371.052-.265.05-.65-.004-.854-.053-.204-.095.013-.093.483m-.213 3.203c.002.47.046.637.097.372.051-.266.049-.65-.004-.855s-.096.014-.093.483m211.634.321c0 .411.044.579.098.374a1.75 1.75 0 0 0 0-.748c-.054-.206-.098-.037-.098.374"/><path fill="#d4a43c" d="M201.442 168.869c.44.046 1.161.046 1.601 0 .441-.046.08-.084-.801-.084s-1.241.038-.8.084m-55.317 6.678c0 .411.044.58.098.374a1.74 1.74 0 0 0 0-.747c-.054-.206-.098-.038-.098.373m0 3.204c0 .411.044.579.098.373a1.74 1.74 0 0 0 0-.747c-.054-.206-.098-.037-.098.374m-8.324 40.256c.002.47.046.637.097.371.051-.265.049-.65-.004-.854s-.096.013-.093.483m89.524 70.689c0 4.111.029 5.762.064 3.67.035-2.093.035-5.456 0-7.475s-.064-.306-.064 3.805"/></g></svg>