<svg xmlns="http://www.w3.org/2000/svg" width="256" height="256" preserveAspectRatio="xMidYMid"><path fill="#4E8EF7" d="M234.651 39.322c0 4.502-1.668 8.608-4.406 11.76C246.406 72.512 256 99.155 256 128.001c0 70.578-57.42 128-128 128-70.579 0-128-57.422-128-128C0 57.42 57.42 0 128 0c28.845 0 55.487 9.594 76.917 25.756 3.155-2.738 7.257-4.405 11.761-4.405 9.924 0 17.973 8.044 17.973 17.97M128 251.695c68.206 0 123.694-55.491 123.691-123.697 0-27.736-9.175-53.362-24.648-74.016a17.87 17.87 0 0 1-10.366 3.307c-9.924 0-17.97-8.044-17.97-17.969 0-3.865 1.23-7.437 3.306-10.368-20.654-15.473-46.28-24.648-74.013-24.648-68.204 0-123.695 55.491-123.695 123.695 0 68.205 55.491 123.696 123.695 123.696m.002-71.435c-28.863 0-52.261-23.398-52.261-52.26 0-28.864 23.398-52.262 52.26-52.262 28.864 0 52.262 23.398 52.262 52.261S156.864 180.26 128 180.26"/></svg>