<svg xmlns="http://www.w3.org/2000/svg" width="120" height="257" fill="none"><path fill="#00ED64" d="M82.323 28.55C71.537 15.795 62.249 2.84 60.35.15c-.2-.2-.5-.2-.7 0-1.897 2.69-11.185 15.645-21.971 28.4C-54.902 146.238 52.26 225.661 52.26 225.661l.9.597c.798 12.258 2.795 29.896 2.795 29.896h7.99s1.998-17.539 2.797-29.896l.899-.697c.1 0 107.263-79.323 14.68-197.01M59.95 223.867s-4.793-4.086-6.092-6.179v-.199l5.793-128.151c0-.4.6-.4.6 0l5.792 128.151v.199c-1.299 2.093-6.093 6.179-6.093 6.179"/></svg>