<svg xmlns="http://www.w3.org/2000/svg" width="1102" height="278" fill="none"><path fill="#001E2B" d="M82.323 28.644C71.537 15.847 62.249 2.85 60.35.15c-.2-.2-.5-.2-.7 0-1.897 2.7-11.185 15.697-21.971 28.494C-54.902 146.721 52.26 226.406 52.26 226.406l.9.6C53.958 239.303 55.955 257 55.955 257h7.99s1.998-17.597 2.797-29.994l.899-.7c.1.1 107.263-79.585 14.68-197.662M59.95 224.606s-4.793-4.099-6.092-6.198v-.201l5.793-128.574c0-.4.6-.4.6 0l5.792 128.574v.201c-1.299 2.099-6.093 6.198-6.093 6.198M260.501 198.369 215.845 89.301l-.1-.301h-34.744v7.331h5.607c1.702 0 3.304.703 4.506 1.909 1.201 1.205 1.802 2.812 1.802 4.519l-1.001 109.771c0 3.414-2.803 6.226-6.208 6.327l-5.707.1v7.231h33.843v-7.231l-3.505-.1c-3.404-.101-6.208-2.913-6.208-6.327V109.086l48.662 117.102c.7 1.707 2.302 2.812 4.105 2.812 1.802 0 3.404-1.105 4.105-2.812l47.56-114.491.701 100.833c0 3.515-2.804 6.327-6.308 6.427h-3.605v7.231H339v-7.231h-5.407c-3.404 0-6.208-2.912-6.308-6.327l-.3-109.771c0-3.515 2.803-6.327 6.208-6.427l5.807-.1V89h-33.843zM571.869 217.046c-1.105-1.106-1.707-2.615-1.707-4.426v-53.924c0-10.261-3.011-18.31-9.035-24.044-5.922-5.735-14.154-8.652-24.393-8.652-14.356 0-25.699 5.835-33.63 17.304-.1.201-.401.302-.702.302-.302 0-.502-.202-.502-.503l-3.715-14.387h-6.224L476 137.871v5.03h4.116c1.907 0 3.513.503 4.618 1.51 1.104 1.006 1.706 2.515 1.706 4.627v63.481c0 1.811-.602 3.32-1.706 4.427s-2.61 1.71-4.417 1.71h-4.016V226h36.741v-7.344h-4.015c-1.807 0-3.313-.604-4.417-1.71-1.104-1.107-1.707-2.616-1.707-4.427v-42.052c0-5.332 1.205-10.664 3.414-15.896 2.308-5.13 5.721-9.456 10.239-12.776 4.517-3.32 9.938-4.93 16.162-4.93 7.027 0 12.348 2.213 15.66 6.64 3.313 4.427 5.02 10.161 5.02 17.002v51.912c0 1.81-.603 3.319-1.707 4.426s-2.61 1.71-4.417 1.71h-4.015v7.344H580v-7.344h-4.015c-1.506.202-2.912-.402-4.116-1.509M907.546 97.212C897.39 91.804 886.039 89 873.792 89H826v7.31h4.68c1.792 0 3.385.702 4.978 2.304 1.494 1.502 2.29 3.205 2.29 5.007v107.758c0 1.802-.796 3.505-2.29 5.007s-3.186 2.303-4.978 2.303H826V226h47.792c12.247 0 23.598-2.804 33.754-8.212s18.42-13.42 24.394-23.634S941 171.621 941 157.6c0-14.02-3.086-26.238-9.06-36.553-6.074-10.415-14.239-18.327-24.394-23.835m14.238 60.188c0 12.819-2.29 23.634-6.771 32.347s-10.455 15.222-17.823 19.429c-7.367 4.206-15.532 6.309-24.294 6.309h-9.658c-1.792 0-3.385-.701-4.978-2.304-1.494-1.502-2.29-3.204-2.29-5.007V106.526c0-1.803.697-3.405 2.29-5.008 1.493-1.502 3.186-2.303 4.978-2.303h9.658c8.762 0 16.927 2.103 24.294 6.309s13.343 10.716 17.823 19.428c4.481 8.813 6.771 19.729 6.771 32.448M1053.97 164.711c-4.42-5.108-12.95-9.414-22.98-11.718 13.85-6.91 20.97-16.624 20.97-29.142 0-6.81-1.8-12.919-5.42-18.127-3.61-5.207-8.73-9.413-15.25-12.318-6.53-2.904-14.16-4.406-22.79-4.406h-54.098v7.31h4.316c1.806 0 3.412.702 5.018 2.304 1.506 1.502 2.309 3.205 2.309 5.007v107.758c0 1.802-.803 3.505-2.309 5.007-1.505 1.502-3.212 2.303-5.018 2.303H954V226h58.72c8.93 0 17.26-1.502 24.79-4.507s13.55-7.41 17.87-13.219c4.41-5.808 6.62-12.919 6.62-21.131-.1-8.813-2.71-16.324-8.03-22.432m-67.349 48.57c-1.506-1.502-2.309-3.204-2.309-5.007v-48.371h27.908c9.83 0 17.36 2.504 22.58 7.511q7.83 7.511 7.83 19.529c0 4.807-1.21 9.514-3.41 13.82-2.31 4.407-5.73 7.912-10.34 10.616-4.52 2.704-10.14 4.106-16.66 4.106h-20.581c-1.806 0-3.412-.701-5.018-2.204m-2.208-63.693v-42.962c0-1.803.702-3.405 2.308-5.008 1.506-1.502 3.212-2.303 5.019-2.303h13.25c9.53 0 16.56 2.404 20.98 7.01 4.41 4.707 6.62 10.716 6.62 18.127 0 7.611-2.11 13.72-6.22 18.326-4.12 4.507-10.34 6.81-18.57 6.81zM431.999 132.388c-7.67-4.192-16.236-6.388-25.499-6.388s-17.929 2.096-25.499 6.388c-7.67 4.191-13.746 10.279-18.228 17.964S356 167.02 356 177s2.291 18.963 6.773 26.648 10.558 13.773 18.228 17.965c7.67 4.191 16.236 6.387 25.499 6.387s17.929-2.096 25.499-6.387c7.67-4.192 13.746-10.28 18.228-17.965S457 186.98 457 177s-2.291-18.963-6.773-26.648-10.558-13.773-18.228-17.964M439.37 177c0 12.276-2.988 22.256-8.965 29.442-5.876 7.186-13.944 10.879-23.905 10.879s-18.029-3.693-23.905-10.879c-5.977-7.186-8.965-17.166-8.965-29.442s2.988-22.256 8.965-29.442c5.876-7.186 13.945-10.879 23.905-10.879s18.029 3.693 23.905 10.879c5.977 7.186 8.965 17.166 8.965 29.442M784.999 132.388c-7.67-4.192-16.236-6.388-25.499-6.388s-17.929 2.096-25.499 6.388c-7.67 4.191-13.746 10.279-18.228 17.964S709 167.02 709 177s2.291 18.963 6.773 26.648 10.558 13.773 18.228 17.965c7.67 4.191 16.236 6.387 25.499 6.387s17.929-2.096 25.499-6.387c7.67-4.192 13.746-10.28 18.228-17.965S810 186.98 810 177s-2.291-18.963-6.773-26.648-10.658-13.773-18.228-17.964M792.37 177c0 12.276-2.989 22.256-8.965 29.442-5.877 7.186-13.945 10.879-23.905 10.879s-18.029-3.693-23.905-10.879c-5.977-7.186-8.965-17.166-8.965-29.442 0-12.376 2.988-22.256 8.965-29.442 5.876-7.186 13.944-10.879 23.905-10.879s18.028 3.693 23.905 10.879 8.965 17.166 8.965 29.442M642.64 126q-12.038 0-21.969 5.113c-6.621 3.409-11.837 8.022-15.549 13.937-3.711 5.815-5.617 12.333-5.617 19.251 0 6.216 1.404 11.931 4.313 17.045 2.809 4.913 6.621 9.023 11.436 12.432l-14.345 19.452c-1.806 2.406-2.006 5.614-.702 8.221 1.404 2.707 4.012 4.312 7.022 4.312h4.113c-4.013 2.707-7.223 5.915-9.43 9.725-2.608 4.311-3.912 8.823-3.912 13.435 0 8.623 3.812 15.742 11.335 21.056 7.424 5.314 17.856 8.021 30.997 8.021 9.129 0 17.856-1.504 25.781-4.412 8.025-2.907 14.545-7.219 19.36-12.833 4.916-5.615 7.424-12.433 7.424-20.254 0-8.221-3.01-14.037-10.032-19.651-6.018-4.713-15.448-7.219-27.185-7.219h-40.125c-.1 0-.201-.101-.201-.101s-.1-.2 0-.3l10.433-14.037a37 37 0 0 0 7.724 2.606c2.407.502 5.116.702 8.125.702 8.427 0 16.051-1.704 22.671-5.113s11.938-8.021 15.75-13.937c3.811-5.815 5.717-12.332 5.717-19.25 0-7.42-3.611-20.956-13.442-27.874 0-.1.101-.1.101-.1L694 138.633v-9.926h-34.508c-5.417-1.704-11.034-2.707-16.852-2.707m12.037 62.765c-3.812 2.005-7.925 3.108-12.037 3.108-6.721 0-12.64-2.406-17.656-7.118-5.015-4.713-7.523-11.631-7.523-20.454s2.508-15.742 7.523-20.454c5.016-4.712 10.935-7.119 17.656-7.119 4.213 0 8.225 1.003 12.037 3.108 3.812 2.006 6.922 5.114 9.43 9.225 2.407 4.111 3.711 9.224 3.711 15.24 0 6.116-1.204 11.229-3.711 15.24-2.408 4.111-5.618 7.219-9.43 9.224m-27.185 36.897h27.185c7.524 0 12.339 1.504 15.549 4.713s4.815 7.519 4.815 12.533c0 7.319-2.909 13.335-8.727 17.847s-13.643 6.818-23.273 6.818c-8.427 0-15.449-1.905-20.565-5.515s-7.724-9.124-7.724-16.142c0-4.412 1.204-8.523 3.612-12.132 2.407-3.61 5.316-6.217 9.128-8.122M1082.35 224.327c-1.98-1.083-3.47-2.658-4.66-4.528-1.09-1.968-1.69-4.035-1.69-6.299s.6-4.429 1.69-6.299c1.09-1.969 2.68-3.445 4.66-4.528 1.99-1.082 4.17-1.673 6.65-1.673s4.66.591 6.65 1.673c1.98 1.083 3.47 2.658 4.66 4.528 1.09 1.968 1.69 4.035 1.69 6.299s-.6 4.429-1.69 6.299c-1.09 1.969-2.68 3.445-4.66 4.528-1.99 1.082-4.17 1.673-6.65 1.673-2.38 0-4.66-.492-6.65-1.673m12.21-1.378c1.68-.886 2.88-2.264 3.87-3.839a11.8 11.8 0 0 0 1.39-5.61c0-2.067-.5-3.937-1.39-5.61a9.15 9.15 0 0 0-3.87-3.839c-1.69-.886-3.48-1.378-5.56-1.378s-3.87.492-5.56 1.378c-1.68.886-2.88 2.264-3.87 3.839a11.8 11.8 0 0 0-1.39 5.61c0 2.067.5 3.937 1.39 5.61a9.15 9.15 0 0 0 3.87 3.839c1.69.886 3.48 1.378 5.56 1.378s3.97-.492 5.56-1.378m-10.92-3.445v-.886l.2-.098h.6c.19 0 .39-.099.49-.197.2-.197.2-.295.2-.492v-9.154c0-.197-.1-.393-.2-.492-.2-.197-.3-.197-.49-.197h-.6l-.2-.098v-.886l.2-.098h5.16c1.49 0 2.58.295 3.47.984.9.689 1.29 1.575 1.29 2.756 0 .886-.29 1.771-.99 2.362-.69.689-1.49 1.083-2.48 1.181l1.19.394 2.28 3.641c.2.296.4.394.7.394h.59l.1.099v.885l-.1.099h-3.07l-.2-.099-3.18-5.315h-.79v3.544c0 .197.1.393.2.492.2.197.3.197.49.197h.6l.2.098v.886l-.2.098h-5.26zm5.06-6.496c.8 0 1.49-.197 1.89-.689.39-.394.69-1.083.69-1.87s-.2-1.378-.59-1.87c-.4-.492-1-.689-1.69-.689h-.4a.74.74 0 0 0-.49.197c-.2.196-.2.295-.2.492v4.429z"/></svg>