<svg version="1.2" xmlns="http://www.w3.org/2000/svg"
	preserveAspectRatio="none"
	viewBox="0 0.4 60 59.1"
>
	<style></style>
	<path fill-rule="evenodd" fill="white"
		d="m0.8 21.5h58.4c0.5 0.7 0.8 1.6 0.8 2.6v11.8c0 1-0.3 1.9-0.8 2.6h-58.4c-0.5-0.7-0.8-1.6-0.8-2.6v-11.8c0-1 0.3-1.9 0.8-2.6zm50.2 10c0 0.6 0.4 1 1 1 0.6 0 1-0.4 1-1 0-0.6-0.4-1-1-1-0.6 0-1 0.4-1 1zm-2-3c0 0.6 0.4 1 1 1 0.6 0 1-0.4 1-1 0-0.6-0.4-1-1-1-0.6 0-1 0.4-1 1zm-2 3c0 0.6 0.4 1 1 1 0.6 0 1-0.4 1-1 0-0.6-0.4-1-1-1-0.6 0-1 0.4-1 1zm-2-3c0 0.6 0.4 1 1 1 0.6 0 1-0.4 1-1 0-0.6-0.4-1-1-1-0.6 0-1 0.4-1 1zm-2 3c0 0.6 0.4 1 1 1 0.6 0 1-0.4 1-1 0-0.6-0.4-1-1-1-0.6 0-1 0.4-1 1zm-2-3c0 0.6 0.4 1 1 1 0.6 0 1-0.4 1-1 0-0.6-0.4-1-1-1-0.6 0-1 0.4-1 1zm-2 3c0 0.6 0.4 1 1 1 0.6 0 1-0.4 1-1 0-0.6-0.4-1-1-1-0.6 0-1 0.4-1 1zm-2-3c0 0.6 0.4 1 1 1 0.6 0 1-0.4 1-1 0-0.6-0.4-1-1-1-0.6 0-1 0.4-1 1zm-2 3c0 0.6 0.4 1 1 1 0.6 0 1-0.4 1-1 0-0.6-0.4-1-1-1-0.6 0-1 0.4-1 1zm-2-3c0 0.6 0.4 1 1 1 0.6 0 1-0.4 1-1 0-0.6-0.4-1-1-1-0.6 0-1 0.4-1 1zm-27 1.5c0 2.5 2 4.5 4.5 4.5 2.5 0 4.5-2 4.5-4.5 0-2.5-2-4.5-4.5-4.5-2.5 0-4.5 2-4.5 4.5z" />
	<path fill-rule="evenodd" fill="white"
		d="m0.8 19.5c-0.5-0.7-0.8-1.6-0.8-2.6v-11.8c0-2.5 2.1-4.6 4.6-4.6h50.8c2.5 0 4.6 2.1 4.6 4.6v11.8c0 1-0.3 1.9-0.8 2.6 0 0-58.4 0-58.4 0zm50.2-7c0 0.6 0.4 1 1 1 0.6 0 1-0.4 1-1 0-0.6-0.4-1-1-1-0.6 0-1 0.4-1 1zm-2-3c0 0.6 0.4 1 1 1 0.6 0 1-0.4 1-1 0-0.6-0.4-1-1-1-0.6 0-1 0.4-1 1zm-2 3c0 0.6 0.4 1 1 1 0.6 0 1-0.4 1-1 0-0.6-0.4-1-1-1-0.6 0-1 0.4-1 1zm-2-3c0 0.6 0.4 1 1 1 0.6 0 1-0.4 1-1 0-0.6-0.4-1-1-1-0.6 0-1 0.4-1 1zm-2 3c0 0.6 0.4 1 1 1 0.6 0 1-0.4 1-1 0-0.6-0.4-1-1-1-0.6 0-1 0.4-1 1zm-2-3c0 0.6 0.4 1 1 1 0.6 0 1-0.4 1-1 0-0.6-0.4-1-1-1-0.6 0-1 0.4-1 1zm-2 3c0 0.6 0.4 1 1 1 0.6 0 1-0.4 1-1 0-0.6-0.4-1-1-1-0.6 0-1 0.4-1 1zm-2-3c0 0.6 0.4 1 1 1 0.6 0 1-0.4 1-1 0-0.6-0.4-1-1-1-0.6 0-1 0.4-1 1zm-2 3c0 0.6 0.4 1 1 1 0.6 0 1-0.4 1-1 0-0.6-0.4-1-1-1-0.6 0-1 0.4-1 1zm-2-3c0 0.6 0.4 1 1 1 0.6 0 1-0.4 1-1 0-0.6-0.4-1-1-1-0.6 0-1 0.4-1 1zm-27 1.5c0 2.5 2 4.5 4.5 4.5 2.5 0 4.5-2 4.5-4.5 0-2.5-2-4.5-4.5-4.5-2.5 0-4.5 2-4.5 4.5z" />
	<path fill-rule="evenodd" fill="white"
		d="m59.2 40.5c0.5 0.7 0.8 1.6 0.8 2.6v11.8c0 2.5-2.1 4.6-4.6 4.6h-50.8c-2.5 0-4.6-2.1-4.6-4.6v-11.8c0-1 0.3-1.9 0.8-2.6zm-44.1 8.5c0-2.5-2-4.5-4.5-4.5-2.5 0-4.5 2-4.5 4.5 0 2.5 2 4.5 4.5 4.5 2.5 0 4.5-2 4.5-4.5zm20-1.5c0-0.6-0.5-1-1-1-0.6 0-1 0.4-1 1 0 0.6 0.4 1 1 1 0.5 0 1-0.4 1-1zm2 3c0-0.6-0.5-1-1-1-0.6 0-1 0.4-1 1 0 0.6 0.4 1 1 1 0.5 0 1-0.4 1-1zm2-3c0-0.6-0.5-1-1-1-0.6 0-1 0.4-1 1 0 0.6 0.4 1 1 1 0.5 0 1-0.4 1-1zm2 3c0-0.6-0.5-1-1-1-0.6 0-1 0.4-1 1 0 0.6 0.4 1 1 1 0.5 0 1-0.4 1-1zm2-3c0-0.6-0.5-1-1-1-0.6 0-1 0.4-1 1 0 0.6 0.4 1 1 1 0.5 0 1-0.4 1-1zm2 3c0-0.6-0.5-1-1-1-0.6 0-1 0.4-1 1 0 0.6 0.4 1 1 1 0.5 0 1-0.4 1-1zm2-3c0-0.6-0.5-1-1-1-0.6 0-1 0.4-1 1 0 0.6 0.4 1 1 1 0.5 0 1-0.4 1-1zm2 3c0-0.6-0.5-1-1-1-0.6 0-1 0.4-1 1 0 0.6 0.4 1 1 1 0.5 0 1-0.4 1-1zm2-3c0-0.6-0.5-1-1-1-0.6 0-1 0.4-1 1 0 0.6 0.4 1 1 1 0.5 0 1-0.4 1-1zm2 3c0-0.6-0.5-1-1-1-0.6 0-1 0.4-1 1 0 0.6 0.4 1 1 1 0.5 0 1-0.4 1-1z" />
	<path fill="white"
		d="m3 10l6 7 6 1 3-6c0.4-1.2-2-7-2-7-1.1-0.5-5-1-5-1l-6 2m-2 4l6 7 6 1 3-6c0.4-1.2-2-7-2-7-1.1-0.5-5-1-5-1l-6 2" />
	<path fill="white"
		d="m2 49l6 7 6 1 3-6c0.4-1.2-2-7-2-7-1.1-0.5-5-1-5-1l-6 2m-2 4l6 7 6 1 3-6c0.4-1.2-2-7-2-7-1.1-0.5-5-1-5-1l-6 2" />
	<path fill="white"
		d="m3 29l6 7 6 1 3-6c0.4-1.2-2-7-2-7-1.1-0.5-5-1-5-1l-6 2m-2 4l6 7 6 1 3-6c0.4-1.2-2-7-2-7-1.1-0.5-5-1-5-1l-6 2" />
</svg>
