<?xml version="1.0" encoding="UTF-8" standalone="no"?>
<!DOCTYPE svg PUBLIC "-//W3C//DTD SVG 1.0//EN" "http://www.w3.org/TR/2001/REC-SVG-20010904/DTD/svg10.dtd" [
    <!ATTLIST svg xmlns:xlink CDATA #FIXED "http://www.w3.org/1999/xlink">
]>
<svg width="343pt" height="260pt"
    viewBox="0 40 343 260"
    xmlns="http://www.w3.org/2000/svg" xmlns:xlink="http://www.w3.org/1999/xlink">
    <title>Hasse diagram</title>
    <g id="graph0" class="graph" style="font-family:Times-Roman;font-size:14.00;">
        <polygon style="fill:#ffffff;stroke:#ffffff;" points="-2,262 -2,-2 345,-2 345,962 -2,962" />
        <!-- xz -->
        <g id="node3" class="node">
            <title>?</title>
            <ellipse style="fill:none;stroke:black;" cx="171" cy="94" rx="27" ry="18" />
            <text text-anchor="middle" x="171" y="99" font-weight="bold">{?}</text>
        </g>
        <!-- z -->
        <g id="node7" class="node">
            <title>z</title>
            <ellipse style="fill:none;stroke:black;" cx="293" cy="166" rx="27" ry="18" />
            <text text-anchor="middle" x="293" y="171" style="">{z}</text>
        </g>
        <!-- x -->
        <g id="node5" class="node">
            <title>x</title>
            <ellipse style="fill:none;stroke:black;" cx="49" cy="166" rx="27" ry="18" />
            <text text-anchor="middle" x="49" y="171" style="">{x}</text>
        </g>
        <!-- xz&#45;&gt;x -->
        <g id="edge12" class="edge">
            <title>xz&#45;&gt;x</title>
            <path style="fill:none;stroke:black;" d="M142,111C120,125 89,143 70,154" />
            <polygon style="fill:none;stroke:black;" points="141,108 151,106 144,114 141,108" />
        </g>
        <!-- xz&#45;&gt;z -->
        <g id="edge13" class="edge">
            <title>xz&#45;&gt;z</title>
            <path style="fill:none;stroke:black;" d="M200,111C222,125 253,143 272,154" />
            <polygon style="fill:none;stroke:black;" points="198,114 191,106 201,108 198,114" />
        </g>
        <!-- xy&#45;&gt;x -->
        <!-- phi -->
        <g id="node8" class="node">
            <title>phi</title>
            <ellipse style="fill:none;stroke:black;" cx="171" cy="238" rx="27" ry="18" />
            <text text-anchor="middle" x="171" y="243" style="">Ø</text>
        </g>
        <!-- x&#45;&gt;phi -->
        <g id="edge19" class="edge">
            <title>x&#45;&gt;phi</title>
            <path style="fill:none;stroke:black;" d="M78,183C100,197 131,215 150,226" />
            <polygon style="fill:none;stroke:black;" points="76,186 69,178 79,180 76,186" />
        </g>
        <!-- y&#45;&gt;phi -->
        <!-- z&#45;&gt;phi -->
        <g id="edge23" class="edge">
            <title>z&#45;&gt;phi</title>
            <path style="fill:none;stroke:black;" d="M264,183C242,197 211,215 192,226" />
            <polygon style="fill:none;stroke:black;" points="263,180 273,178 266,186 263,180" />
        </g>
    </g>
</svg>
