<svg width="445.1" height="94.9" viewBox="0 -80 685.1 174.9" xmlns="http://www.w3.org/2000/svg">

<linearGradient xmlns="http://www.w3.org/2000/svg" 
id="gradient" gradientUnits="userSpaceOnUse" x1="184.2886" y1="98.5924" 
x2="628.1017" 
y2="867.2993">
	<stop offset="0" style="stop-color:#e8108d"/>
	<stop offset="0.5" style="stop-color:#8e2088"/>
	<stop offset="1" style="stop-color:#602586"/>
</linearGradient>

<style type="text/css">
	#svgGroup{
        fill:url(#gradient);
    }
</style>

<g id="svgGroup" stroke-linecap="round" fill-rule="evenodd" font-size="9pt" stroke="#e6008d" stroke-width="0.25mm" fill="#e6008d" style="stroke:#e6008d;stroke-width:0.25mm;fill:#e6008d"><path d="M 70.3 43.1 L 70.3 76 L 57.6 76 L 57.6 44.4 A 18.259 18.259 0 0 0 57.42 41.747 Q 57.05 39.238 55.925 37.575 Q 54.25 35.1 50.8 35.1 Q 48.45 35.1 46.325 36.3 Q 44.2 37.5 42.9 39.625 A 8.913 8.913 0 0 0 41.603 44.153 A 10.657 10.657 0 0 0 41.6 44.4 L 41.6 76 L 28.8 76 L 28.8 44.4 Q 28.8 40.958 27.57 38.582 A 8.678 8.678 0 0 0 26.925 37.525 A 6 6 0 0 0 22.552 34.953 A 8.255 8.255 0 0 0 21.6 34.9 Q 19.2 34.9 17.2 36.125 A 8.954 8.954 0 0 0 14.076 39.39 A 10.557 10.557 0 0 0 14 39.525 Q 12.8 41.7 12.8 44.4 L 12.8 76 L 0 76 L 0 26.2 L 11.5 26.2 L 11.8 32.8 A 16.916 16.916 0 0 1 17.433 27.267 Q 20.694 25.354 24.907 25.055 A 22.514 22.514 0 0 1 26.5 25 A 18.803 18.803 0 0 1 30.294 25.363 Q 32.871 25.894 34.875 27.2 A 12.812 12.812 0 0 1 39.158 31.917 A 16.431 16.431 0 0 1 39.95 33.6 Q 44.495 25.935 53.211 25.102 A 22.99 22.99 0 0 1 55.4 25 A 18.215 18.215 0 0 1 59.839 25.509 A 12.054 12.054 0 0 1 66.525 29.725 Q 70.3 34.45 70.3 43.1 Z M 407.4 94.9 L 415.5 72.6 L 396.8 26.2 L 410.7 26.2 L 418.1 48.4 L 421.3 59.9 L 424.5 48.4 L 432 26.2 L 445.1 26.2 L 419.7 94.9 L 407.4 94.9 Z M 164.5 34.8 L 163.6 27.5 L 163.6 0 L 175.4 0 L 175.4 76 L 164.5 76 L 164.5 65.8 A 20.049 20.049 0 0 1 162.883 70.055 A 15.095 15.095 0 0 1 159.65 74.275 Q 156.2 77.4 151.1 77.4 A 18.65 18.65 0 0 1 144.996 76.429 A 16.572 16.572 0 0 1 140.625 74.15 A 19.314 19.314 0 0 1 135.346 68.257 A 25.175 25.175 0 0 1 133.725 64.975 A 31.511 31.511 0 0 1 131.798 57.919 A 43.202 43.202 0 0 1 131.3 51.2 A 49.779 49.779 0 0 1 131.796 43.939 Q 132.358 40.134 133.558 37.039 A 22.051 22.051 0 0 1 136.375 31.85 A 16.478 16.478 0 0 1 147.739 25.246 A 24.798 24.798 0 0 1 151.3 25 A 17.227 17.227 0 0 1 155.352 25.454 A 12.838 12.838 0 0 1 159.95 27.55 A 11.407 11.407 0 0 1 164.112 33.384 A 15.074 15.074 0 0 1 164.5 34.8 Z M 357.7 71.3 L 361.4 61.8 A 24.836 24.836 0 0 0 366.942 65.329 A 19.261 19.261 0 0 0 375 67.1 Q 378.25 67.1 379.825 65.775 A 4.59 4.59 0 0 0 380.888 64.521 A 4.044 4.044 0 0 0 381.4 62.5 A 3.436 3.436 0 0 0 380.761 60.542 Q 380.38 59.982 379.774 59.45 A 9.617 9.617 0 0 0 378.675 58.625 Q 375.95 56.85 370.6 54.5 A 49.064 49.064 0 0 1 367.469 53.012 Q 365.963 52.226 364.682 51.403 A 30.158 30.158 0 0 1 364.6 51.35 Q 362.05 49.7 360.175 46.875 A 11.042 11.042 0 0 1 358.532 42.696 A 15.038 15.038 0 0 1 358.3 40 A 15.338 15.338 0 0 1 358.883 35.696 A 12.871 12.871 0 0 1 360.525 32.15 A 13.315 13.315 0 0 1 364.871 28.074 A 17.318 17.318 0 0 1 367 27 A 21.507 21.507 0 0 1 371.595 25.664 Q 374.179 25.2 377.2 25.2 A 28.972 28.972 0 0 1 381.88 25.566 A 25.142 25.142 0 0 1 383.875 25.975 Q 387 26.75 389.2 27.875 Q 391.23 28.913 392.238 29.845 A 5.68 5.68 0 0 1 392.4 30 L 389 39 Q 386.7 37.25 383.725 36.025 Q 380.75 34.8 377.6 34.8 A 22.907 22.907 0 0 0 375.864 34.861 Q 373.469 35.044 372.325 35.775 A 3.167 3.167 0 0 0 370.922 37.828 A 5.26 5.26 0 0 0 370.8 39 A 4.084 4.084 0 0 0 372.104 42.006 A 6.446 6.446 0 0 0 373.025 42.75 A 19.126 19.126 0 0 0 374.56 43.671 Q 376.63 44.799 379.9 46.1 A 41.914 41.914 0 0 1 384.315 48.131 Q 387.894 50.053 390.2 52.375 A 12.033 12.033 0 0 1 393.799 61.038 A 14.918 14.918 0 0 1 393.8 61.2 A 16.51 16.51 0 0 1 392.949 66.554 A 15.099 15.099 0 0 1 391.825 69.075 A 13.007 13.007 0 0 1 388.16 73.171 A 17.57 17.57 0 0 1 385.575 74.75 Q 382.061 76.517 376.976 76.832 A 36.877 36.877 0 0 1 374.7 76.9 Q 367.632 76.9 363.568 75.165 A 13.949 13.949 0 0 1 363.475 75.125 A 26.608 26.608 0 0 1 361.265 74.047 Q 359.083 72.845 357.896 71.527 A 7.378 7.378 0 0 1 357.7 71.3 Z M 108.9 46.4 L 108.9 44.1 A 13.674 13.674 0 0 0 108.687 41.609 Q 108.429 40.215 107.856 39.116 A 6.884 6.884 0 0 0 106.925 37.75 A 5.632 5.632 0 0 0 104.829 36.293 Q 102.939 35.5 100 35.5 Q 96.1 35.5 92.375 36.825 A 20.288 20.288 0 0 0 90.143 37.762 Q 88.076 38.79 86.9 40.1 L 82.9 30.5 Q 86.3 28.2 91.35 26.6 A 34.873 34.873 0 0 1 100.685 25.025 A 39.772 39.772 0 0 1 102.1 25 A 37.743 37.743 0 0 1 106.472 25.237 Q 108.643 25.491 110.446 26.017 A 15.965 15.965 0 0 1 113.425 27.2 A 13.545 13.545 0 0 1 116.981 29.85 A 11.86 11.86 0 0 1 119.3 33.4 Q 120.701 36.697 120.947 41.284 A 37.611 37.611 0 0 1 121 43.3 L 121 76 L 110.3 76 L 109.4 68.9 Q 106.75 73.2 103.125 75.3 A 15.54 15.54 0 0 1 97.307 77.234 A 19.891 19.891 0 0 1 94.7 77.4 A 16.425 16.425 0 0 1 91.225 77.051 A 11.822 11.822 0 0 1 87.2 75.4 Q 84.15 73.4 82.625 70 A 17.437 17.437 0 0 1 81.221 64.699 A 21.425 21.425 0 0 1 81.1 62.4 A 11.806 11.806 0 0 1 82.12 57.677 A 16.096 16.096 0 0 1 83.525 55.125 Q 85.95 51.5 92.15 48.95 Q 98.35 46.4 108.9 46.4 Z M 335.6 46.4 L 335.6 44.1 A 13.674 13.674 0 0 0 335.387 41.609 Q 335.129 40.215 334.556 39.116 A 6.884 6.884 0 0 0 333.625 37.75 A 5.632 5.632 0 0 0 331.529 36.293 Q 329.639 35.5 326.7 35.5 Q 322.8 35.5 319.075 36.825 A 20.288 20.288 0 0 0 316.843 37.762 Q 314.776 38.79 313.6 40.1 L 309.6 30.5 Q 313 28.2 318.05 26.6 A 34.873 34.873 0 0 1 327.385 25.025 A 39.772 39.772 0 0 1 328.8 25 A 37.743 37.743 0 0 1 333.172 25.237 Q 335.343 25.491 337.146 26.017 A 15.965 15.965 0 0 1 340.125 27.2 A 13.545 13.545 0 0 1 343.681 29.85 A 11.86 11.86 0 0 1 346 33.4 Q 347.401 36.697 347.647 41.284 A 37.611 37.611 0 0 1 347.7 43.3 L 347.7 76 L 337 76 L 336.1 68.9 Q 333.45 73.2 329.825 75.3 A 15.54 15.54 0 0 1 324.007 77.234 A 19.891 19.891 0 0 1 321.4 77.4 A 16.425 16.425 0 0 1 317.925 77.051 A 11.822 11.822 0 0 1 313.9 75.4 Q 310.85 73.4 309.325 70 A 17.437 17.437 0 0 1 307.921 64.699 A 21.425 21.425 0 0 1 307.8 62.4 A 11.806 11.806 0 0 1 308.82 57.677 A 16.096 16.096 0 0 1 310.225 55.125 Q 312.65 51.5 318.85 48.95 Q 325.05 46.4 335.6 46.4 Z M 228.5 55.2 L 198.5 55.2 A 20.34 20.34 0 0 0 199.015 58.952 Q 199.526 61.076 200.516 62.722 A 10.609 10.609 0 0 0 201.875 64.525 Q 204.95 67.8 210.9 67.8 A 16.07 16.07 0 0 0 214.425 67.389 A 22.059 22.059 0 0 0 217.55 66.425 A 19.594 19.594 0 0 0 219.749 65.424 Q 220.819 64.849 221.641 64.197 A 8.737 8.737 0 0 0 222.8 63.1 L 226.8 72.6 A 26.597 26.597 0 0 1 218.209 76.267 Q 213.933 77.3 208.8 77.3 Q 201.87 77.3 197.015 74.762 A 18.225 18.225 0 0 1 195.5 73.875 Q 190.25 70.45 187.825 64.7 A 30.628 30.628 0 0 1 185.7 56.612 A 39.035 39.035 0 0 1 185.4 51.7 A 34.802 34.802 0 0 1 186.412 43.173 A 29.922 29.922 0 0 1 188.125 38.225 Q 190.85 32.15 196.1 28.575 A 20.528 20.528 0 0 1 205.093 25.224 A 26.647 26.647 0 0 1 208.6 25 Q 219.4 25 224.05 31.225 Q 227.361 35.657 228.314 43.194 A 52.775 52.775 0 0 1 228.7 49.8 A 68.695 68.695 0 0 1 228.653 52.266 Q 228.606 53.566 228.513 55.007 A 112.218 112.218 0 0 1 228.5 55.2 Z M 299.4 55.2 L 269.4 55.2 A 20.34 20.34 0 0 0 269.915 58.952 Q 270.426 61.076 271.416 62.722 A 10.609 10.609 0 0 0 272.775 64.525 Q 275.85 67.8 281.8 67.8 A 16.07 16.07 0 0 0 285.325 67.389 A 22.059 22.059 0 0 0 288.45 66.425 A 19.594 19.594 0 0 0 290.649 65.424 Q 291.719 64.849 292.541 64.197 A 8.737 8.737 0 0 0 293.7 63.1 L 297.7 72.6 A 26.597 26.597 0 0 1 289.109 76.267 Q 284.833 77.3 279.7 77.3 Q 272.77 77.3 267.915 74.762 A 18.225 18.225 0 0 1 266.4 73.875 Q 261.15 70.45 258.725 64.7 A 30.628 30.628 0 0 1 256.6 56.612 A 39.035 39.035 0 0 1 256.3 51.7 A 34.802 34.802 0 0 1 257.312 43.173 A 29.922 29.922 0 0 1 259.025 38.225 Q 261.75 32.15 267 28.575 A 20.528 20.528 0 0 1 275.993 25.224 A 26.647 26.647 0 0 1 279.5 25 Q 290.3 25 294.95 31.225 Q 298.261 35.657 299.214 43.194 A 52.775 52.775 0 0 1 299.6 49.8 A 68.695 68.695 0 0 1 299.553 52.266 Q 299.506 53.566 299.413 55.007 A 112.218 112.218 0 0 1 299.4 55.2 Z M 154 67.5 A 7.114 7.114 0 0 0 158.156 66.152 A 9.067 9.067 0 0 0 158.625 65.8 Q 160.345 64.424 161.508 61.787 A 18.286 18.286 0 0 0 162.025 60.475 A 20.18 20.18 0 0 0 162.851 57.228 Q 163.131 55.608 163.237 53.736 A 41.612 41.612 0 0 0 163.3 51.4 Q 163.3 43.5 161.05 39.3 A 8.916 8.916 0 0 0 159.308 36.974 Q 157.306 35.1 154.3 35.1 Q 151.7 35.1 149.425 36.65 A 8.345 8.345 0 0 0 147.535 38.466 Q 146.485 39.824 145.675 41.8 A 17.18 17.18 0 0 0 144.776 44.809 Q 144.452 46.365 144.31 48.193 A 38.944 38.944 0 0 0 144.2 51.2 Q 144.2 55.296 144.947 58.396 A 18.917 18.917 0 0 0 145.475 60.2 A 16.356 16.356 0 0 0 146.539 62.634 Q 147.238 63.916 148.112 64.86 A 8.671 8.671 0 0 0 148.975 65.675 Q 151.2 67.5 154 67.5 Z M 198.4 47.4 L 216 47.4 A 46.628 46.628 0 0 0 215.889 44.059 Q 215.551 39.367 214.175 37.275 A 6.082 6.082 0 0 0 212.107 35.283 Q 210.733 34.5 208.9 34.5 A 10.447 10.447 0 0 0 205.568 35.006 A 8.502 8.502 0 0 0 201.375 38.1 A 14.205 14.205 0 0 0 199.16 42.666 Q 198.614 44.548 198.442 46.761 A 25.495 25.495 0 0 0 198.4 47.4 Z M 269.3 47.4 L 286.9 47.4 A 46.628 46.628 0 0 0 286.789 44.059 Q 286.451 39.367 285.075 37.275 A 6.082 6.082 0 0 0 283.007 35.283 Q 281.633 34.5 279.8 34.5 A 10.447 10.447 0 0 0 276.468 35.006 A 8.502 8.502 0 0 0 272.275 38.1 A 14.205 14.205 0 0 0 270.06 42.666 Q 269.514 44.548 269.342 46.761 A 25.495 25.495 0 0 0 269.3 47.4 Z M 108.9 61.3 L 108.9 54.2 Q 108.212 54.102 106.556 54.1 A 56.979 56.979 0 0 0 106.5 54.1 A 26.066 26.066 0 0 0 101.578 54.545 A 20.489 20.489 0 0 0 97.475 55.775 A 8.24 8.24 0 0 0 95.553 56.881 A 5.228 5.228 0 0 0 93.5 61.2 A 12.621 12.621 0 0 0 93.618 62.99 Q 93.919 65.087 94.992 66.192 A 3.79 3.79 0 0 0 95.075 66.275 Q 96.262 67.425 98.459 67.708 A 12.087 12.087 0 0 0 100 67.8 Q 102.3 67.8 104.85 65.95 Q 107.4 64.1 108.9 61.3 Z M 335.6 61.3 L 335.6 54.2 Q 334.912 54.102 333.256 54.1 A 56.979 56.979 0 0 0 333.2 54.1 A 26.066 26.066 0 0 0 328.278 54.545 A 20.489 20.489 0 0 0 324.175 55.775 A 8.24 8.24 0 0 0 322.253 56.881 A 5.228 5.228 0 0 0 320.2 61.2 A 12.621 12.621 0 0 0 320.318 62.99 Q 320.619 65.087 321.692 66.192 A 3.79 3.79 0 0 0 321.775 66.275 Q 322.962 67.425 325.159 67.708 A 12.087 12.087 0 0 0 326.7 67.8 Q 329 67.8 331.55 65.95 Q 334.1 64.1 335.6 61.3 Z" vector-effect="non-scaling-stroke"/></g></svg>
