<svg xmlns="http://www.w3.org/2000/svg" fill="none" viewBox="0 0 23 19"><g clip-path="url(#a)"><path fill="#fff" d="M19.5 2.3A19 19 0 0 0 14.7 1L14.1 2q-2.6-.4-5.2 0L8.3.9q-2.5.3-4.8 1.4c-3 4.5-3.8 8.8-3.4 13q2.7 2.1 5.8 3 .8-1 1.3-2l-2-1q.3 0 .5-.3a14 14 0 0 0 11.6 0l.5.4-2 .9 1.3 2q3-.9 5.8-3 .6-7.3-3.4-13M7.7 12.7c-1.2 0-2-1-2-2.2S6.4 8 7.6 8q1.8.2 2 2.4c0 1.2-.9 2.2-2 2.2m7.6 0q-1.8-.2-2-2.2c0-1.3.9-2.4 2-2.4q2 .2 2 2.4c0 1.2-.8 2.2-2 2.2"/></g><defs><clipPath id="a"><path fill="#fff" d="M0 .9h23v17.4H0z"/></clipPath></defs></svg>
