<svg width="24" height="21" viewBox="0 0 24 21" fill="none" xmlns="http://www.w3.org/2000/svg">
<g clip-path="url(#clip0_2022_863)">
<path d="M22.821 19.4913C22.8725 19.4918 22.9235 19.4817 22.971 19.4617C23.0184 19.4417 23.0612 19.4121 23.0968 19.3748C23.1323 19.3376 23.1598 19.2934 23.1775 19.245C23.1953 19.1967 23.2029 19.1452 23.2 19.0938C23.2 18.8119 23.0299 18.6772 22.681 18.6772H22.1172V20.1531H22.3292V19.5098H22.5898L22.5958 19.5176L23.0001 20.1531H23.2269L22.7918 19.4954L22.821 19.4913ZM22.5757 19.3435H22.3298V18.8445H22.6415C22.8025 18.8445 22.986 18.8708 22.986 19.0816C22.986 19.324 22.8003 19.3435 22.5745 19.3435" fill="white"/>
<path d="M17.2912 17.6421H14.2843V12.9332C14.2843 11.8103 14.2643 10.3648 12.7204 10.3648C11.1543 10.3648 10.9147 11.5882 10.9147 12.8514V17.6418H7.90779V7.95832H10.7944V9.28167H10.8348C11.1237 8.78774 11.5411 8.38141 12.0427 8.10595C12.5442 7.8305 13.1111 7.69623 13.6829 7.71746C16.7305 7.71746 17.2924 9.72205 17.2924 12.3299L17.2912 17.6421ZM4.51503 6.63467C4.16991 6.63473 3.83252 6.53245 3.54553 6.34077C3.25854 6.14908 3.03486 5.8766 2.90273 5.55778C2.7706 5.23895 2.73598 4.88811 2.80325 4.54962C2.87051 4.21112 3.03665 3.90017 3.28064 3.6561C3.52463 3.41202 3.83552 3.24577 4.17399 3.17838C4.51247 3.11099 4.86331 3.14549 5.18218 3.2775C5.50105 3.40951 5.77361 3.63311 5.9654 3.92003C6.15719 4.20695 6.25959 4.5443 6.25965 4.88942C6.25969 5.11857 6.21459 5.34548 6.12694 5.5572C6.03929 5.76892 5.9108 5.9613 5.7488 6.12336C5.5868 6.28543 5.39445 6.41399 5.18276 6.50172C4.97107 6.58945 4.74418 6.63462 4.51503 6.63467ZM6.01847 17.6421H3.00845V7.95832H6.01847V17.6421ZM18.7902 0.352457H1.4975C1.105 0.348027 0.726783 0.499605 0.445987 0.773881C0.165192 1.04816 0.0047902 1.42269 0 1.81518V19.1797C0.00462626 19.5724 0.164934 19.9471 0.44572 20.2217C0.726505 20.4963 1.1048 20.6481 1.4975 20.644H18.7902C19.1837 20.6489 19.5631 20.4975 19.845 20.2229C20.1269 19.9483 20.2882 19.5731 20.2937 19.1797V1.81393C20.2881 1.42066 20.1266 1.0457 19.8447 0.77143C19.5628 0.497161 19.1835 0.346017 18.7902 0.351203" fill="white"/>
<path d="M22.6049 18.02C22.239 18.0235 21.8895 18.1718 21.6326 18.4323C21.3758 18.6929 21.2326 19.0446 21.2344 19.4104C21.2362 19.7763 21.3827 20.1265 21.642 20.3846C21.9014 20.6427 22.2523 20.7875 22.6182 20.7875C22.984 20.7875 23.335 20.6427 23.5943 20.3846C23.8536 20.1265 24.0002 19.7763 24.002 19.4104C24.0037 19.0446 23.8605 18.6929 23.6037 18.4323C23.3469 18.1718 22.9973 18.0235 22.6315 18.02H22.6049ZM22.6049 20.6291C22.3649 20.6331 22.1292 20.5659 21.9274 20.4359C21.7257 20.3059 21.567 20.119 21.4715 19.8988C21.376 19.6787 21.3479 19.4351 21.3908 19.199C21.4337 18.9629 21.5457 18.7448 21.7125 18.5723C21.8794 18.3998 22.0936 18.2806 22.3282 18.2299C22.5627 18.1792 22.8071 18.1991 23.0303 18.2873C23.2535 18.3754 23.4456 18.5278 23.5822 18.725C23.7189 18.9223 23.7939 19.1557 23.7979 19.3957C23.7979 19.4026 23.7979 19.4091 23.7979 19.416C23.8046 19.7308 23.686 20.0354 23.4682 20.2627C23.2505 20.4901 22.9513 20.6217 22.6365 20.6285H22.6052" fill="white"/>
</g>
<defs>
<clipPath id="clip0_2022_863">
<rect width="24" height="20.4613" fill="white" transform="translate(0 0.351074)"/>
</clipPath>
</defs>
</svg>
