<svg width="22" height="23" viewBox="0 0 22 23" fill="none" xmlns="http://www.w3.org/2000/svg">
<path fill-rule="evenodd" clip-rule="evenodd" d="M1.375 11.5815C1.375 6.27275 5.69121 1.95654 11 1.95654C16.3088 1.95654 20.625 6.27275 20.625 11.5815C20.625 16.8903 16.3088 21.2065 11 21.2065C5.69121 21.2065 1.375 16.8903 1.375 11.5815ZM12.7332 5.34517L11.9419 5.94807L14.9187 9.94238L15.7101 9.33945L12.7332 5.34517ZM14.1274 10.8844L10.2839 7.68144L10.9245 6.9278L14.768 10.1308L14.1274 10.8844ZM9.00268 9.90468L13.5245 12.0149L13.939 11.1105L9.41718 9.00031L9.00268 9.90468ZM8.3244 12.4671L13.4341 13.2056L13.4981 12.3088L8.5015 11.3479L8.3244 12.4671ZM13.4492 14.6903H8.17367V13.5598H13.4492V14.6903ZM14.2028 15.4439V12.4293H15.3332V16.5743H6.28955V12.4293H7.42001V15.4439H14.2028Z" fill="white"/>
</svg>
