<?xml version="1.0" encoding="iso-8859-1"?>
<!-- Generator: Adobe Illustrator 19.0.0, SVG Export Plug-In . SVG Version: 6.00 Build 0)  -->
<svg version="1.1" id="Capa_1" xmlns="http://www.w3.org/2000/svg" xmlns:xlink="http://www.w3.org/1999/xlink" x="0px" y="0px"
	 viewBox="0 0 60 60" style="enable-background:new 0 0 60 60;" xml:space="preserve">
<g>
	<path d="M0,24.108v11.783c0,0.974,0.314,1.868,0.835,2.608h58.329C59.686,37.76,60,36.865,60,35.892V24.108
		c0-0.974-0.314-1.868-0.835-2.608H0.835C0.314,22.24,0,23.135,0,24.108z M52,30.5c0.552,0,1,0.448,1,1s-0.448,1-1,1s-1-0.448-1-1
		S51.448,30.5,52,30.5z M50,27.5c0.552,0,1,0.448,1,1s-0.448,1-1,1s-1-0.448-1-1S49.448,27.5,50,27.5z M48,30.5c0.552,0,1,0.448,1,1
		s-0.448,1-1,1s-1-0.448-1-1S47.448,30.5,48,30.5z M46,27.5c0.552,0,1,0.448,1,1s-0.448,1-1,1s-1-0.448-1-1S45.448,27.5,46,27.5z
		 M44,30.5c0.552,0,1,0.448,1,1s-0.448,1-1,1s-1-0.448-1-1S43.448,30.5,44,30.5z M42,27.5c0.552,0,1,0.448,1,1s-0.448,1-1,1
		s-1-0.448-1-1S41.448,27.5,42,27.5z M40,30.5c0.552,0,1,0.448,1,1s-0.448,1-1,1s-1-0.448-1-1S39.448,30.5,40,30.5z M38,27.5
		c0.552,0,1,0.448,1,1s-0.448,1-1,1s-1-0.448-1-1S37.448,27.5,38,27.5z M36,30.5c0.552,0,1,0.448,1,1s-0.448,1-1,1s-1-0.448-1-1
		S35.448,30.5,36,30.5z M34,27.5c0.552,0,1,0.448,1,1s-0.448,1-1,1s-1-0.448-1-1S33.448,27.5,34,27.5z M10.5,25.5
		c2.481,0,4.5,2.019,4.5,4.5s-2.019,4.5-4.5,4.5S6,32.481,6,30S8.019,25.5,10.5,25.5z"/>
	<path d="M59.165,19.5C59.686,18.76,60,17.865,60,16.892V5.108C60,2.567,57.933,0.5,55.392,0.5H4.608C2.067,0.5,0,2.567,0,5.108
		v11.783c0,0.974,0.314,1.868,0.835,2.608H59.165z M52,11.5c0.552,0,1,0.448,1,1s-0.448,1-1,1s-1-0.448-1-1S51.448,11.5,52,11.5z
		 M50,8.5c0.552,0,1,0.448,1,1s-0.448,1-1,1s-1-0.448-1-1S49.448,8.5,50,8.5z M48,11.5c0.552,0,1,0.448,1,1s-0.448,1-1,1
		s-1-0.448-1-1S47.448,11.5,48,11.5z M46,8.5c0.552,0,1,0.448,1,1s-0.448,1-1,1s-1-0.448-1-1S45.448,8.5,46,8.5z M44,11.5
		c0.552,0,1,0.448,1,1s-0.448,1-1,1s-1-0.448-1-1S43.448,11.5,44,11.5z M42,8.5c0.552,0,1,0.448,1,1s-0.448,1-1,1s-1-0.448-1-1
		S41.448,8.5,42,8.5z M40,11.5c0.552,0,1,0.448,1,1s-0.448,1-1,1s-1-0.448-1-1S39.448,11.5,40,11.5z M38,8.5c0.552,0,1,0.448,1,1
		s-0.448,1-1,1s-1-0.448-1-1S37.448,8.5,38,8.5z M36,11.5c0.552,0,1,0.448,1,1s-0.448,1-1,1s-1-0.448-1-1S35.448,11.5,36,11.5z
		 M34,8.5c0.552,0,1,0.448,1,1s-0.448,1-1,1s-1-0.448-1-1S33.448,8.5,34,8.5z M10.5,6.5c2.481,0,4.5,2.019,4.5,4.5
		s-2.019,4.5-4.5,4.5S6,13.481,6,11S8.019,6.5,10.5,6.5z"/>
	<path d="M0.835,40.5C0.314,41.24,0,42.135,0,43.108v11.783C0,57.433,2.067,59.5,4.608,59.5h50.783c2.541,0,4.608-2.067,4.608-4.608
		V43.108c0-0.974-0.314-1.868-0.835-2.608H0.835z M10.5,53.5C8.019,53.5,6,51.481,6,49s2.019-4.5,4.5-4.5S15,46.519,15,49
		S12.981,53.5,10.5,53.5z M34,48.5c-0.552,0-1-0.448-1-1s0.448-1,1-1s1,0.448,1,1S34.552,48.5,34,48.5z M36,51.5
		c-0.552,0-1-0.448-1-1s0.448-1,1-1s1,0.448,1,1S36.552,51.5,36,51.5z M38,48.5c-0.552,0-1-0.448-1-1s0.448-1,1-1s1,0.448,1,1
		S38.552,48.5,38,48.5z M40,51.5c-0.552,0-1-0.448-1-1s0.448-1,1-1s1,0.448,1,1S40.552,51.5,40,51.5z M42,48.5c-0.552,0-1-0.448-1-1
		s0.448-1,1-1s1,0.448,1,1S42.552,48.5,42,48.5z M44,51.5c-0.552,0-1-0.448-1-1s0.448-1,1-1s1,0.448,1,1S44.552,51.5,44,51.5z
		 M46,48.5c-0.552,0-1-0.448-1-1s0.448-1,1-1s1,0.448,1,1S46.552,48.5,46,48.5z M48,51.5c-0.552,0-1-0.448-1-1s0.448-1,1-1
		s1,0.448,1,1S48.552,51.5,48,51.5z M50,48.5c-0.552,0-1-0.448-1-1s0.448-1,1-1s1,0.448,1,1S50.552,48.5,50,48.5z M52,51.5
		c-0.552,0-1-0.448-1-1s0.448-1,1-1s1,0.448,1,1S52.552,51.5,52,51.5z"/>
</g>
<g>
</g>
<g>
</g>
<g>
</g>
<g>
</g>
<g>
</g>
<g>
</g>
<g>
</g>
<g>
</g>
<g>
</g>
<g>
</g>
<g>
</g>
<g>
</g>
<g>
</g>
<g>
</g>
<g>
</g>
</svg>
