<?xml version="1.0" encoding="iso-8859-1"?>
<!-- Generator: Adobe Illustrator 16.0.0, SVG Export Plug-In . SVG Version: 6.00 Build 0)  -->
<!DOCTYPE svg PUBLIC "-//W3C//DTD SVG 1.1//EN" "http://www.w3.org/Graphics/SVG/1.1/DTD/svg11.dtd">
<svg version="1.1" id="Capa_1" xmlns="http://www.w3.org/2000/svg"
	xmlns:xlink="http://www.w3.org/1999/xlink"
	preserveAspectRatio="none"
	viewBox="58 0 462 577.608"
	style="enable-background:new 0 0 577.608 577.608;"
	xml:space="preserve">
<g>
	<g>
		<path d="M468.499,0H109.113C80.757,0,57.762,22.987,57.762,51.341v474.927c0,28.354,22.993,51.341,51.351,51.341h359.385
			c28.352,0,51.348-22.984,51.348-51.341V51.339C519.846,22.985,496.85,0,468.499,0z M288.804,549.411
			c-12.146,0-22.038-9.861-22.038-22.047c0-12.164,9.892-22.044,22.038-22.044c12.165,0,22.057,9.88,22.057,22.044
			C310.862,539.55,300.969,549.411,288.804,549.411z M474.928,471.928c0,6.187-5.023,11.197-11.205,11.197H113.887
			c-6.185,0-11.204-5.012-11.204-11.197V55.005c0-6.186,5.019-11.196,11.204-11.196h349.836c6.182,0,11.205,5.01,11.205,11.196
			V471.928z"/>
	</g>
</g>
<g>
</g>
<g>
</g>
<g>
</g>
<g>
</g>
<g>
</g>
<g>
</g>
<g>
</g>
<g>
</g>
<g>
</g>
<g>
</g>
<g>
</g>
<g>
</g>
<g>
</g>
<g>
</g>
<g>
</g>
</svg>
