<svg xmlns="http://www.w3.org/2000/svg" fill="none" viewBox="0 0 223 236"><g clip-path="url(#a)"><path fill="url(#b)" d="m222 39-8 126L137 0zm-53 163-58 33-58-33 12-29h92zM111 63l30 73H81zM8 165 0 39 85 0z"/><path fill="url(#c)" d="m222 39-8 126L137 0zm-53 163-58 33-58-33 12-29h92zM111 63l30 73H81zM8 165 0 39 85 0z"/></g><defs><linearGradient id="b" x1="49" x2="225.8" y1="213.8" y2="129.7" gradientUnits="userSpaceOnUse"><stop stop-color="#e40035"/><stop offset=".2" stop-color="#f60a48"/><stop offset=".4" stop-color="#f20755"/><stop offset=".5" stop-color="#dc087d"/><stop offset=".7" stop-color="#9717e7"/><stop offset="1" stop-color="#6c00f5"/></linearGradient><linearGradient id="c" x1="41" x2="156.7" y1="28.3" y2="160.3" gradientUnits="userSpaceOnUse"><stop stop-color="#ff31d9"/><stop offset="1" stop-color="#ff5be1" stop-opacity="0"/></linearGradient><clipPath id="a"><path fill="#fff" d="M0 0h223v236H0z"/></clipPath></defs></svg>
