<svg xmlns="http://www.w3.org/2000/svg" fill="none" viewBox="0 0 132 24"><path fill="#ededf0" d="m39 19 3-1 2 1h2v-2l-1-1V7h-3v1q0-1-4-2-5 1-5 7 0 8 6 6m0-2q-3 0-3-4 0-3 3-4 3 1 4 4 0 4-4 4m9 7h3v-6l4 1q5 0 6-6-1-6-6-7l-4 2V7h-3zm6-7q-3 0-3-4t3-4 4 4-4 4m8 7h3v-6l4 1q5 0 5-6t-5-7l-4 2V7h-3zm6-7q-3 0-3-4t3-4 4 4-4 4m10 2h4l2-9h1l2 9h4l3-12h-3l-2 10-3-10h-3l-3 10-2-10h-3zm17 0h3v-6q0-3 3-3h1V7l-4 2V7h-3zm21 0h3v-2h-3l-1-1v-6h4V7h-4V4h-3v3h-2v3h2v6q1 3 4 3m10 0q4 0 6-3l-3-1-3 2q-3 0-3-3h9v-1q0-7-6-7-5 0-6 7 0 6 6 6m-3-7q0-3 3-3t3 3z"/><path fill="#ededf0" fill-rule="evenodd" d="M109 19h-3v-9h-2V7h5z" clip-rule="evenodd"/><path fill="#ededf0" d="m107 5 2-1-2-2-1 2z"/><path fill="#fd366e" d="M24 16v6H11q-6 0-10-6v-1l-1-3V8q3-8 11-8t10 8h-6a5 5 0 0 0-9 0v1l-1 2 2 4 4 1z"/><path fill="#fd366e" d="M24 9v6H14l2-4V9z"/></svg>
