<svg xmlns="http://www.w3.org/2000/svg" viewBox="0 0 32 32"><path d="m14.74.01-.53.05C11.14.4 8.1 1.7 5.63 3.76a22 22 0 0 0-1.87 1.87 16 16 0 0 0-3.68 8.43c-.1.73-.1 3.15 0 3.88a16 16 0 0 0 3.68 8.43 22 22 0 0 0 1.87 1.88 16 16 0 0 0 8.44 3.68c.72.1 3.15.1 3.87 0a16 16 0 0 0 8.43-3.68 21 21 0 0 0 1.87-1.88 16 16 0 0 0 3.69-8.43c.1-.73.1-3.15 0-3.88a16 16 0 0 0-3.68-8.43 21 21 0 0 0-1.88-1.87 16 16 0 0 0-8.4-3.68C17.6.03 17.1 0 16.16 0q-.71-.02-1.43 0zm.2 1.7a72 72 0 0 0 .13 3.88l.2 4.74.02.29-.18-.02-.2-.05a4 4 0 0 1-.06-.6q-.18-3.82-.32-7.63l-.03-.88.11-.01.22-.03h.1zm3.76-.1.04 2.65a111 111 0 0 0 .03 3.17 1 1 0 0 1-.22 0l-.17-.02-.03-1.15-.05-1.56c-.03-.69-.05-3.05-.03-3.12.01-.04.05-.05.22-.01zM9.6 2.94c.03.04.2 2.2.44 5.04l.16 1.96c.02.2.01.2-.11.28l-.16.09a1 1 0 0 1-.05-.23L9.47 5.3l-.18-2.1c-.02-.17-.01-.18.08-.24q.2-.1.23-.03m10.83.8c.12.03.13.05.15.28.04.4.03 2.27-.02 2.27-.11 0-.35-.14-.37-.2a19 19 0 0 1-.02-1.25c0-1.28-.01-1.2.26-1.1zm-7.26.18.05 1.3.09 1.75c.03.69.03.66-.23.68-.13 0-.13 0-.14-.2l-.05-.76-.1-1.52-.08-1.14c-.02-.2-.02-.2.09-.25l.24-.04c.13 0 .13 0 .13.18zm10.91.54.13.05.04.53c0 .28.02.9 0 1.38v.85l-.17-.08-.17-.08V4.44c.01-.06.01-.06.17 0zm-7.18.51c.02.02.07 1.94.08 2.9v.59l-.18-.03q-.1 0-.2-.03c-.01-.01-.13-2.93-.13-3.2v-.3l.2.03q.12 0 .23.05m9.06.28c.05.06.06.92.07 5.67 0 5.46 0 5.6-.06 5.6a.3.3 0 0 1-.14-.05c-.06-.04-.06-.52-.08-5.18l-.05-5.7-.03-.57.12.08zm-3.53.8c.02.03.04.25.04.5.02.88.02 6.2 0 6.22l-.15-.04-.14-.06V5.97l.11.02q.1.03.14.06zm-10.86.23.05.54.06.98c.04.69.03.74-.19.74-.12 0-.13-.02-.15-.13-.04-.24-.18-2.17-.16-2.2a1 1 0 0 1 .32-.11q.05.02.07.18m-6.5 1 .19 1.94.12 1.23c0 .05-.3.2-.34.16a121 121 0 0 1-.4-3.66c0-.09.3-.5.33-.45.02.01.05.36.1.78m15.42.42.11.06v.85l.02 1.15c.01.36-.04.42-.25.34l-.12-.04v-.34l-.03-1.22-.02-.87h.1zM6.79 9.2l.26 2.84.13 1.45-.15.15-.15.16-.03-.32-.44-4.4-.1-1.13.15-.14c.13-.13.15-.13.18-.06zm-2.95.48.51 4.58.54 4.8c.05.46.05.5 0 .54q-.14.1-.14-.02l-.08-.66-.46-3.5-.23-1.83-.49-3.83a9 9 0 0 1-.1-1.06c.02-.11.26-.47.28-.45 0 0 .09.65.17 1.43zm-1.2 1.7.24 1.92.21 1.6.08.56-.09.07q-.09.06-.1.04a206.07 206.07 0 0 0-.4-2.59l-.28-1.93.08-.26q.04-.15.11-.27c.02 0 .08.39.14.85zm21.6-.52c.06.05.06.3.06 2.1v2.05h-.1c-.25 0-.24.06-.26-2.18l-.01-2.03h.12c.07 0 .16.02.19.06zm-8.61.7c.89.14 1.66.38 2.43.78.5.25.73.43 1.28.96a8 8 0 0 1 1.8 2.43c.68 1.41.95 2.66 1.3 6a116 116 0 0 1 .45 6.51c.04.7.1.6-.52.9-.84.41-1.66.7-2.73.95-1.32.33-2.17.43-3.46.43l-.95.01v-.45c0-.25.03-.83.06-1.28.12-2.2.09-4.96-.06-6.5-.09-.88-.26-1.95-.35-2.18-.02-.05.07-.1.46-.23a4 4 0 0 0 1.42-.71c.17-.3-.13-.71-.51-.71-.07 0-.28.07-.46.16-.88.4-2.65.88-3.66.98q-1.3.1-2.56-.1a8 8 0 0 1-1.77-.68q-1.08-.56-1.28-1.44c-.07-.32-.06-.95.04-1.3.1-.4.37-.96.62-1.29 1.12-1.47 3.44-2.75 5.8-3.2a9 9 0 0 1 2.65-.04m12.14.13c.14.05.15.07.15.2.01 1.08-.01 3.53-.03 3.63 0 .04-.2.05-.3.01-.05-.02-.06-.23-.06-1.96 0-1.25.02-1.95.04-1.95zm1.71 2.15.15.07-.03 3.25c-.03 4.15-.04 4.28-.19 4.64-.24.58-.23.7-.2-1.87 0-1.29.02-2.59.03-2.9l.02-1.9q0-1.34.04-1.34.05 0 .18.06zm-23.66.99c.02.32.02.35-.1.6l-.13.27-.04-.4c-.08-.63-.08-.65.08-.75q.1-.07.14-.07c.02.01.04.17.05.35M3.39 17.2c.03.32.3 2.46.45 3.51.21 1.63.23 1.86.13 1.76l-.2-1.22c-.6-4.23-.6-4.2-.55-4.24q.14-.12.17.19M6.22 19c.03.1.14 1.17.14 1.3 0 .1-.14.2-.2.14a5 5 0 0 1-.12-.74l-.1-.9-.02-.2.14.16q.1.11.16.24zM9.4 20.5c.04.05.07.2.1.62.06.78.07.71-.09.71s-.16.02-.22-.68-.05-.7.06-.7q.08.01.15.05m3.12.06.04.53c0 .24.04.8.08 1.24.1 1.59.1 1.79.04 1.79-.08 0-.08-.06-.17-1.18l-.13-1.63a7 7 0 0 1-.04-.79c.04-.05.16-.02.18.04m-7.4.76a189.16 189.16 0 0 1 .48 4.13l.02.16-.1-.06a.2.2 0 0 1-.1-.19c0-.25-.17-1.88-.3-2.88l-.14-1.1c0-.1.1-.12.14-.06zm22.7 1.64-.02 1.65-.1.14c-.23.34-.21.4-.2-1.44v-1.7l.15-.14.17-.15c.02 0 .02.74 0 1.65zm-3.63 2.61c.01 2.29.01 2.47-.05 2.54q-.07.07-.09.06c-.02-.04-.07-5.02-.03-5.05q.02-.03.08-.02c.06.01.07.29.09 2.47M11.33 24l.17 1.97c.02.37.02.38-.06.4q-.08.03-.12 0c-.03-.03-.12-.9-.22-2.25l-.03-.32h.12c.12 0 .12.01.14.2m-3.09 1.38q.05.06.05.23c0 .1.04.63.1 1.18.15 1.51.16 1.71.09 1.67-.1-.05-.2-.14-.17-.17q0-.22-.04-.44l-.08-.82-.08-.93c-.08-.68-.07-.77.01-.77q.07 0 .12.05zm1.86 2.65c.02.09.04.41.05.72.03.59.02.63-.14.51-.05-.04-.08-.18-.13-.63-.08-.81-.08-.78.07-.77.11.01.13.03.15.17zM8.7 13.46c-.41.18-.45.73-.06.93.28.14.56.07.7-.17.29-.44-.17-.97-.64-.76m2.66.38a.6.6 0 0 0 0 1.02c.38.22.86-.07.86-.52 0-.43-.5-.73-.86-.5z"/></svg>
