<?xml version="1.0" encoding="utf-8"?>
<svg fill="#000000" width="800px" height="800px" viewBox="0 0 32 32" xmlns="http://www.w3.org/2000/svg">
  <path d="M14.74 0.011c-0.073 0.005-0.313 0.031-0.532 0.052-3.072 0.323-6.104 1.625-8.577 3.692-0.661 0.589-1.287 1.215-1.871 1.876-2.047 2.443-3.244 5.187-3.681 8.432-0.1 0.724-0.1 3.151 0 3.875 0.437 3.245 1.635 5.989 3.681 8.432 0.584 0.661 1.209 1.287 1.871 1.876 2.448 2.047 5.187 3.239 8.437 3.681 0.719 0.1 3.151 0.1 3.869 0 3.245-0.443 5.989-1.64 8.432-3.681 0.667-0.589 1.292-1.215 1.876-1.876 2.047-2.443 3.239-5.187 3.681-8.432 0.1-0.724 0.1-3.151 0-3.875-0.443-3.245-1.635-5.989-3.681-8.432-0.584-0.661-1.209-1.287-1.876-1.876-2.437-2.036-5.208-3.249-8.405-3.676-0.349-0.048-0.849-0.068-1.787-0.073-0.48-0.011-0.959-0.011-1.432 0zM14.937 1.708c0 0.459 0.032 1.459 0.073 2.407 0.025 0.464 0.052 1.131 0.063 1.479 0.047 1.224 0.177 4.448 0.192 4.735l0.021 0.287-0.177-0.021c-0.068 0-0.136-0.015-0.203-0.041-0.032-0.197-0.052-0.401-0.052-0.604-0.12-2.547-0.229-5.088-0.328-7.631l-0.027-0.875 0.115-0.016c0.057-0.011 0.156-0.020 0.219-0.025h0.104zM18.703 1.615c0.005 0.005 0.016 1.192 0.032 2.64 0.015 1.448 0.031 2.756 0.047 2.896 0.011 0.147 0.005 0.271-0.016 0.276-0.068 0.016-0.14 0.016-0.213 0l-0.177-0.015-0.031-1.147-0.041-1.563c-0.032-0.692-0.057-3.057-0.037-3.119 0.016-0.043 0.057-0.048 0.224-0.016 0.115 0.020 0.208 0.041 0.213 0.047zM9.599 2.932c0.027 0.037 0.208 2.204 0.437 5.041 0.079 0.964 0.152 1.844 0.161 1.953 0.021 0.204 0.016 0.209-0.109 0.287-0.047 0.037-0.099 0.063-0.156 0.084-0.011 0-0.036-0.104-0.047-0.229-0.057-0.516-0.265-2.985-0.416-4.771-0.089-1.052-0.167-1.991-0.177-2.095-0.021-0.172-0.016-0.187 0.083-0.244 0.131-0.063 0.199-0.079 0.224-0.027zM20.432 3.724c0.115 0.036 0.125 0.057 0.147 0.281 0.041 0.396 0.031 2.276-0.016 2.276-0.115 0-0.349-0.136-0.369-0.208-0.021-0.412-0.027-0.828-0.021-1.24 0-1.281-0.016-1.203 0.26-1.109zM13.167 3.907c0 0.109 0.027 0.692 0.057 1.312l0.083 1.74c0.032 0.687 0.037 0.661-0.228 0.677-0.125 0.004-0.125 0.004-0.136-0.193-0.011-0.109-0.025-0.453-0.052-0.765-0.021-0.317-0.068-1-0.099-1.516-0.032-0.521-0.068-1.036-0.084-1.145-0.020-0.199-0.015-0.204 0.089-0.245 0.077-0.025 0.161-0.041 0.244-0.041 0.125-0.005 0.125-0.005 0.125 0.183zM24.083 4.448l0.131 0.052 0.032 0.527c0.009 0.285 0.020 0.911 0.009 1.38l-0.009 0.853-0.167-0.077-0.167-0.084-0.011-1.301c-0.005-0.724-0.005-1.333 0.005-1.36 0.015-0.057 0.015-0.057 0.176 0.011zM16.896 4.964c0.025 0.020 0.077 1.932 0.083 2.9l0.005 0.584-0.187-0.032c-0.063-0.004-0.131-0.015-0.199-0.025-0.011-0.011-0.125-2.927-0.125-3.208v-0.292l0.199 0.027c0.077 0.004 0.151 0.020 0.224 0.047zM25.959 5.24c0.047 0.057 0.057 0.916 0.068 5.672 0.009 5.457 0.009 5.599-0.057 5.599-0.052 0-0.1-0.021-0.141-0.047-0.057-0.048-0.063-0.521-0.083-5.183-0.005-1.901-0.021-3.803-0.048-5.703l-0.025-0.568 0.115 0.083c0.068 0.047 0.14 0.115 0.177 0.147zM22.432 6.047c0.021 0.021 0.037 0.245 0.041 0.5 0.021 0.869 0.021 6.199 0.005 6.213-0.009 0.011-0.077-0.011-0.161-0.041l-0.14-0.057v-6.692l0.115 0.020c0.057 0.021 0.12 0.041 0.14 0.063zM11.568 6.271c0.016 0.104 0.031 0.344 0.047 0.541l0.063 0.975c0.041 0.692 0.036 0.74-0.188 0.74-0.12 0-0.135-0.016-0.151-0.131-0.036-0.235-0.177-2.167-0.156-2.203 0.099-0.053 0.208-0.089 0.317-0.105 0.027-0.005 0.057 0.079 0.068 0.183zM5.063 7.271l0.192 1.943c0.063 0.647 0.12 1.199 0.12 1.224 0 0.047-0.301 0.199-0.333 0.161-0.156-1.213-0.292-2.437-0.411-3.656 0-0.093 0.301-0.495 0.339-0.448 0.015 0.005 0.052 0.36 0.093 0.776zM20.489 7.688l0.115 0.061 0.005 0.855c0.005 0.464 0.011 0.984 0.011 1.151 0.011 0.355-0.036 0.417-0.251 0.339l-0.119-0.041v-0.339c0-0.187-0.011-0.735-0.027-1.219l-0.027-0.875h0.095c0.068 0.011 0.135 0.031 0.197 0.068zM6.787 9.213l0.26 2.833 0.136 1.453-0.156 0.156-0.147 0.151-0.031-0.312c-0.016-0.172-0.095-0.973-0.177-1.787-0.084-0.807-0.199-1.984-0.26-2.609l-0.109-1.135 0.156-0.141c0.135-0.129 0.151-0.135 0.177-0.063 0.015 0.043 0.083 0.693 0.151 1.453zM3.839 9.688c0.088 0.776 0.317 2.839 0.516 4.583 0.192 1.74 0.38 3.423 0.416 3.74 0.032 0.312 0.084 0.787 0.115 1.063 0.057 0.457 0.057 0.489-0.005 0.536-0.093 0.073-0.135 0.063-0.135-0.021 0-0.036-0.037-0.333-0.079-0.656-0.068-0.536-0.188-1.453-0.453-3.505-0.052-0.411-0.161-1.233-0.235-1.828-0.167-1.276-0.333-2.552-0.489-3.828-0.073-0.536-0.115-1.011-0.104-1.063 0.027-0.109 0.26-0.473 0.287-0.453 0.005 0.011 0.083 0.657 0.172 1.433zM2.636 11.385l0.244 1.921c0.073 0.579 0.167 1.308 0.213 1.611l0.073 0.552-0.084 0.072c-0.047 0.037-0.093 0.052-0.109 0.037-0.015-0.011-0.047-0.172-0.072-0.344-0.021-0.172-0.167-1.188-0.323-2.245l-0.281-1.927 0.088-0.265c0.027-0.095 0.063-0.183 0.109-0.267 0.021 0 0.079 0.387 0.141 0.855zM24.24 10.869c0.057 0.052 0.063 0.297 0.063 2.104v2.043h-0.109c-0.24 0-0.235 0.063-0.256-2.172l-0.011-2.037h0.125c0.068 0 0.156 0.027 0.188 0.063zM15.625 11.573c0.891 0.135 1.667 0.38 2.432 0.776 0.495 0.255 0.735 0.432 1.287 0.957 0.817 0.781 1.317 1.469 1.792 2.439 0.687 1.405 0.957 2.656 1.296 6 0.152 1.5 0.355 4.219 0.396 5.333 0.011 0.323 0.041 0.853 0.063 1.176 0.041 0.693 0.093 0.6-0.516 0.896-0.848 0.412-1.661 0.693-2.735 0.953-1.317 0.323-2.167 0.427-3.463 0.432l-0.943 0.005 0.005-0.453c0-0.249 0.025-0.828 0.047-1.281 0.12-2.187 0.093-4.957-0.057-6.489-0.089-0.885-0.256-1.953-0.349-2.187-0.020-0.052 0.068-0.1 0.459-0.229 0.713-0.251 1.333-0.557 1.421-0.713 0.172-0.292-0.129-0.709-0.515-0.709-0.068 0-0.272 0.073-0.453 0.157-0.88 0.4-2.652 0.88-3.667 0.984-0.855 0.073-1.713 0.036-2.557-0.104-0.417-0.079-1.156-0.355-1.771-0.672-0.715-0.371-1.152-0.865-1.281-1.448-0.068-0.313-0.052-0.943 0.041-1.297 0.099-0.391 0.369-0.959 0.625-1.287 1.12-1.473 3.437-2.755 5.807-3.203 0.871-0.145 1.76-0.156 2.636-0.036zM27.765 11.697c0.141 0.057 0.156 0.073 0.156 0.209 0.011 1.072-0.015 3.525-0.036 3.629 0 0.037-0.203 0.043-0.292 0.005-0.057-0.015-0.063-0.229-0.063-1.963 0-1.245 0.016-1.948 0.043-1.948 0.015 0 0.109 0.031 0.192 0.063zM29.484 13.855l0.141 0.063-0.027 3.255c-0.031 4.151-0.036 4.276-0.187 4.635-0.24 0.584-0.229 0.704-0.209-1.869 0.011-1.287 0.032-2.588 0.037-2.896 0.011-0.301 0.015-1.156 0.020-1.901 0-0.895 0.011-1.343 0.043-1.343 0.020 0 0.104 0.025 0.181 0.057zM5.817 14.839c0.027 0.317 0.021 0.349-0.099 0.599l-0.125 0.271-0.047-0.396c-0.073-0.629-0.073-0.656 0.079-0.749 0.068-0.047 0.135-0.079 0.145-0.073 0.016 0.011 0.036 0.167 0.047 0.349zM3.385 17.208c0.036 0.323 0.312 2.464 0.453 3.516 0.213 1.625 0.229 1.86 0.135 1.76-0.077-0.405-0.145-0.812-0.197-1.219-0.615-4.239-0.609-4.213-0.557-4.244 0.104-0.073 0.141-0.032 0.167 0.187zM6.219 19.011c0.027 0.099 0.141 1.167 0.141 1.296 0 0.109-0.141 0.209-0.204 0.147-0.020-0.021-0.073-0.355-0.115-0.74l-0.093-0.901-0.027-0.197 0.136 0.156c0.068 0.073 0.12 0.151 0.161 0.24zM9.396 20.495c0.041 0.041 0.073 0.199 0.109 0.62 0.057 0.771 0.068 0.708-0.093 0.708-0.167 0-0.161 0.016-0.219-0.683-0.053-0.703-0.053-0.692 0.052-0.692 0.052 0 0.119 0.021 0.151 0.047zM12.516 20.552c0.005 0.041 0.025 0.276 0.041 0.527 0.011 0.244 0.047 0.807 0.079 1.239 0.109 1.589 0.113 1.792 0.047 1.792-0.079 0-0.084-0.063-0.172-1.183-0.037-0.541-0.079-1.083-0.131-1.624-0.031-0.428-0.057-0.787-0.041-0.792 0.041-0.047 0.156-0.016 0.177 0.041zM5.115 21.307c0.025 0.037 0.177 1.297 0.359 3.016 0.057 0.521 0.111 1.021 0.12 1.115l0.021 0.167-0.099-0.063c-0.068-0.036-0.109-0.115-0.1-0.192 0-0.245-0.171-1.88-0.301-2.88-0.073-0.563-0.131-1.063-0.131-1.109 0-0.084 0.095-0.115 0.131-0.048zM27.823 22.953l-0.025 1.645-0.1 0.147c-0.224 0.333-0.213 0.395-0.203-1.448l0.011-1.688 0.145-0.151c0.052-0.057 0.109-0.104 0.172-0.147 0.016 0 0.016 0.74 0 1.647zM24.188 25.563c0.015 2.287 0.015 2.464-0.048 2.536-0.041 0.041-0.077 0.068-0.088 0.057-0.025-0.031-0.068-5.016-0.036-5.047 0.015-0.016 0.057-0.021 0.088-0.021 0.052 0.016 0.068 0.292 0.084 2.475zM11.333 23.995c0.027 0.245 0.125 1.417 0.167 1.969 0.021 0.364 0.021 0.38-0.063 0.405-0.047 0.016-0.104 0.011-0.12-0.005-0.025-0.031-0.115-0.9-0.219-2.249l-0.031-0.323h0.125c0.113 0 0.119 0.011 0.14 0.203zM8.24 25.375c0.025 0.027 0.047 0.125 0.047 0.224 0 0.104 0.047 0.636 0.099 1.183 0.151 1.511 0.161 1.713 0.093 1.672-0.104-0.057-0.192-0.147-0.172-0.172 0-0.145-0.015-0.292-0.041-0.437-0.025-0.229-0.063-0.599-0.077-0.828-0.016-0.224-0.052-0.647-0.084-0.923-0.073-0.687-0.068-0.771 0.016-0.771 0.041 0 0.093 0.021 0.12 0.047zM10.099 28.021c0.016 0.088 0.037 0.411 0.052 0.719 0.032 0.588 0.016 0.629-0.145 0.511-0.047-0.037-0.079-0.183-0.125-0.631-0.083-0.813-0.083-0.781 0.068-0.765 0.115 0.009 0.131 0.025 0.151 0.167zM8.697 13.459c-0.411 0.177-0.443 0.735-0.057 0.927 0.281 0.145 0.563 0.079 0.709-0.167 0.281-0.437-0.177-0.973-0.652-0.76zM11.364 13.839c-0.375 0.235-0.375 0.781 0 1.021 0.376 0.223 0.855-0.073 0.855-0.521 0-0.432-0.495-0.724-0.855-0.505z"/>
</svg>
