<svg xmlns="http://www.w3.org/2000/svg" width="800" height="800" preserveAspectRatio="xMidYMid" viewBox="0 -183.5 512 512"><g fill="#000020"><path d="M66.678 46.541c1.151-1.696 2.41-1.912 3.433-1.912s2.724.216 3.875 1.912c9.07 12.46 24.043 37.277 35.088 55.585 7.202 11.939 12.734 21.108 13.869 22.275 4.26 4.381 10.104 1.65 13.499-3.318 3.343-4.892 4.27-8.327 4.27-11.992 0-2.496-48.427-92.562-53.304-100.059C82.718 1.822 81.19 0 73.162 0h-6.007c-8.003 0-9.16 1.821-13.85 9.032C48.428 16.53 0 106.595 0 109.092c0 3.664.928 7.099 4.27 11.99 3.396 4.97 9.24 7.7 13.5 3.32 1.135-1.168 6.667-10.337 13.87-22.276C42.683 83.818 57.607 59 66.677 46.54M387.842 39.395c19.946 0 35.807 18.007 35.807 40.279s-15.861 40.437-35.807 40.437c-10.68 0-19.003-4.423-24.343-12.479v36.488h-22.144V40.974H363.5v10.9c5.34-8.056 13.664-12.48 24.343-12.48m84.11 0C494.567 39.395 512 56.77 512 79.832s-17.434 40.279-40.047 40.279c-22.774 0-40.05-17.218-40.05-40.28 0-23.061 17.276-40.436 40.05-40.436M241.753 7.96v22.43h-44.131v19.903h39.263v22.43H197.62V96.1h44.131v22.43h-67.374V7.961zm36.033 33.013 12.72 18.323 12.879-18.323h26.385l-26.07 37.436 27.954 40.121h-26.699L290.35 97.523l-14.606 21.008h-26.384l27.797-39.963-26.07-37.594zm105.032 19.587c-10.837 0-19.318 8.372-19.318 19.113 0 10.899 8.48 19.113 19.318 19.113 10.679 0 19.317-8.372 19.317-19.113 0-10.583-8.638-19.113-19.317-19.113m89.136.158c-10.526 0-18.376 8.056-18.376 19.113 0 10.74 7.85 18.955 18.376 18.955 10.363 0 18.375-8.214 18.375-18.955 0-11.057-8.012-19.113-18.375-19.113"/></g></svg>