<svg xmlns="http://www.w3.org/2000/svg" viewBox="0 0 400 400"><g fill-rule="evenodd"><path fill="#ebcb4b" d="m199.7 15.5-60.6 105.8a23011 23011 0 0 1-138 37.2s19.1 22 42.5 48.6L86 255.6l-4.2 61.9-4.3 63.6c-.1 1.6-.1 1.7.3 1.6l63-26.6 62.7-26.4c.1 0 27.7 12.6 61.2 28.1l61 28-5.2-65.1-5.3-65.1 41.7-49.3c23-27 41.7-49.3 41.7-49.3 0-.1-28.6-6.2-63.6-13.5l-63.6-13.3-35.4-58L200.6 14zM231.3 96l30 49.3 53.6 11.3 53.5 11.2s-15.6 18.8-34.8 41.5l-35 41.3v.9c.3 2 8.7 106.8 8.7 107.4v.6L269.1 342c-42.2-19.4-39.7-18.2-41-21-1.2-2.1-1.2-1.8-1-20.7.1-21 0-23.1-2.1-28-1.1-2.6-3.6-6.2-4.4-6.5q-.8-.4 1.5-.7c25.4-2.4 40.2-15.4 43.5-38.2 2.2-15.5-.5-27.4-8.3-36.8l-1.3-1.5.5-1.6a39 39 0 0 0-1-23.8l-.5-1.2H253a45 45 0 0 0-22.9 8.6l-2.7 1.7-2.5-.6a98 98 0 0 0-45.4 0l-2.5.6-3.2-2a47 47 0 0 0-21.5-8.4c-3.3-.1-3-.4-4 2.8a38 38 0 0 0-.6 22.2l.5 1.7-1.3 1.6a39 39 0 0 0-8.9 28c.7 26.7 13 41.5 38.5 46.2l7.3 1q0 .2-1 1.2a22 22 0 0 0-5 10.7l-.4 1.8-1 .4c-12 5.1-22.6 1.6-29-9.9-2.9-4.9-9.8-8.4-14.9-7.6q-6 1 1.6 6a25 25 0 0 1 8.8 10c3.8 8.4 9 12.6 17.7 14.5a52 52 0 0 0 16.5-.6l.1 13.8v13.7l-.6 1.2c-.6 1.5-1.9 3.2-3.2 4.1-1 .7-77.7 33.2-77.8 33l3.4-52.3 3.6-53.7v-1.5l-35.9-41-36-41.2 59.8-16.3 59.7-16.1 25.5-44.4L201.2 47s13.6 22 30 49"/><path fill="#cc9434" d="m175.7 91.5-25.4 44.3-59.4 16-59.8 16c-.3.1 7.6 9.2 35.7 41.3 33.7 38.5 36 41.2 36 41.9-.3 3-7.1 106.4-7 106.4.2.3 76.8-32.3 77.8-33 3.4-2.6 3.4-2.8 3.4-19v-13.3l-.8.1c-4.5.8-5.2.9-9.3.9q-17.5-.1-23.7-14.2-2.8-6.4-9.4-10.9-7.6-5.2-1.2-6.2c5.5-.8 11.7 2.6 15.3 8.6 4.3 7.1 9.4 10.6 16.5 11.2 4.2.3 12.7-1.7 13-3a24 24 0 0 1 5.5-12.3c.8-.7.8-.7-1.6-1-28.6-3.5-42.6-18.7-43.5-47.1a39 39 0 0 1 9.8-29l.5-.6-.6-1.9a37 37 0 0 1 .7-22.2c1-3 .9-2.8 3.4-2.8a49 49 0 0 1 23.2 9l2 1.4 3.3-.7q22.6-5.1 44.6.1l2.7.7 2-1.3c9.3-6 17.6-9.2 23.6-9.2 2.2 0 2.2 0 3.1 2.8 2.6 7.9 2.8 16.4.5 23l-.3 1 1.4 1.8a37 37 0 0 1 8.7 26.3c0 29.4-14 45-43.7 48.7l-2.1.2 1 1.1a22 22 0 0 1 5.4 11.9c.3 1.8.3 4 .3 21.3v19.4l.7 1.4a9 9 0 0 0 3.7 4l75.5 34.8-4.3-53.7-4.3-54.4c0-.9 1.2-2.3 34.9-42.1 33.8-40 34.9-41.2 34.3-41.4l-106.2-22.3c-.2 0-13.8-22.2-30.3-49.2l-30.1-49.1z"/><path fill="#dcb444" d="M150.7 161.8h1.7-1.7m101.3 0h1.7-1.7m-54.8 7.3h1.1q.4 0-.5-.1zm9 0h1-1.1m52 6.7v.5-1.2zM146 177q0 1 .1.5v-1zm111.8 1.6q0 1.1.1.6V178zm8.3 35v.5-1.1zM137.8 216q0 2 .1 1.1V215zm128.5 2.7v.7-1.5zM138 221.6q0 .7.1.3v-.8zm12 30.4.9.9-.8-.9-.9-.9zm-47.4 0v.4-.8zm196.2 2.6q0 .6.1.3v-.7zm-196.6.6q0 .6.1.4v-.8zm196.6 2q0 .5.1.3v-.7zm-197 1.3q0 .6.1.4v-.8zm-.3 3.1q0 .7.1.4v-.9zm-.3 3.2q0 .7.1.4v-.9zm197.9.3v.4-.7zm-79.2.4.1.4h.1q0-.3.4-.4.7-.1 0-.1zm-119 2.5v.4-.9zm198.6 2.5q0 .6.1.3v-.7zm-198.8.7v.4-.9zm199 1.8q0 .6.1.4v-.7zM101 274.3v.4-.9zm-.2 3.2v.4-.9zm199.8.8q0 .6.1.3v-.7zm-200.2 2.3q0 .6.1.4v-.8zm200.3.2v.4-.7zm-200.6 3q0 .6.1.4v-.8zm200.9 2.4v.3-.7zm-201.2.7q0 .8.1.4v-.9zm201.3 1.8q0 .6.1.4v-.7zM100 290.1q0 .8.1.4v-.9zm77.1 15.3.1 6.8zm-77.4-12v.3-.9zm66.2-.1h2l-1.1-.1zm136 1q0 .7.1.3v-.7zm-202.5 2.4v.4-.9zm202.6.1q0 .6.1.4v-.7zm-203 3.1q0 .8.2.4v-.9zm203.3 2.3v.3-.7zM99 303q0 .7.1.3v-.8zm203.7 1.6v.4-.7zm-204 1.5q0 .7.1.4v-.7zm128.1 6v3.2c0-1.7.1-4.6 0-6.4zm-128.4-2.7q0 .6.1.4v-.7zm204.5.7q0 .7.1.4v-.8zm-204.9 2.4q0 .8.1.4v-.8q0-.3 0 .4m-.3 3.2v.4q.1-.5 0-.8zm205.6 2.3q0 .6.1.4v-.8zm-206 1q0 .7.2.3v-.8zm-.2 3.2v.4q.1-.5 0-.8zm-.2 3.2v.4q0-.5 0-.8zm206.9.6v.4-.8zm-207.2 2.7q0 .7.1.3v-.8zm-.3 3q0 .7.1.4v-.7zm208 2.2v.4-.8zm-208.3 1q0 .7.1.4v-.7zm-.3 3.3v.3-.7zm-.2 3v.4q.1-.4 0-.8zm209.3.6v.4-.8zm-209.5 2.7v.3q0-.5 0-.8zm-.2 3.2v.3q.1-.4 0-.8zm210.3 2q0 .6.1.4v-.8zm-210.7 1.2q0 .7.1.3v-.8zm-.3 3.2q0 .7.1.3v-.8zm-.3 3.2q0 .7.1.3v-.8zm211.6.3v.4-.8z"/><path fill="#d4a43c" d="M201.4 168.9h1.6q.6 0-.8-.1c-1.4-.1-1.2 0-.8 0m-55.3 6.7q0 .7.1.4v-.7zm0 3.3v.3-.7zm-8.4 40.2q0 .7.1.4v-.9zm89.5 70.7v3.7z"/></g></svg>
