<svg xmlns="http://www.w3.org/2000/svg" viewBox="0 0 374 200"><g data-name="Layer 2"><g data-name="Layer 1"><path fill="#008ec7" d="M326 0H48L0 100l48 100h278l48-100Zm-16 183H58l-40-83 40-83h252l40 83Z"/><path fill="#005b9b" d="m350 100-40 83H58l-40-83 40-83h252z"/><path fill="#fff" d="M128 72v59h-14v-24H87v24H73V72h14v23h27V72Zm27 11h-20V72h52v11h-19v48h-13Zm53 0h-19V72h52v11h-19v48h-14Zm80-8 9 7 3 11-3 12-9 7-14 3h-12v16h-14V72h26zm-5 26a9 9 0 0 0 3-8q0-4-3-7-4-4-10-3h-11v21h11q6 0 10-3"/></g></g></svg>
