<svg xmlns="http://www.w3.org/2000/svg" width="2500" height="2282" viewBox="-1.193 0.5 25.193 24.582"><path fill="#1266a9" d="M1.406 16.346q.035.077.077.148.021.043.047.083.04.078.081.152l.157.264q.042.073.09.145c.055.094.12.186.177.28q.037.059.079.117c.11.171.21.313.317.451q.113.154.234.305.042.057.085.114l.221.268c.027.031.054.067.083.099q.148.175.306.348.001.003.005.007.193.242.42.434l.004.004q.119.123.245.243l.101.097q.165.157.339.307.003 0 .005.003l.057.05q.153.135.31.259l.125.105q.128.1.26.199l.136.104c.093.07.192.138.287.206q.052.038.106.073l.029.023.281.184.12.08q.22.14.439.27.064.032.123.068.164.095.329.182.09.05.184.094.113.062.233.125.032.01.058.024l.004-.004q.049.023.096.047.18.09.375.173.037.014.076.034.215.094.437.181c.034.01.07.027.105.04q.204.078.412.152l.05.018q.228.078.46.149.054.017.111.033c.159.048.313.105.474.135 10.273 1.863 13.258-6.146 13.258-6.146-2.508 3.25-6.959 4.107-11.174 3.153-.156-.036-.312-.086-.47-.132a12 12 0 0 1-.663-.209l.095.029-.062-.024q-.202-.07-.4-.148l-.099-.038-.011-.003q-.22-.088-.432-.182c-.031-.01-.057-.024-.088-.036a14 14 0 0 1-.5-.23l.138.061a2 2 0 0 1-.106-.052c-.094-.044-.188-.094-.28-.141a4 4 0 0 1-.207-.106l.02.01c-.113-.06-.226-.125-.34-.186q-.052-.035-.112-.066a14 14 0 0 1-.502-.306l.063.038a2 2 0 0 1-.124-.083l.006.004a6 6 0 0 1-.316-.208q-.05-.033-.1-.07a9 9 0 0 1-.318-.228l.024.017q-.064-.05-.132-.099c-.088-.069-.177-.135-.265-.207l-.118-.094a10 10 0 0 1-.37-.309l-.001-.001-.347-.315-.1-.094q-.123-.123-.25-.244l-.097-.1a9 9 0 0 1-.303-.315l-.006-.007-.017-.014a18 18 0 0 1-.313-.353q-.04-.047-.08-.097l-.227-.275a14 14 0 0 1-.3-.391l-.04-.056C2.152 11.79 1.306 7.407 3.177 3.811L1.525 5.9C-.6 8.939-.337 12.891 1.288 16.118q.057.117.118.228"/><path d="m8.563 11.968-.011-.016-.009-.012z"/><path fill="#1266a9" d="m9.681 13.28.09.09q.171.164.35.324l.015.013c.12.106.255.217.394.325l.021.016c.034.023.063.05.096.073q.209.16.428.314l.015.009q.093.066.198.13c.028.018.06.042.09.06q.158.1.317.196.025.011.048.023c.09.055.188.108.282.156.033.02.065.035.099.054q.1.05.197.102l.032.014q.204.098.408.189.05.018.092.038.168.072.335.136c.05.017.097.037.144.052.102.038.209.073.31.108l.14.045c.146.045.294.104.449.128C22.164 17.181 24 11.104 24 11.104c-1.653 2.367-4.852 3.495-8.261 2.614a8 8 0 0 1-.506-.145l.057.016c-.048-.013-.09-.028-.136-.042-.104-.036-.211-.071-.312-.108l-.144-.054c-.112-.045-.226-.087-.335-.135-.034-.015-.065-.025-.091-.04q-.211-.093-.418-.191l-.206-.107-.119-.06c-.092-.048-.177-.098-.265-.149a1 1 0 0 1-.065-.036l.003.001c-.106-.066-.216-.13-.318-.197q-.05-.03-.097-.062l-.208-.135c-.144-.1-.285-.207-.428-.311q-.048-.042-.094-.079c-1.499-1.173-2.681-2.776-3.242-4.591-.591-1.887-.461-4.003.56-5.72L8.12 3.341c-1.541 2.201-1.454 5.143-.254 7.471.219.43.441.793.686 1.139.228.326.48.708.784.97.108.123.224.24.345.359"/><path d="m2.436 17.992-.004-.006-.007-.009zm4.158-.744.01.007.002.003z"/><path fill="#1266a9" d="M13.666 1.427c-.909 1.327-.996 2.975-.37 4.438.665 1.554 2.024 2.774 3.608 3.352q.096.036.195.07l.088.027c.092.029.185.063.28.084 4.381.841 5.567-2.238 5.886-2.691-1.043 1.49-2.792 1.848-4.938 1.329a5 5 0 0 1-.55-.17l.033.011a6 6 0 0 1-.656-.27l.038.017c-.41-.2-.762-.416-1.089-.664-1.918-1.45-3.104-4.211-1.852-6.46z"/></svg>