<svg xmlns="http://www.w3.org/2000/svg" viewBox="1 0 1023 1024"><path d="m479 1-16 1a513 513 0 1 0 292 960l-84-112-82-111-102-151-103-152-1 150c0 144-1 150-2 153q-4 7-9 9c-3 2-6 2-21 2h-18l-4-3-7-7-2-5V334l4-4 7-6c4-2 6-2 23-2 20 0 24 1 29 7 2 1 57 85 123 186l202 305 81 123 4-3a525 525 0 0 0 226-353c4-29 4-37 4-75s0-46-4-74A514 514 0 0 0 479 1m209 309q8 4 10 12l1 183-1 180-31-48-32-49V457l1-134q3-9 10-13c4-2 5-2 21-2 15 0 18 0 21 2"/><path d="M784 945q-5 4-1 2l5-4zm-7 5zl2-1zm-5 3zl2-1zm-5 3zl2-1zm-7 4q-6 3 0 1l3-2z"/></svg>
