<svg xmlns="http://www.w3.org/2000/svg" viewBox="35.98 139.2 648.03 430.85"><defs><radialGradient id="a" cx="0" cy="0" r="1" fx="0" fy="0" gradientTransform="matrix(131 157 -260 217 48.67 228.77)" gradientUnits="userSpaceOnUse"><stop offset="0" stop-color="#4894fe"/><stop offset=".7" stop-color="#0934b3"/></radialGradient><radialGradient id="b" cx="0" cy="0" r="1" fx="0" fy="0" gradientTransform="matrix(-575 664 -492 -426 596.96 -6.38)" gradientUnits="userSpaceOnUse"><stop offset=".17" stop-color="#23c0fe"/><stop offset=".53" stop-color="#1c91ff"/></radialGradient><radialGradient id="c" cx="0" cy="0" r="1" fx="0" fy="0" gradientTransform="matrix(-137 -115 263 -313 181.2 240.4)" gradientUnits="userSpaceOnUse"><stop offset="0" stop-color="#fff" stop-opacity=".4"/><stop offset=".66" stop-color="#adc0ff" stop-opacity="0"/></radialGradient><radialGradient id="d" cx="0" cy="0" r="1" fx="0" fy="0" gradientTransform="matrix(-154 -130 197 -233 375.35 451.44)" gradientUnits="userSpaceOnUse"><stop offset="0" stop-color="#033acc"/><stop offset="1" stop-color="#368eff" stop-opacity="0"/></radialGradient><radialGradient id="e" cx="0" cy="0" r="1" fx="0" fy="0" gradientTransform="matrix(176 405 -437 190 169.38 125.59)" gradientUnits="userSpaceOnUse"><stop offset=".59" stop-color="#3464e3" stop-opacity="0"/><stop offset="1" stop-color="#033acc" stop-opacity=".6"/></radialGradient><radialGradient id="f" cx="0" cy="0" r="1" fx="0" fy="0" gradientTransform="matrix(-459 459 -720 -720 589.88 39.48)" gradientUnits="userSpaceOnUse"><stop offset="0" stop-color="#4bfde8" stop-opacity=".9"/><stop offset=".54" stop-color="#4bfde8" stop-opacity="0"/></radialGradient><radialGradient id="h" cx="0" cy="0" r="1" fx="0" fy="0" gradientTransform="matrix(274 109 -205 518 296.49 307.44)" gradientUnits="userSpaceOnUse"><stop offset="0" stop-color="#fff" stop-opacity=".4"/><stop offset=".79" stop-color="#fff" stop-opacity="0"/></radialGradient><radialGradient id="i" cx="0" cy="0" r="1" fx="0" fy="0" gradientTransform="matrix(-306 263 -264 -307 674.85 249.38)" gradientUnits="userSpaceOnUse"><stop offset="0" stop-color="#4bfde8" stop-opacity=".9"/><stop offset=".58" stop-color="#4bfde8" stop-opacity="0"/></radialGradient><linearGradient id="g" x1="30" x2="30" y1="37.98" y2="18.4" gradientTransform="scale(15)" gradientUnits="userSpaceOnUse"><stop offset="0" stop-color="#0086ff"/><stop offset=".49" stop-color="#0bf"/></linearGradient></defs><path fill="url(#a)" d="M215.08 205.09c-99.07 0-173.12 81.1-178.7 171.44 3.46 19.46 14.8 57.9 32.56 55.93 22.2-2.47 78.13 0 125.83-86.35 34.84-63.08 106.52-141.02 20.3-141.02m0 0"/><path fill="url(#b)" d="M192.17 238.81c-33.3 52.73-78.13 128.28-93.26 152.05-17.98 28.26-65.6 16.25-61.66-24.25q-.58 4.93-.9 9.94c-6.5 105.38 77.05 192.9 181.03 192.9 114.59 0 387.89-142.78 360.23-285.84-29.15-84.09-111.09-144.4-203.95-144.4S221.3 192.7 192.17 238.8m0 0"/><path fill="url(#c)" d="M192.17 238.81c-33.3 52.73-78.13 128.28-93.26 152.05-17.98 28.26-65.6 16.25-61.66-24.25q-.58 4.93-.9 9.94c-6.5 105.38 77.05 192.9 181.03 192.9 114.59 0 387.89-142.78 360.23-285.84-29.15-84.09-111.09-144.4-203.95-144.4S221.3 192.7 192.17 238.8m0 0"/><path fill="url(#d)" d="M192.17 238.81c-33.3 52.73-78.13 128.28-93.26 152.05-17.98 28.26-65.6 16.25-61.66-24.25q-.58 4.93-.9 9.94c-6.5 105.38 77.05 192.9 181.03 192.9 114.59 0 387.89-142.78 360.23-285.84-29.15-84.09-111.09-144.4-203.95-144.4S221.3 192.7 192.17 238.8m0 0"/><path fill="url(#e)" d="M192.17 238.81c-33.3 52.73-78.13 128.28-93.26 152.05-17.98 28.26-65.6 16.25-61.66-24.25q-.58 4.93-.9 9.94c-6.5 105.38 77.05 192.9 181.03 192.9 114.59 0 387.89-142.78 360.23-285.84-29.15-84.09-111.09-144.4-203.95-144.4S221.3 192.7 192.17 238.8m0 0"/><path fill="url(#f)" d="M192.17 238.81c-33.3 52.73-78.13 128.28-93.26 152.05-17.98 28.26-65.6 16.25-61.66-24.25q-.58 4.93-.9 9.94c-6.5 105.38 77.05 192.9 181.03 192.9 114.59 0 387.89-142.78 360.23-285.84-29.15-84.09-111.09-144.4-203.95-144.4S221.3 192.7 192.17 238.8m0 0"/><path fill="url(#g)" d="M215.7 569.5s273.62.54 320.03.54c84.23 0 148.27-68.77 148.27-149 0-80.25-65.33-148.6-148.27-148.6s-130.7 62.05-166.58 129.79C327.12 481.59 273.5 568.55 215.7 569.5m0 0"/><path fill="url(#h)" d="M215.7 569.5s273.62.54 320.03.54c84.23 0 148.27-68.77 148.27-149 0-80.25-65.33-148.6-148.27-148.6s-130.7 62.05-166.58 129.79C327.12 481.59 273.5 568.55 215.7 569.5m0 0"/><path fill="url(#i)" d="M215.7 569.5s273.62.54 320.03.54c84.23 0 148.27-68.77 148.27-149 0-80.25-65.33-148.6-148.27-148.6s-130.7 62.05-166.58 129.79C327.12 481.59 273.5 568.55 215.7 569.5m0 0"/></svg>