<svg xmlns="http://www.w3.org/2000/svg" xmlns:xlink="http://www.w3.org/1999/xlink" xml:space="preserve" width="381.851" height="180.603"><defs><linearGradient id="a" x1="0" x2="1" y1="0" y2="0" gradientTransform="matrix(0 -91.8907 -91.8907 0 85.88 161.434)" gradientUnits="userSpaceOnUse" spreadMethod="pad"><stop offset="0" style="stop-color:#97d9f6;stop-opacity:1"/><stop offset=".92" style="stop-color:#0f80cc;stop-opacity:1"/><stop offset="1" style="stop-color:#0f80cc;stop-opacity:1"/></linearGradient><linearGradient xlink:href="#a" id="b" x1="-15.615" x2="-6.741" y1="-9.108" y2="-9.108" gradientTransform="matrix(0 11.48634 -11.48634 0 -30.84 202.187)" gradientUnits="userSpaceOnUse" spreadMethod="pad"/></defs><path d="M147.531 89.219c-4.822 0-8.744 1.427-11.75 4.281-3.006 2.856-4.531 6.6-4.531 11.188 0 2.377.379 4.545 1.125 6.53.746 1.991 1.908 3.835 3.469 5.5 1.561 1.668 4.686 3.933 9.344 6.813 5.715 3.49 9.455 6.32 11.25 8.531 1.796 2.21 2.687 4.524 2.687 6.938 0 3.232-1.064 5.811-3.25 7.75-2.19 1.94-5.119 2.906-8.75 2.906-3.83 0-7.166-1.35-10.031-4.031-2.865-2.685-4.311-6.236-4.344-10.687h-1.781v16.156h1.781c.544-1.53 1.296-2.313 2.281-2.313.474 0 1.584.327 3.313.938 4.206 1.496 7.66 2.219 10.375 2.219 4.679 0 8.672-1.64 12-4.97 3.322-3.328 5-7.343 5-12.03 0-3.635-1.108-6.87-3.281-9.688-2.174-2.822-6.402-6.105-12.72-9.875-5.435-3.266-8.964-5.926-10.593-8-1.631-2.07-2.469-4.361-2.469-6.875 0-2.719.999-4.902 2.969-6.531 1.97-1.63 4.551-2.438 7.781-2.438 3.635 0 6.665 1.079 9.063 3.25 2.395 2.175 3.78 5.19 4.187 9.063h1.781v-14h-1.656q-.303 1.07-.562 1.375c-.168.204-.49.312-.969.312-.576 0-1.604-.242-3.062-.718-3.125-1.053-6.007-1.594-8.657-1.594m58.219 0c-5.876 0-11.211 1.385-16.031 4.156-4.828 2.766-8.649 6.608-11.469 11.5-2.819 4.892-4.219 10.088-4.219 15.625 0 7.439 2.435 14.066 7.344 19.875 4.911 5.805 10.796 9.422 17.625 10.813 1.561.813 3.795 2.913 6.719 6.312 3.295 3.836 6.082 6.603 8.375 8.25a25.2 25.2 0 0 0 7.375 3.656c2.615.797 5.442 1.188 8.5 1.188 3.702 0 7.017-.644 9.937-1.969L239.25 167c-1.695.611-3.502.906-5.406.906-2.584 0-5.195-.852-7.813-2.562-2.614-1.715-5.882-4.987-9.781-9.813-1.832-2.312-3.097-3.771-3.812-4.344 7.47-1.459 13.615-5.08 18.406-10.875 4.79-5.792 7.187-12.403 7.187-19.812 0-8.797-3.13-16.19-9.344-22.219-6.218-6.028-13.866-9.062-22.937-9.062m36.344 0 .093 1.906c3.913 0 6.104 1.153 6.594 3.469.183.829.266 2.359.281 4.562l-.03 42.156q-.05 4.724-1.345 6.032c-.863.866-2.323 1.409-4.437 1.625l-.094 1.906h39l1-9.562h-1.781c-.509 2.605-1.675 4.47-3.531 5.53-1.861 1.069-5.153 1.595-9.906 1.595h-3.688c-4.277 0-6.752-1.547-7.406-4.657-.135-.615-.181-1.275-.188-2l.157-42.625c-.001-3.143.396-5.25 1.218-6.281.832-1.027 2.33-1.602 4.5-1.75l-.093-1.906zm-35.719 2.312c6.628 0 12.039 2.61 16.219 7.875 4.179 5.267 6.25 12.485 6.25 21.625 0 8.661-2.101 15.596-6.313 20.813-4.211 5.215-9.816 7.812-16.781 7.812-6.691 0-12.117-2.679-16.281-8.062-4.16-5.384-6.219-12.374-6.219-20.969 0-8.832 2.084-15.903 6.281-21.187 4.195-5.28 9.813-7.907 16.844-7.907m89.688 9.063c-.952 0-1.677.321-2.22.969-.554.645-.724 1.426-.53 2.375.187.92.706 1.727 1.53 2.406.82.678 1.706 1.031 2.657 1.031.92 0 1.621-.353 2.125-1.031.504-.68.658-1.486.469-2.406-.194-.95-.695-1.73-1.469-2.375-.782-.648-1.642-.97-2.562-.97m25.718 6.469c-1.616 6.217-5.12 9.582-10.5 10.125l.063 1.78h6.281l-.125 21.063c.01 3.601.12 5.999.375 7.219.619 2.921 2.526 4.406 5.719 4.406q6.93 0 14.531-8.437l-1.531-1.313c-3.659 3.704-6.894 5.563-9.719 5.563-1.736 0-2.812-.999-3.219-2.969-.111-.478-.156-1.038-.156-1.687l.063-23.844h9.593l-.093-2.844h-9.47v-9.062zM358.875 115c-5.366 0-9.731 2.605-13.125 7.781-3.376 5.185-4.421 10.93-3.094 17.25.781 3.702 2.338 6.572 4.719 8.594 2.378 2.022 5.394 3.031 9 3.031 3.358 0 8.033-.85 10-2.562 1.973-1.712 3.79-4.484 5.469-8.281l-1.344-1.407c-2.677 4.926-8.081 7.406-12.156 7.406-5.603 0-9.034-3.073-10.313-9.187-.166-.78-.29-1.619-.375-2.5 6.665-1.055 11.716-2.924 15.125-5.625 3.406-2.703 6.826-5.567 6.188-8.594-.38-1.798-1.314-3.212-2.75-4.281-1.455-1.068-5.233-1.625-7.344-1.625m-58.656.219-11.563 2.656v2.063l4-.5c1.938 0 3.078.877 3.438 2.625.121.584.197 1.406.219 2.437l-.125 18.906c-.033 2.616-.323 4.137-.907 4.594q-.884.688-4.656.688l-.062 1.78h18.343l-.031-1.78c-2.549 0-4.201-.202-4.937-.594-.724-.39-1.223-1.1-1.438-2.188-.166-.783-.239-2.134-.25-4l.063-26.687zm55.719 3.5c1.116 0 2.195.43 3.28 1.281 1.072.847 1.724 1.79 1.938 2.813 1.046 5.026-3.41 8.5-13.437 10.437-.286-3.665.349-6.992 1.969-10 1.607-3.005 3.7-4.531 6.25-4.531" style="fill:#003b57;fill-opacity:1;fill-rule:nonzero;stroke:none"/><path d="M121.632 17.036H22.126C15.456 17.036 10 22.494 10 29.162V138.9c0 6.668 5.457 12.125 12.126 12.125h65.537c-.744-32.61 10.391-95.894 33.969-133.988" style="fill:#0f80cc;fill-opacity:1;fill-rule:nonzero;stroke:none"/><path d="M118.017 20.574H22.124c-4.735 0-8.588 3.852-8.588 8.588v101.73c21.717-8.334 54.312-15.526 76.85-15.2 4.528-23.68 17.839-70.09 27.63-95.118" style="fill:url(#b);fill-opacity:1;fill-rule:nonzero;stroke:none"/><path d="M144.842 13.445c-6.816-6.078-15.067-3.636-23.21 3.591a58 58 0 0 0-3.616 3.538c-13.93 14.778-26.862 42.153-30.88 63.06 1.566 3.173 2.788 7.223 3.593 10.317.206.794.393 1.539.541 2.173.354 1.5.544 2.472.544 2.472s-.125-.472-.637-1.959a123 123 0 0 0-.336-.962 11 11 0 0 0-.214-.531c-.91-2.113-3.423-6.572-4.53-8.513a213 213 0 0 0-2.482 7.765c3.194 5.844 5.14 15.858 5.14 15.858s-.168-.649-.971-2.914c-.712-2.004-4.261-8.221-5.102-9.675-1.438 5.309-2.01 8.893-1.494 9.765 1 1.691 1.953 4.609 2.79 7.835 1.89 7.269 3.204 16.117 3.204 16.117s.042.587.113 1.49a148 148 0 0 0 .368 18.152c.626 7.572 1.805 14.077 3.307 17.558l1.02-.556c-2.206-6.859-3.102-15.847-2.71-26.214.594-15.845 4.24-34.953 10.978-54.87 11.382-30.065 27.175-54.187 41.629-65.707-13.174 11.897-31.004 50.409-36.342 64.67-5.976 15.97-10.211 30.956-12.763 45.315 4.403-13.461 18.642-19.247 18.642-19.247s6.984-8.613 15.145-20.918c-4.889 1.115-12.916 3.024-15.605 4.154-3.966 1.663-5.035 2.231-5.035 2.231s12.848-7.824 23.87-11.366c15.159-23.875 31.674-57.793 15.043-72.629" style="fill:#003b57;fill-opacity:1;fill-rule:nonzero;stroke:none"/></svg>