<?xml version="1.0" standalone="no"?>
<!DOCTYPE svg PUBLIC "-//W3C//DTD SVG 20010904//EN"
 "http://www.w3.org/TR/2001/REC-SVG-20010904/DTD/svg10.dtd">
<svg version="1.0"
    xmlns="http://www.w3.org/2000/svg" width="1280.000000pt" height="924.000000pt" viewBox="0 0 1280.000000 924.000000" preserveAspectRatio="xMidYMid meet">
    <metadata>
Created by potrace 1.15, written by Peter Selinger 2001-2017
    </metadata>
    <g transform="translate(0.000000,924.000000) scale(0.100000,-0.100000)" fill="#1a202c" stroke="none">
        <path d="M5905 9230 c-1798 -115 -3490 -914 -5175 -2444 -91 -83 -293 -277
-449 -431 l-283 -281 528 -506 529 -506 270 267 c149 146 335 325 415 397
1869 1685 3702 2322 5595 1943 1358 -271 2797 -1094 4214 -2409 74 -69 158
-146 187 -173 l52 -47 448 467 c247 258 475 495 507 529 l57 61 -173 160
c-1962 1823 -3826 2779 -5767 2958 -194 18 -768 27 -955 15z"/>
        <path d="M5945 6613 c-487 -39 -853 -114 -1300 -267 -920 -312 -1813 -899
-2709 -1777 -125 -122 -226 -225 -226 -229 0 -5 199 -199 442 -431 244 -233
480 -459 525 -503 l82 -79 189 184 c300 294 518 484 797 694 642 485 1278 784
1915 899 231 41 342 51 610 51 267 -1 368 -9 610 -51 936 -163 1919 -718 2938
-1658 85 -77 156 -140 158 -139 14 9 1004 1045 1004 1052 0 16 -394 372 -610
552 -967 804 -1919 1320 -2880 1559 -281 70 -549 114 -855 140 -108 9 -591 11
-690 3z"/>
        <path d="M6035 4054 c-671 -53 -1337 -336 -1945 -827 -199 -161 -545 -486
-539 -506 2 -5 239 -235 527 -510 l522 -500 103 101 c574 564 1131 825 1664
778 326 -29 633 -144 983 -368 180 -115 437 -319 593 -471 l68 -66 57 60 c32
33 258 269 502 524 245 255 446 468 447 475 1 6 -49 57 -110 113 -761 692
-1495 1072 -2273 1178 -114 16 -490 27 -599 19z"/>
        <path d="M6115 1659 c-299 -43 -565 -236 -689 -500 -55 -116 -70 -187 -70
-324 0 -137 15 -208 70 -324 154 -326 504 -527 884 -507 354 18 652 207 791
502 54 113 72 197 72 329 0 136 -19 220 -78 340 -167 344 -570 543 -980 484z"/>
    </g>
</svg>
