<svg width="177" height="374" viewBox="0 0 177 374" fill="none" xmlns="http://www.w3.org/2000/svg">
<g clip-path="url(#clip0_2177_288)">
<path d="M176.408 23.1178L176.408 1.57753C176.408 0.663583 175.667 -0.0773162 174.753 -0.0773163L129.526 -0.0773201C128.613 -0.0773202 127.872 -0.818224 127.872 -1.73217V-23.2725C127.872 -24.1864 128.613 -24.9273 129.526 -24.9273L150.485 -24.9273C151.399 -24.9273 152.14 -25.6682 152.14 -26.5822V-48.1225C152.14 -49.0364 151.399 -49.7773 150.485 -49.7773L-0.402309 -49.7773L-0.402344 399.361H101.949C102.863 399.361 103.604 398.62 103.604 397.706L103.604 375.247C103.604 374.333 104.344 373.592 105.258 373.592H126.217C127.131 373.592 127.872 372.851 127.872 371.937V350.397C127.872 349.483 127.131 348.742 126.217 348.742H105.258C104.344 348.742 103.604 348.001 103.604 347.087V325.547C103.604 324.633 104.344 323.892 105.258 323.892H127.872H150.485C151.399 323.892 152.14 323.151 152.14 322.237L152.14 300.697C152.14 299.783 151.399 299.042 150.485 299.042H127.872H105.258C104.344 299.042 103.604 298.301 103.604 297.387L103.604 275.847C103.604 274.933 104.344 274.192 105.258 274.192H127.872H150.485C151.399 274.192 152.14 273.451 152.14 272.537V250.997C152.14 250.083 152.881 249.342 153.795 249.342H174.753C175.667 249.342 176.408 248.601 176.408 247.687L176.408 226.147C176.408 225.233 175.667 224.492 174.753 224.492H129.526C128.613 224.492 127.872 223.751 127.872 222.837V201.297C127.872 200.383 128.613 199.642 129.526 199.642H150.485C151.399 199.642 152.14 198.901 152.14 197.987V176.447C152.14 175.533 151.399 174.792 150.485 174.792L101.949 174.792C102.863 174.792 103.604 174.051 103.604 173.137L103.604 150.678C103.604 149.764 104.344 149.023 105.258 149.023H126.217C127.131 149.023 127.872 148.282 127.872 147.368V125.828C127.872 124.914 127.131 124.173 126.217 124.173H105.258C104.344 124.173 103.604 123.432 103.604 122.518V100.978C103.604 100.064 104.344 99.3227 105.258 99.3227H127.872H150.485C151.399 99.3227 152.14 98.5818 152.14 97.6678L152.14 76.1276C152.14 75.2136 151.399 74.4727 150.485 74.4727H127.872L105.258 74.4727C104.344 74.4727 103.604 73.7318 103.604 72.8178L103.604 51.2775C103.604 50.3636 104.344 49.6227 105.258 49.6227H127.872L150.485 49.6227C151.399 49.6227 152.14 48.8818 152.14 47.9678V26.4275C152.14 25.5136 152.881 24.7727 153.795 24.7727H174.753C175.667 24.7727 176.408 24.0318 176.408 23.1178Z" fill="#131720"/>
</g>
<defs>
<clipPath id="clip0_2177_288">
<rect width="177" height="374" fill="white"/>
</clipPath>
</defs>
</svg>
