<svg width="247" height="92" viewBox="0 0 247 92" fill="none" xmlns="http://www.w3.org/2000/svg">
<g clip-path="url(#clip0_2177_284)">
<path d="M156.476 -0.119629L183.893 -0.119629C184.806 -0.119629 185.547 0.621274 185.547 1.53522V59.7157C185.547 60.6297 186.288 61.3706 187.202 61.3706H214.619C215.533 61.3706 216.274 60.6297 216.274 59.7157V32.2803C216.274 31.3664 217.015 30.6255 217.929 30.6255L245.345 30.6255C246.259 30.6255 247 31.3664 247 32.2803V222.226C247 223.139 246.259 223.88 245.345 223.88H-168.345C-169.259 223.88 -170 223.139 -170 222.226L-170 93.7705C-170 92.8565 -169.259 92.1157 -168.345 92.1157L-0.465393 92.1157C0.448557 92.1157 1.18945 91.3748 1.18945 90.4608V63.0254C1.18945 62.1115 1.93035 61.3706 2.8443 61.3706L30.2609 61.3706C31.1749 61.3706 31.9158 62.1115 31.9158 63.0254V90.4608C31.9158 91.3748 32.6567 92.1157 33.5706 92.1157L60.9872 92.1157C61.9012 92.1157 62.6421 91.3748 62.6421 90.4608V61.3706V32.2803C62.6421 31.3664 63.383 30.6255 64.2969 30.6255H91.7136C92.6275 30.6255 93.3684 31.3664 93.3684 32.2803V61.3706V90.4608C93.3684 91.3748 94.1093 92.1157 95.0233 92.1157H122.44C123.354 92.1157 124.095 91.3748 124.095 90.4608V61.3706V32.2803C124.095 31.3664 124.836 30.6255 125.75 30.6255L153.166 30.6255C154.08 30.6255 154.821 29.8846 154.821 28.9706V1.53522C154.821 0.621273 155.562 -0.119629 156.476 -0.119629Z" fill="#E6008D"/>
</g>
<defs>
<clipPath id="clip0_2177_284">
<rect width="247" height="92" fill="white"/>
</clipPath>
</defs>
</svg>
