<svg width="260" height="76" viewBox="0 0 260 76" fill="none" xmlns="http://www.w3.org/2000/svg">
<path d="M39.0475 2.39296C39.0475 1.47901 39.7884 0.738104 40.7024 0.738104L56.475 0.738104C57.3889 0.738104 58.1298 1.47901 58.1298 2.39296L58.1298 18.1845C58.1298 19.0985 58.8707 19.8394 59.7847 19.8394L75.5573 19.8394C76.4713 19.8394 77.2122 20.5803 77.2122 21.4943L77.2122 38.9407L77.2122 56.3871C77.2122 57.3011 77.9531 58.042 78.867 58.042L94.6397 58.042C95.5536 58.042 96.2945 57.3011 96.2945 56.3871L96.2945 38.9407L115.377 38.9407L115.377 56.3871C115.377 57.3011 116.118 58.042 117.032 58.042L132.804 58.042C133.718 58.042 134.459 57.3011 134.459 56.3871L134.459 40.5955C134.459 39.6816 135.2 38.9407 136.114 38.9407L151.887 38.9407C152.801 38.9407 153.542 39.6816 153.542 40.5955L153.542 56.3871C153.542 57.3011 154.282 58.042 155.196 58.042L258.203 58.042C259.117 58.042 259.857 58.7829 259.857 59.6968L259.857 138.25C259.857 139.164 259.117 139.905 258.203 139.905L2.53767 139.905C1.62372 139.905 0.882819 139.164 0.882819 138.25L0.882816 21.4943C0.882816 20.5803 1.62372 19.8394 2.53767 19.8394L18.3103 19.8394C19.2243 19.8394 19.9652 20.5803 19.9652 21.4943L19.9652 37.2858C19.9652 38.1998 20.7061 38.9407 21.62 38.9407L37.3926 38.9407C38.3066 38.9407 39.0475 38.1998 39.0475 37.2858L39.0475 2.39296Z" fill="#1A202C"/>
<path d="M96.2945 21.4942C96.2945 20.5803 97.0354 19.8394 97.9494 19.8394L113.722 19.8394C114.636 19.8394 115.377 20.5803 115.377 21.4942L115.377 38.9407L96.2945 38.9407L96.2945 21.4942Z" fill="#1A202C"/>
</svg>
