<svg width="26" height="20" viewBox="0 0 26 20" fill="none" xmlns="http://www.w3.org/2000/svg">
<path d="M0.0213069 20V14.4943C0.0213069 12.911 0.318182 11.2647 0.911932 9.5554C1.52367 7.82812 2.35133 6.19981 3.39489 4.67045C4.45644 3.12311 5.64394 1.81865 6.95739 0.757099L11.4915 3.69886C10.4299 5.30019 9.5393 6.97348 8.8196 8.71875C8.1179 10.446 7.77604 12.3532 7.79403 14.4403V20H0.0213069ZM13.7045 20V14.4943C13.7045 12.911 14.0014 11.2647 14.5952 9.5554C15.2069 7.82812 16.0346 6.19981 17.0781 4.67045C18.1397 3.12311 19.3272 1.81865 20.6406 0.757099L25.1747 3.69886C24.1132 5.30019 23.2225 6.97348 22.5028 8.71875C21.8011 10.446 21.4593 12.3532 21.4773 14.4403V20H13.7045Z" fill="#E6008D"/>
</svg>
