<svg width="393" height="74" viewBox="0 0 393 74" fill="none" xmlns="http://www.w3.org/2000/svg">
<path d="M38.1647 1.65485C38.1647 0.740902 38.9056 -1.66823e-06 39.8195 -1.66823e-06L55.5922 -1.66823e-06C56.5061 -1.66823e-06 57.247 0.7409 57.247 1.65485L57.247 17.4464C57.247 18.3604 57.9879 19.1013 58.9019 19.1013L74.6745 19.1013C75.5884 19.1013 76.3294 19.8422 76.3294 20.7561L76.3294 38.2026L76.3294 55.649C76.3294 56.563 77.0703 57.3039 77.9842 57.3039L93.7569 57.3039C94.6708 57.3039 95.4117 56.563 95.4117 55.649L95.4117 38.2026L114.494 38.2026L114.494 55.649C114.494 56.563 115.235 57.3039 116.149 57.3039L131.922 57.3039C132.835 57.3039 133.576 56.563 133.576 55.649L133.576 39.8574C133.576 38.9435 134.317 38.2026 135.231 38.2026L151.004 38.2026C151.918 38.2026 152.659 38.9435 152.659 39.8574L152.659 55.649C152.659 56.563 153.4 57.3039 154.314 57.3039L257.32 57.3039C258.234 57.3039 258.975 58.0448 258.975 58.9587L258.975 137.512C258.975 138.426 258.234 139.167 257.32 139.167L1.65486 139.167C0.740909 139.167 6.06771e-06 138.426 6.04864e-06 137.512L3.61286e-06 20.7561C3.59379e-06 19.8422 0.740908 19.1013 1.65486 19.1013L17.4275 19.1013C18.3414 19.1013 19.0823 19.8422 19.0823 20.7561L19.0823 36.5477C19.0823 37.4617 19.8232 38.2026 20.7372 38.2026L36.5098 38.2026C37.4238 38.2026 38.1647 37.4617 38.1647 36.5477L38.1647 1.65485Z" fill="#131720"/>
<path d="M95.4117 20.7561C95.4117 19.8422 96.1526 19.1013 97.0666 19.1013L112.839 19.1013C113.753 19.1013 114.494 19.8422 114.494 20.7561L114.494 38.2026L95.4117 38.2026L95.4117 20.7561Z" fill="#131720"/>
<path d="M354.835 1.65485C354.835 0.740902 354.094 -1.66823e-06 353.18 -1.66823e-06L337.408 -1.66823e-06C336.494 -1.66823e-06 335.753 0.7409 335.753 1.65485L335.753 17.4464C335.753 18.3604 335.012 19.1013 334.098 19.1013L318.325 19.1013C317.412 19.1013 316.671 19.8422 316.671 20.7561L316.671 38.2026L316.671 55.649C316.671 56.563 315.93 57.3039 315.016 57.3039L299.243 57.3039C298.329 57.3039 297.588 56.563 297.588 55.649L297.588 38.2026L278.506 38.2026L278.506 55.649C278.506 56.563 277.765 57.3039 276.851 57.3039L261.078 57.3039C260.165 57.3039 259.424 56.563 259.424 55.649L259.424 39.8574C259.424 38.9435 258.683 38.2026 257.769 38.2026L241.996 38.2026C241.082 38.2026 240.341 38.9435 240.341 39.8574L240.341 55.649C240.341 56.563 239.6 57.3039 238.686 57.3039L135.68 57.3039C134.766 57.3039 134.025 58.0448 134.025 58.9587L134.025 137.512C134.025 138.426 134.766 139.167 135.68 139.167L391.345 139.167C392.259 139.167 393 138.426 393 137.512L393 20.7561C393 19.8422 392.259 19.1013 391.345 19.1013L375.573 19.1013C374.659 19.1013 373.918 19.8422 373.918 20.7561L373.918 36.5477C373.918 37.4617 373.177 38.2026 372.263 38.2026L356.49 38.2026C355.576 38.2026 354.835 37.4617 354.835 36.5477L354.835 1.65485Z" fill="#131720"/>
<path d="M297.588 20.7561C297.588 19.8422 296.847 19.1013 295.933 19.1013L280.161 19.1013C279.247 19.1013 278.506 19.8422 278.506 20.7561L278.506 38.2026L297.588 38.2026L297.588 20.7561Z" fill="#131720"/>
</svg>
