<?xml version="1.0" encoding="iso-8859-1"?>
<!-- Uploaded to: SVG Repo, www.svgrepo.com, Generator: SVG Repo Mixer Tools -->
<!DOCTYPE svg PUBLIC "-//W3C//DTD SVG 1.1//EN" "http://www.w3.org/Graphics/SVG/1.1/DTD/svg11.dtd">
<svg fill="white" version="1.1" id="Capa_1" xmlns="http://www.w3.org/2000/svg" xmlns:xlink="http://www.w3.org/1999/xlink" 
	 width="800px" height="800px" viewBox="0 0 77.067 77.066"
	 xml:space="preserve">
<g>
	<path d="M72.52,61.444V33.891c0-3.646-2.957-6.602-6.604-6.602h-4.319c-1.777,0-3.381,0.709-4.566,1.85
		c-7.246-1.893-12.608-7.971-13.213-8.959c-4.141-6.754-4.621-11.123-4.938-14.016C38.469,2.441,37.781,0,32.176,0
		c-1.977,0-3.775,0.779-5.203,2.254c-4.73,4.879-4.52,16.324-4.479,17.613l0.031,0.301c0.545,2.938,0.289,4.496,0.027,5.141h-7.1
		c-2.875,0-5.41,1.434-6.968,3.613c-0.13,0.145-0.232,0.309-0.323,0.486c-0.045,0.07-0.098,0.135-0.14,0.207
		c0.007-0.002,0.014-0.002,0.021-0.004c-0.059,0.148-0.101,0.299-0.126,0.449c-1.659,5.668-6.484,25.163-0.333,41.885
		c1.374,4.432,4.2,4.859,7.869,4.859l6.525,0.262l0.127-0.004h0.164c6.125,0,20.764-0.769,25.329-7.775
		c0.666-0.66,3.821-3.658,7.807-5.621c0.914,2.547,3.328,4.381,6.191,4.381h4.319C69.563,68.049,72.52,65.092,72.52,61.444z
		 M55.112,32.729c-0.068,0.379-0.119,0.764-0.119,1.162v25.617c-5.774,2.43-10.133,6.908-10.383,7.168l-0.258,0.336
		C41.604,71.5,31.141,73.1,22.27,73.102c-0.061,0-0.119,0.002-0.174,0.005l-6.562-0.261c-1.639,0-2.658-0.006-3.336-0.519
		c0.064-0.39,0.037-0.797-0.117-1.19c-6.111-15.584-1.424-34.418,0.158-39.82c0.276-0.941,1.06-1.912,1.631-1.748
		c0.496-0.182,1.025-0.297,1.584-0.297h6.068c1.248,0.533,2.887,0.096,3.898-1.119c1.4-1.684,1.744-4.559,1.029-8.549
		c-0.074-3.16,0.387-11.52,3.367-14.592c0.695-0.715,1.443-1.049,2.359-1.049c2.477,0,2.477,0,2.766,2.637
		c0.334,3.045,0.895,8.145,5.447,15.564l0.004-0.002C41.264,23.55,46.912,30.235,55.112,32.729z"/>
</g>
</svg>
