<?xml version="1.0" encoding="utf-8"?>
<!DOCTYPE svg PUBLIC "-//W3C//DTD SVG 1.1//EN" "http://www.w3.org/Graphics/SVG/1.1/DTD/svg11.dtd">
<svg version="1.1" xmlns="http://www.w3.org/2000/svg" xmlns:xlink="http://www.w3.org/1999/xlink" x="0px" y="0px" viewBox="0 0 1000 1000" enable-background="new 0 0 1000 1000" xml:space="preserve">

<linearGradient xmlns="http://www.w3.org/2000/svg" 
id="gradient" gradientUnits="userSpaceOnUse" x1="184.2886" y1="98.5924" 
x2="628.1017" 
y2="867.2993">
	<stop offset="0" style="stop-color:#e8108d"/>
	<stop offset="0.5" style="stop-color:#8e2088"/>
	<stop offset="1" style="stop-color:#602586"/>
</linearGradient>
<style type="text/css">
	.st0{fill:url(#gradient);}
</style>
<g class="st0">

<path d="M764,291.3c0,35.7-0.2,71.4,0.1,107.2c0.1,14.8-5.4,26.6-16.5,36c-74.2,62.4-148.3,124.8-222.6,187.1c-18.1,15.2-37.3,15.3-55.3-0.1c-73.1-62.7-146.1-125.5-219.1-188.3c-10.3-8.9-14.6-20.6-14.6-33.9c-0.1-72.7,0-145.4,0-218.2c0-17.1,7.4-30,22.2-38.5c73.5-42.1,147.1-84.1,220.6-126.1c14.2-8.1,28.5-7.9,42.7,0.2c73.6,42,147.1,84,220.6,126.1c15.3,8.7,22,22.3,21.9,39.6C763.9,218.6,764,254.9,764,291.3z M346.6,179.1c1.8,1.5,2.9,2.6,4.1,3.4c55.4,39.6,111,79.2,166.3,118.9c5.1,3.7,8.4,3.2,13.3-0.2c48.2-33.8,96.7-67.4,145-101c2-1.4,3.7-3.1,5.8-4.8c-1.4-1-2.1-1.7-2.9-2.1c-57.4-32.9-114.8-65.8-172.5-98.4c-3.2-1.8-9.3-1.2-12.7,0.7c-39.2,21.9-78,44.3-117,66.6C366.4,167.7,356.8,173.3,346.6,179.1z M312.5,248.7c-0.3,3.2-0.7,5.3-0.7,7.4c0,41.1-0.2,82.3,0.3,123.4c0.1,4.2,3.4,9.4,6.8,12.3c57.1,49.5,114.4,98.7,171.7,147.9c2.3,2,4.6,3.8,8.2,6.7c0.5-4,1.1-6.1,1.1-8.1c0-50.1,0.2-100.1-0.2-150.2c0-3.5-2.9-8.3-5.9-10.4c-57.4-41.3-115-82.4-172.6-123.5C318.7,252.6,316.1,251,312.5,248.7z"/><path d="M764,989.6c-63,0-124.8,0-187.2,0c-0.2-2.8-0.5-5.2-0.5-7.7c-0.4-47.5-1.2-95-1.2-142.6c0-44.4,6-87.6,26.8-127.8c12.7-24.6,29.5-46.1,49-65.6c54.8-54.8,109.5-109.7,164.4-164.4c26.9-26.8,64.5-25.4,87,2.6c15.9,19.8,16.1,49.1,0.3,69c-3.2,4-6.7,7.7-10.3,11.3c-48.9,49-97.9,97.9-146.8,146.8c-2.4,2.4-4.7,4.9-8.6,9.1c30.5-0.4,58.2-3.1,79.6-24.4c37-36.9,73-74.9,110.1-111.8c44.8-44.4,32.3-134.2-45.9-156.5c-0.9-0.3-1.8-0.5-3.2-0.9c-0.2-1-0.7-2.2-0.7-3.4c0-56.4-0.4-112.9,0.1-169.3c0.4-39,38.3-64.9,75.1-52.4c22.4,7.6,37.5,29.1,37.6,54.5c0.2,34.4,0.1,68.9,0.1,103.3c0,62.8,0.4,125.7-0.2,188.5c-0.2,19.3-2.6,38.7-5.1,57.9c-2.4,18.3-12.4,33.1-24.4,46.7C896,725.9,832,799.1,768.2,872.5c-2.6,3-4,7.9-4.1,11.9C763.8,919.2,764,953.9,764,989.6z"/><path d="M123,426c-38.1,12.3-65.5,34.4-73.2,74.1c-5.9,30.3-0.8,59.1,22.1,82.4c37.3,38,74.2,76.4,112,114c21.2,21,48.8,23.4,78.9,23.9c-3.7-4-5.9-6.5-8.3-8.9c-49.8-49.9-99.7-99.6-149.5-149.6c-21.6-21.6-25.6-48-11.5-72.1c17-28.9,56.8-36.3,83-15.4c2.2,1.8,4.5,3.6,6.5,5.6C242.7,540,303,599.3,361.7,660c34.9,36.1,55.7,80.4,59.4,130.5c3.1,42.5,2.3,85.3,2.9,128c0.3,23.5,0.1,47,0.1,71c-63.2,0-124.9,0-188.1,0c0-3.4,0-6.7,0-10.1c0-31.6,0.2-63.2-0.2-94.7c-0.1-4.5-2.1-10-5.1-13.4c-64-73.6-128.1-147.2-192.7-220.4c-20.6-23.3-27-51.2-27.3-80.5c-0.8-105.6-0.7-211.1-0.4-316.7c0.1-30.7,25.5-54.8,56-55.2c30.5-0.4,56.4,24.3,56.7,55.4C123.3,311.3,123,368.7,123,426z"/></g>
</svg>
