<svg xmlns="http://www.w3.org/2000/svg" viewBox="0 0 256 256"><path fill="#fff" stroke-miterlimit="10" d="M15 3a12 12 0 0 0-3 23.6V24h-1.5q-1.3 0-2-1c-.3-.7-.4-1.9-1.3-2.5q-.3-.5.2-.5.9.3 1.6 1.2c.5.7.7.8 1.6.8l1.7-.1q.5-1.4 1.6-2c-4-.4-6-2.4-6-5Q8 13 9.4 11.5c-.2-1-.6-2.9.1-3.6 1.8 0 3 1.2 3.2 1.5a9 9 0 0 1 5.8 0c.3-.3 1.4-1.5 3.2-1.5.7.7.3 2.7 0 3.6Q23 13 23 14.8c0 2.7-2 4.7-5.9 5.1 1.1.6 1.9 2.2 1.9 3.4v3A12 12 0 0 0 15 3" font-family="none" font-size="none" font-weight="none" style="mix-blend-mode:normal" text-anchor="none" transform="scale(9)"/></svg>
