<svg width="24" height="21" viewBox="0 0 24 21" fill="none" xmlns="http://www.w3.org/2000/svg">
<g clip-path="url(#clip0_2022_863)">
<path d="M17.2912 17.6421H14.2843V12.9332C14.2843 11.8103 14.2643 10.3648 12.7204 10.3648C11.1543 10.3648 10.9147 11.5882 10.9147 12.8514V17.6418H7.90779V7.95832H10.7944V9.28167H10.8348C11.1237 8.78774 11.5411 8.38141 12.0427 8.10595C12.5442 7.8305 13.1111 7.69623 13.6829 7.71746C16.7305 7.71746 17.2924 9.72205 17.2924 12.3299L17.2912 17.6421ZM4.51503 6.63467C4.16991 6.63473 3.83252 6.53245 3.54553 6.34077C3.25854 6.14908 3.03486 5.8766 2.90273 5.55778C2.7706 5.23895 2.73598 4.88811 2.80325 4.54962C2.87051 4.21112 3.03665 3.90017 3.28064 3.6561C3.52463 3.41202 3.83552 3.24577 4.17399 3.17838C4.51247 3.11099 4.86331 3.14549 5.18218 3.2775C5.50105 3.40951 5.77361 3.63311 5.9654 3.92003C6.15719 4.20695 6.25959 4.5443 6.25965 4.88942C6.25969 5.11857 6.21459 5.34548 6.12694 5.5572C6.03929 5.76892 5.9108 5.9613 5.7488 6.12336C5.5868 6.28543 5.39445 6.41399 5.18276 6.50172C4.97107 6.58945 4.74418 6.63462 4.51503 6.63467ZM6.01847 17.6421H3.00845V7.95832H6.01847V17.6421ZM18.7902 0.352457H1.4975C1.105 0.348027 0.726783 0.499605 0.445987 0.773881C0.165192 1.04816 0.0047902 1.42269 0 1.81518V19.1797C0.00462626 19.5724 0.164934 19.9471 0.44572 20.2217C0.726505 20.4963 1.1048 20.6481 1.4975 20.644H18.7902C19.1837 20.6489 19.5631 20.4975 19.845 20.2229C20.1269 19.9483 20.2882 19.5731 20.2937 19.1797V1.81393C20.2881 1.42066 20.1266 1.0457 19.8447 0.77143C19.5628 0.497161 19.1835 0.346017 18.7902 0.351203" fill="white"/>
</g>
<defs>
<clipPath id="clip0_2022_863">
<rect width="24" height="20.4613" fill="white" transform="translate(0 0.351074)"/>
</clipPath>
</defs>
</svg>
