<?xml version="1.0" encoding="UTF-8" standalone="no"?>
<!DOCTYPE svg PUBLIC "-//W3C//DTD SVG 1.0//EN" "http://www.w3.org/TR/2001/REC-SVG-20010904/DTD/svg10.dtd" [
    <!ATTLIST svg xmlns:xlink CDATA #FIXED "http://www.w3.org/1999/xlink">
]>
<svg width="343pt" height="260pt"
    viewBox="0 0 343 260"
    xmlns="http://www.w3.org/2000/svg" xmlns:xlink="http://www.w3.org/1999/xlink">
    <title>Hasse diagram</title>
    <g id="graph0" class="graph" style="font-family:Times-Roman;font-size:14.00;">
        <polygon style="fill:#ffffff;stroke:#ffffff;" points="-2,262 -2,-2 345,-2 345,262 -2,262" />
        <!-- xyz -->
        <g id="node1" class="node">
            <title>xyz</title>
            <ellipse style="fill:none;stroke:black;" cx="171" cy="22" rx="31" ry="18" />
            <text text-anchor="middle" x="171" y="27" style="">{x,y,z}</text>
        </g>
        <!-- yz -->
        <g id="node2" class="node">
            <title>yz</title>
            <ellipse style="fill:none;stroke:black;" cx="293" cy="94" rx="27" ry="18" />
            <text text-anchor="middle" x="293" y="99" style="">{y,z}</text>
        </g>
        <!-- xyz&#45;&gt;yz -->
        <g id="edge3" class="edge">
            <title>xyz&#45;&gt;yz</title>
            <path style="fill:none;stroke:black;" d="M202,40C224,54 254,71 273,82" />
            <polygon style="fill:none;stroke:black;" points="200,43 193,35 203,37 200,43" />
        </g>
        <!-- xz -->
        <g id="node3" class="node">
            <title>xz</title>
            <ellipse style="fill:none;stroke:black;" cx="171" cy="94" rx="27" ry="18" />
            <text text-anchor="middle" x="171" y="99" style="">{x,z}</text>
        </g>
        <!-- xyz&#45;&gt;xz -->
        <g id="edge4" class="edge">
            <title>xyz&#45;&gt;xz</title>
            <path style="fill:none;stroke:black;" d="M171,50C171,59 171,68 171,76" />
            <polygon style="fill:none;stroke:black;" points="168,50 171,40 175,50 168,50" />
        </g>
        <!-- xy -->
        <g id="node4" class="node">
            <title>xy</title>
            <ellipse style="fill:none;stroke:black;" cx="49" cy="94" rx="27" ry="18" />
            <text text-anchor="middle" x="49" y="99" style="">{x,y}</text>
        </g>
        <!-- xyz&#45;&gt;xy -->
        <g id="edge5" class="edge">
            <title>xyz&#45;&gt;xy</title>
            <path style="fill:none;stroke:black;" d="M140,40C118,54 88,71 69,82" />
            <polygon style="fill:none;stroke:black;" points="139,37 149,35 142,43 139,37" />
        </g>
        <!-- y -->
        <g id="node6" class="node">
            <title>y</title>
            <ellipse style="fill:none;stroke:black;" cx="171" cy="166" rx="27" ry="18" />
            <text text-anchor="middle" x="171" y="171" style="">{y}</text>
        </g>
        <!-- yz&#45;&gt;y -->
        <g id="edge8" class="edge">
            <title>yz&#45;&gt;y</title>
            <path style="fill:none;stroke:black;" d="M264,111C242,125 211,143 192,154" />
            <polygon style="fill:none;stroke:black;" points="263,108 273,106 266,114 263,108" />
        </g>
        <!-- z -->
        <g id="node7" class="node">
            <title>z</title>
            <ellipse style="fill:none;stroke:black;" cx="293" cy="166" rx="27" ry="18" />
            <text text-anchor="middle" x="293" y="171" style="">{z}</text>
        </g>
        <!-- yz&#45;&gt;z -->
        <g id="edge9" class="edge">
            <title>yz&#45;&gt;z</title>
            <path style="fill:none;stroke:black;" d="M293,122C293,131 293,140 293,148" />
            <polygon style="fill:none;stroke:black;" points="290,122 293,112 297,122 290,122" />
        </g>
        <!-- x -->
        <g id="node5" class="node">
            <title>x</title>
            <ellipse style="fill:none;stroke:black;" cx="49" cy="166" rx="27" ry="18" />
            <text text-anchor="middle" x="49" y="171" style="">{x}</text>
        </g>
        <!-- xz&#45;&gt;x -->
        <g id="edge12" class="edge">
            <title>xz&#45;&gt;x</title>
            <path style="fill:none;stroke:black;" d="M142,111C120,125 89,143 70,154" />
            <polygon style="fill:none;stroke:black;" points="141,108 151,106 144,114 141,108" />
        </g>
        <!-- xz&#45;&gt;z -->
        <g id="edge13" class="edge">
            <title>xz&#45;&gt;z</title>
            <path style="fill:none;stroke:black;" d="M200,111C222,125 253,143 272,154" />
            <polygon style="fill:none;stroke:black;" points="198,114 191,106 201,108 198,114" />
        </g>
        <!-- xy&#45;&gt;x -->
        <g id="edge16" class="edge">
            <title>xy&#45;&gt;x</title>
            <path style="fill:none;stroke:black;" d="M49,122C49,131 49,140 49,148" />
            <polygon style="fill:none;stroke:black;" points="46,122 49,112 53,122 46,122" />
        </g>
        <!-- xy&#45;&gt;y -->
        <g id="edge17" class="edge">
            <title>xy&#45;&gt;y</title>
            <path style="fill:none;stroke:black;" d="M78,111C100,125 131,143 150,154" />
            <polygon style="fill:none;stroke:black;" points="76,114 69,106 79,108 76,114" />
        </g>
        <!-- phi -->
        <g id="node8" class="node">
            <title>phi</title>
            <ellipse style="fill:none;stroke:black;" cx="171" cy="238" rx="27" ry="18" />
            <text text-anchor="middle" x="171" y="243" style="">Ø</text>
        </g>
        <!-- x&#45;&gt;phi -->
        <g id="edge19" class="edge">
            <title>x&#45;&gt;phi</title>
            <path style="fill:none;stroke:black;" d="M78,183C100,197 131,215 150,226" />
            <polygon style="fill:none;stroke:black;" points="76,186 69,178 79,180 76,186" />
        </g>
        <!-- y&#45;&gt;phi -->
        <g id="edge21" class="edge">
            <title>y&#45;&gt;phi</title>
            <path style="fill:none;stroke:black;" d="M171,194C171,203 171,212 171,220" />
            <polygon style="fill:none;stroke:black;" points="168,194 171,184 175,194 168,194" />
        </g>
        <!-- z&#45;&gt;phi -->
        <g id="edge23" class="edge">
            <title>z&#45;&gt;phi</title>
            <path style="fill:none;stroke:black;" d="M264,183C242,197 211,215 192,226" />
            <polygon style="fill:none;stroke:black;" points="263,180 273,178 266,186 263,180" />
        </g>
    </g>
</svg>
