<?xml version="1.0" encoding="iso-8859-1"?>
<!-- Uploaded to: SVG Repo, www.svgrepo.com, Generator: SVG Repo Mixer Tools -->
<svg height="800px" width="800px" version="1.1" id="Capa_1" xmlns="http://www.w3.org/2000/svg"
    xmlns:xlink="http://www.w3.org/1999/xlink"
    viewBox="0 0 28.832 28.832" xml:space="preserve">

     <linearGradient xmlns="http://www.w3.org/2000/svg" 
id="gradient" gradientUnits="userSpaceOnUse" x1="0" y1="0" 
x2="28.1017" 
y2="28.2993">
	<stop offset="0" style="stop-color:#e8108d"/>
	<stop offset="0.5" style="stop-color:#8e2088"/>
	<stop offset="1" style="stop-color:#602586"/>
</linearGradient>
<style type="text/css">
	.st0{fill:url(#gradient);}
</style>
<g class="st0">
	<path class="st0" d="M11.98,5.373c0-1.584,1.284-2.869,2.869-2.869s2.869,1.284,2.869,2.869s-1.284,2.869-2.869,2.869
		S11.98,6.957,11.98,5.373z M15.716,15.621c0.616-0.658,1.479-1.075,2.575-1.245c0.249-0.038,0.513-0.061,0.786-0.077
		c0.088-0.003,0.171-0.012,0.259-0.012h1.707c-1.253-0.521-2.141-1.761-2.141-3.203c0-0.575,0.143-1.12,0.394-1.596
		c-0.89-0.325-1.711-0.32-1.711-0.32h-5.753c-0.643,0.015-1.183,0.096-1.636,0.23c0.281,0.5,0.442,1.076,0.442,1.686
		c0,1.442-0.887,2.681-2.142,3.203h1.412c0.017-0.002,0.033-0.002,0.051-0.002c0.1,0,0.209,0.004,0.319,0.012
		c0.235,0.017,0.492,0.053,0.758,0.107c1.444,0.303,3.186,1.253,3.379,3.527l0.002,0.051v1.774h0.362l0.002-1.774
		C14.779,17.957,14.729,16.675,15.716,15.621z M6.993,13.983c1.582,0,2.869-1.287,2.869-2.871S8.575,8.243,6.993,8.243
		c-1.584,0-2.869,1.285-2.869,2.869C4.124,12.695,5.41,13.983,6.993,13.983z M9.728,14.908H3.976
		c-4.118,0.076-3.975,3.103-3.975,3.103L0,25.067h0.004c0,0.017-0.003,0.035-0.003,0.05c0,0.67,0.545,1.211,1.213,1.211
		c0.669,0,1.209-0.541,1.209-1.211c0-0.016-0.002-0.033-0.005-0.05h0.005v-6.532h0.758l-0.006,6.958l7.266,0.006l-0.006-6.996h0.786
		v6.563h0.004c0,0.003,0,0.006,0,0.01c0,0.669,0.541,1.211,1.207,1.211c0.669,0,1.211-0.542,1.211-1.211c0-0.004,0-0.007,0-0.01
		V18.01C13.378,14.861,9.728,14.908,9.728,14.908z M22.185,13.982c1.585,0,2.87-1.285,2.87-2.87s-1.285-2.87-2.87-2.87
		s-2.87,1.285-2.87,2.87C19.316,12.697,20.6,13.982,22.185,13.982z M24.921,14.908h-5.754c-4.119,0.076-3.973,3.103-3.973,3.103
		l-0.002,7.056h0.005c0,0.017-0.003,0.035-0.003,0.05c0,0.67,0.544,1.211,1.212,1.211c0.669,0,1.208-0.541,1.208-1.211
		c0-0.016-0.003-0.033-0.004-0.05h0.004v-6.532h0.76l-0.009,6.958l7.266,0.006l-0.006-6.996h0.786v6.563h0.002
		c0,0.003,0,0.006,0,0.01c0,0.669,0.542,1.211,1.21,1.211c0.667,0,1.209-0.542,1.209-1.211c0-0.004,0-0.007,0-0.01V18.01
		C28.57,14.861,24.921,14.908,24.921,14.908z"/>
</g>
</svg>
