<?xml version="1.0" encoding="utf-8"?>
<!DOCTYPE svg PUBLIC "-//W3C//DTD SVG 1.1//EN" "http://www.w3.org/Graphics/SVG/1.1/DTD/svg11.dtd">
<svg version="1.1" xmlns="http://www.w3.org/2000/svg" xmlns:xlink="http://www.w3.org/1999/xlink" x="0px" y="0px" viewBox="0 0 1000 1000" enable-background="new 0 0 1000 1000" xml:space="preserve">
<linearGradient xmlns="http://www.w3.org/2000/svg" 
id="gradient" gradientUnits="userSpaceOnUse" x1="184.2886" y1="98.5924" 
x2="628.1017" 
y2="867.2993">
	<stop offset="0" style="stop-color:#e8108d"/>
	<stop offset="0.5" style="stop-color:#8e2088"/>
	<stop offset="1" style="stop-color:#602586"/>
</linearGradient>
<style type="text/css">
	.st0{fill:url(#gradient);}
</style>
<g xmlns="http://www.w3.org/2000/svg" class="st0">
<path d="M785.8,397.9L990,295.8l-490-245l-490,245l204.2,102.1L10,500l204.2,102.1L10,704.2l490,245l490-245L785.8,602.1L990,500L785.8,397.9z M283.6,430.6L500,540.8l216.4-110.2L851.2,500L500,675.6L148.8,500L283.6,430.6z M851.2,704.2L500,879.8L148.8,704.2l134.8-69.4L500,745l216.4-110.3L851.2,704.2z"/></g>
</svg>
