<svg width="672" height="640" viewBox="0 0 672 640" fill="none" xmlns="http://www.w3.org/2000/svg">
<rect x="552.457" y="468.109" width="40.5439" height="40.5439" rx="6.61941" fill="#141724"/>
<rect x="514.395" y="44.4669" width="40.5439" height="40.5439" rx="6.61941" fill="#141724"/>
<rect x="123.85" y="149.55" width="57.0924" height="57.0924" rx="6.61941" fill="#141724"/>
<rect x="485.434" y="527.684" width="57.0924" height="57.0924" rx="6.61941" fill="#141724"/>
<rect x="65.1016" y="497.069" width="23.168" height="23.168" rx="4.96456" fill="#141724"/>
<rect x="88.2695" y="200.851" width="22.3405" height="22.3405" rx="4.13713" fill="#141724"/>
<g filter="url(#filter0_bi_2016_1188)">
<path d="M216.978 66.3702C216.978 65.4563 217.719 64.7154 218.633 64.7154L239.779 64.7154C240.693 64.7154 241.434 65.4563 241.434 66.3702L241.434 87.5399C241.434 88.4538 242.174 89.1947 243.088 89.1947L264.234 89.1947C265.148 89.1947 265.889 89.9356 265.889 90.8496L265.889 113.674L265.889 136.499C265.889 137.413 266.629 138.153 267.543 138.153L288.689 138.153C289.603 138.153 290.344 137.413 290.344 136.499L290.344 113.674L314.799 113.674L314.799 136.499C314.799 137.413 315.54 138.153 316.454 138.153L337.599 138.153C338.513 138.153 339.254 137.413 339.254 136.499L339.254 115.329C339.254 114.415 339.995 113.674 340.909 113.674L362.054 113.674C362.968 113.674 363.709 114.415 363.709 115.329L363.709 136.499C363.709 137.413 364.45 138.153 365.364 138.153L498.304 138.153C499.218 138.153 499.958 138.894 499.958 139.808L499.958 241.41C499.958 242.324 499.218 243.065 498.304 243.065L169.723 243.065C168.809 243.065 168.068 242.324 168.068 241.41L168.068 90.8496C168.068 89.9356 168.809 89.1947 169.723 89.1947L190.869 89.1947C191.783 89.1947 192.523 89.9356 192.523 90.8496L192.523 112.019C192.523 112.933 193.264 113.674 194.178 113.674L215.324 113.674C216.238 113.674 216.978 112.933 216.978 112.019L216.978 66.3702Z" fill="#E6008D" fill-opacity="0.25"/>
<path d="M290.344 90.8496C290.344 89.9356 291.085 89.1947 291.999 89.1947L313.144 89.1947C314.058 89.1947 314.799 89.9356 314.799 90.8496L314.799 113.674L290.344 113.674L290.344 90.8496Z" fill="#E6008D" fill-opacity="0.25"/>
<path d="M289.93 113.26L289.93 90.8496C289.93 89.7071 290.856 88.781 291.999 88.781L313.144 88.781C314.286 88.781 315.212 89.7071 315.212 90.8496L315.212 113.26L315.212 113.674L315.212 114.088L315.212 136.499C315.212 137.184 315.768 137.74 316.454 137.74L337.599 137.74C338.284 137.74 338.84 137.184 338.84 136.499L338.84 115.329C338.84 114.186 339.766 113.26 340.909 113.26L362.054 113.26C363.196 113.26 364.123 114.186 364.123 115.329L364.123 136.499C364.123 137.184 364.678 137.74 365.364 137.74L498.304 137.74C499.446 137.74 500.372 138.666 500.372 139.808L500.372 241.41C500.372 242.552 499.446 243.479 498.304 243.479L169.723 243.479C168.581 243.479 167.655 242.552 167.655 241.41L167.655 90.8496C167.655 89.7072 168.581 88.781 169.723 88.781L190.869 88.781C192.011 88.781 192.937 89.7072 192.937 90.8496L192.937 112.019C192.937 112.705 193.493 113.26 194.178 113.26L215.324 113.26C216.009 113.26 216.565 112.705 216.565 112.019L216.565 66.3702C216.565 65.2278 217.491 64.3017 218.633 64.3017L239.779 64.3017C240.921 64.3017 241.847 65.2278 241.847 66.3702L241.847 87.5399C241.847 88.2253 242.403 88.781 243.088 88.781L264.234 88.781C265.376 88.781 266.302 89.7071 266.302 90.8496L266.302 113.674L266.302 136.499C266.302 137.184 266.858 137.74 267.543 137.74L288.689 137.74C289.374 137.74 289.93 137.184 289.93 136.499L289.93 114.088L289.93 113.674L289.93 113.26Z" stroke="url(#paint0_linear_2016_1188)" stroke-width="0.827427"/>
</g>
<g filter="url(#filter1_i_2016_1188)">
<path d="M498.304 267.544L169.723 267.544C168.809 267.544 168.068 268.285 168.068 269.199L168.068 370.801C168.068 371.715 168.809 372.456 169.723 372.456L498.304 372.456C499.218 372.456 499.958 371.715 499.958 370.801V269.199C499.958 268.285 499.218 267.544 498.304 267.544Z" fill="#8D2089" fill-opacity="0.3"/>
</g>
<path d="M498.304 267.131L169.723 267.131C168.581 267.131 167.655 268.057 167.655 269.199L167.655 370.801C167.655 371.943 168.581 372.869 169.723 372.869L498.304 372.869C499.446 372.869 500.372 371.943 500.372 370.801V269.199C500.372 268.057 499.446 267.131 498.304 267.131Z" stroke="url(#paint1_linear_2016_1188)" stroke-width="0.827427"/>
<g filter="url(#filter2_bi_2016_1188)">
<path d="M168.068 398.59C168.068 397.676 168.809 396.935 169.723 396.935L498.304 396.935C499.218 396.935 499.958 397.676 499.958 398.59L499.958 526.326L475.503 526.326L451.048 526.326L402.138 526.326L402.138 503.501C402.138 502.587 401.397 501.847 400.483 501.847L379.338 501.847C378.424 501.847 377.683 502.587 377.683 503.501L377.683 526.326L353.228 526.326L353.228 503.501C353.228 502.587 352.487 501.847 351.573 501.847L330.428 501.847C329.514 501.847 328.773 502.587 328.773 503.501L328.773 524.671C328.773 525.585 328.032 526.326 327.118 526.326L305.973 526.326C305.059 526.326 304.318 525.585 304.318 524.671L304.318 503.501C304.318 502.587 303.577 501.847 302.663 501.847L169.723 501.847C168.809 501.847 168.068 501.106 168.068 500.192L168.068 398.59Z" fill="#5F2688" fill-opacity="0.3"/>
<path d="M428.248 575.285C427.334 575.285 426.593 574.544 426.593 573.63L426.593 552.46C426.593 551.546 425.852 550.805 424.938 550.805L403.793 550.805C402.879 550.805 402.138 550.064 402.138 549.15L402.138 526.326L451.048 526.326L451.048 573.63C451.048 574.544 450.307 575.285 449.393 575.285L428.248 575.285Z" fill="#5F2688" fill-opacity="0.3"/>
<path d="M475.503 526.326L475.503 549.15C475.503 550.064 476.244 550.805 477.158 550.805L498.304 550.805C499.218 550.805 499.958 550.064 499.958 549.15L499.958 526.326L475.503 526.326Z" fill="#5F2688" fill-opacity="0.3"/>
<path d="M353.228 526.326L377.683 526.326L377.683 549.15C377.683 550.064 376.942 550.805 376.028 550.805L354.883 550.805C353.969 550.805 353.228 550.064 353.228 549.15L353.228 526.326Z" fill="#5F2688" fill-opacity="0.3"/>
<path d="M500.372 526.326L500.372 526.74L500.372 549.15C500.372 550.293 499.446 551.219 498.304 551.219L477.158 551.219C476.016 551.219 475.09 550.293 475.09 549.15L475.09 526.74L451.462 526.74L451.462 573.63C451.462 574.772 450.536 575.698 449.393 575.698L428.248 575.698C427.106 575.698 426.18 574.772 426.18 573.63L426.18 552.46C426.18 551.775 425.624 551.219 424.938 551.219L403.793 551.219C402.651 551.219 401.724 550.293 401.724 549.15L401.724 526.74L401.724 526.326L401.724 525.912L401.724 503.501C401.724 502.816 401.169 502.26 400.483 502.26L379.338 502.26C378.653 502.26 378.097 502.816 378.097 503.501L378.097 525.912L378.097 526.326L378.097 526.74L378.097 549.15C378.097 550.293 377.171 551.219 376.028 551.219L354.883 551.219C353.741 551.219 352.814 550.293 352.814 549.15L352.814 526.74L352.814 526.326L352.814 525.912L352.814 503.501C352.814 502.816 352.259 502.26 351.573 502.26L330.428 502.26C329.742 502.26 329.187 502.816 329.187 503.501L329.187 524.671C329.187 525.813 328.261 526.74 327.118 526.74L305.973 526.74C304.83 526.74 303.904 525.813 303.904 524.671L303.904 503.501C303.904 502.816 303.349 502.26 302.663 502.26L169.723 502.26C168.581 502.26 167.655 501.334 167.655 500.192L167.655 398.59C167.655 397.447 168.581 396.521 169.723 396.521L498.304 396.521C499.446 396.521 500.372 397.447 500.372 398.59L500.372 525.912L500.372 526.326Z" stroke="url(#paint2_linear_2016_1188)" stroke-width="0.827427"/>
</g>
<defs>
<filter id="filter0_bi_2016_1188" x="160.621" y="57.2686" width="346.784" height="193.243" filterUnits="userSpaceOnUse" color-interpolation-filters="sRGB">
<feFlood flood-opacity="0" result="BackgroundImageFix"/>
<feGaussianBlur in="BackgroundImageFix" stdDeviation="3.30971"/>
<feComposite in2="SourceAlpha" operator="in" result="effect1_backgroundBlur_2016_1188"/>
<feBlend mode="normal" in="SourceGraphic" in2="effect1_backgroundBlur_2016_1188" result="shape"/>
<feColorMatrix in="SourceAlpha" type="matrix" values="0 0 0 0 0 0 0 0 0 0 0 0 0 0 0 0 0 0 127 0" result="hardAlpha"/>
<feOffset dy="6.61941"/>
<feGaussianBlur stdDeviation="20.6857"/>
<feComposite in2="hardAlpha" operator="arithmetic" k2="-1" k3="1"/>
<feColorMatrix type="matrix" values="0 0 0 0 0.873597 0 0 0 0 0.196154 0 0 0 0 0.611456 0 0 0 0.4 0"/>
<feBlend mode="normal" in2="shape" result="effect2_innerShadow_2016_1188"/>
</filter>
<filter id="filter1_i_2016_1188" x="167.24" y="266.717" width="333.545" height="113.186" filterUnits="userSpaceOnUse" color-interpolation-filters="sRGB">
<feFlood flood-opacity="0" result="BackgroundImageFix"/>
<feBlend mode="normal" in="SourceGraphic" in2="BackgroundImageFix" result="shape"/>
<feColorMatrix in="SourceAlpha" type="matrix" values="0 0 0 0 0 0 0 0 0 0 0 0 0 0 0 0 0 0 127 0" result="hardAlpha"/>
<feOffset dy="6.61941"/>
<feGaussianBlur stdDeviation="20.6857"/>
<feComposite in2="hardAlpha" operator="arithmetic" k2="-1" k3="1"/>
<feColorMatrix type="matrix" values="0 0 0 0 0.720819 0 0 0 0 0.103451 0 0 0 0 0.698163 0 0 0 0.3 0"/>
<feBlend mode="normal" in2="shape" result="effect1_innerShadow_2016_1188"/>
</filter>
<filter id="filter2_bi_2016_1188" x="160.621" y="389.488" width="346.784" height="193.243" filterUnits="userSpaceOnUse" color-interpolation-filters="sRGB">
<feFlood flood-opacity="0" result="BackgroundImageFix"/>
<feGaussianBlur in="BackgroundImageFix" stdDeviation="3.30971"/>
<feComposite in2="SourceAlpha" operator="in" result="effect1_backgroundBlur_2016_1188"/>
<feBlend mode="normal" in="SourceGraphic" in2="effect1_backgroundBlur_2016_1188" result="shape"/>
<feColorMatrix in="SourceAlpha" type="matrix" values="0 0 0 0 0 0 0 0 0 0 0 0 0 0 0 0 0 0 127 0" result="hardAlpha"/>
<feOffset dy="6.61941"/>
<feGaussianBlur stdDeviation="20.6857"/>
<feComposite in2="hardAlpha" operator="arithmetic" k2="-1" k3="1"/>
<feColorMatrix type="matrix" values="0 0 0 0 0.48333 0 0 0 0 0.146727 0 0 0 0 0.725449 0 0 0 0.4 0"/>
<feBlend mode="normal" in2="shape" result="effect2_innerShadow_2016_1188"/>
</filter>
<linearGradient id="paint0_linear_2016_1188" x1="350.976" y1="255.047" x2="350.976" y2="90.389" gradientUnits="userSpaceOnUse">
<stop stop-color="#0D0F18"/>
<stop offset="1" stop-color="#FA62BF"/>
</linearGradient>
<linearGradient id="paint1_linear_2016_1188" x1="350.148" y1="263.735" x2="350.148" y2="372.128" gradientUnits="userSpaceOnUse">
<stop stop-color="#FA21F2"/>
<stop offset="1" stop-color="#0D0F18"/>
</linearGradient>
<linearGradient id="paint2_linear_2016_1188" x1="348.493" y1="396.951" x2="353.044" y2="541.75" gradientUnits="userSpaceOnUse">
<stop stop-color="#9F19FF"/>
<stop offset="1" stop-color="#0D0F18"/>
</linearGradient>
</defs>
</svg>
