<svg width="417" height="80" viewBox="0 0 417 80" fill="none" xmlns="http://www.w3.org/2000/svg">
<path d="M61.4526 2.16462C61.4526 1.25067 62.1935 0.509763 63.1075 0.509763L90.5241 0.509763C91.4381 0.509763 92.179 1.25066 92.179 2.16461L92.179 29.6C92.179 30.514 92.9199 31.2549 93.8338 31.2549L121.25 31.2549C122.164 31.2549 122.905 31.9958 122.905 32.9097L122.905 62L122.905 78.5796C122.905 79.4936 123.646 80.2345 124.56 80.2345L151.977 80.2345C152.891 80.2345 153.632 79.4936 153.632 78.5796L153.632 49.4894L184.358 49.4894L184.358 78.5796C184.358 79.4936 185.099 80.2345 186.013 80.2345L213.429 80.2345C214.343 80.2345 215.084 79.4936 215.084 78.5796L215.084 51.1443C215.084 50.2303 215.825 49.4894 216.739 49.4894L244.156 49.4894C245.07 49.4894 245.811 50.2303 245.811 51.1442L245.811 78.5796C245.811 79.4936 246.551 80.2345 247.465 80.2345L415.345 80.2345C416.259 80.2345 417 80.9754 417 81.8893L417 210.345C417 211.258 416.259 211.999 415.345 211.999L1.65486 211.999C0.740913 211.999 9.22905e-06 211.258 9.20999e-06 210.345L5.24896e-06 20.3992C5.2299e-06 19.4852 0.740909 18.7443 1.65486 18.7443L29.0715 18.7443C29.9854 18.7443 30.7263 19.4852 30.7263 20.3992L30.7263 60.3451C30.7263 61.2591 31.4672 62 32.3812 62L59.7978 62C60.7117 62 61.4526 61.2591 61.4526 60.3451L61.4526 2.16462Z" fill="#0D0F18"/>
<path d="M153.632 20.3992C153.632 19.4852 154.373 18.7443 155.286 18.7443L182.703 18.7443C183.617 18.7443 184.358 19.4852 184.358 20.3992L184.358 49.4894L153.632 49.4894L153.632 20.3992Z" fill="#0D0F18"/>
</svg>
